ISO-10303-21;
HEADER;
FILE_DESCRIPTION (( 'STEP AP203' ),
    '1' );
FILE_NAME ('ÊäÈë¶Ë.STEP',
    '2026-08-28T03:19:41',
    ( '' ),
    ( '' ),
    'SwSTEP 2.0',
    'SolidWorks 2026',
    '' );
FILE_SCHEMA (( 'CONFIG_CONTROL_DESIGN' ));
ENDSEC;

DATA;
#1 = AXIS2_PLACEMENT_3D ( 'NONE', #473, #401, #76 ) ;
#2 = DIRECTION ( 'NONE',  ( 0.000000000000000000, 0.000000000000000000, 1.000000000000000000 ) ) ;
#3 = CC_DESIGN_PERSON_AND_ORGANIZATION_ASSIGNMENT ( #438, #249, ( #326 ) ) ;
#4 = VERTEX_POINT ( 'NONE', #879 ) ;
#5 = CARTESIAN_POINT ( 'NONE',  ( 2.550237242195675158, -0.9998609057851033377, 2.500000000000000000 ) ) ;
#6 = DIRECTION ( 'NONE',  ( -0.000000000000000000, -0.000000000000000000, 1.000000000000000000 ) ) ;
#7 = EDGE_CURVE ( 'NONE', #383, #70, #955, .T. ) ;
#8 = EDGE_LOOP ( 'NONE', ( #349, #485 ) ) ;
#9 = VECTOR ( 'NONE', #949, 1000.000000000000000 ) ;
#10 = CARTESIAN_POINT ( 'NONE',  ( -10.99999999999999822, 1.152188841818234133E-13, 0.000000000000000000 ) ) ;
#11 = DIRECTION ( 'NONE',  ( -0.000000000000000000, -0.000000000000000000, 1.000000000000000000 ) ) ;
#12 = EDGE_LOOP ( 'NONE', ( #573, #425 ) ) ;
#13 = EDGE_CURVE ( 'NONE', #1082, #776, #754, .T. ) ;
#14 = DIRECTION ( 'NONE',  ( -0.000000000000000000, -0.000000000000000000, 1.000000000000000000 ) ) ;
#15 = DIRECTION ( 'NONE',  ( -0.000000000000000000, -0.000000000000000000, 1.000000000000000000 ) ) ;
#16 = CIRCLE ( 'NONE', #626, 1.799999999999999600 ) ;
#17 = VERTEX_POINT ( 'NONE', #1053 ) ;
#18 = PERSON_AND_ORGANIZATION ( #121, #832 ) ;
#19 = MANIFOLD_SOLID_BREP ( '\X2\52079664\X0\-\X2\62c94f38\X0\4', #284 ) ;
#20 = CIRCLE ( 'NONE', #883, 3.049999999999999822 ) ;
#21 = CIRCLE ( 'NONE', #700, 1.799999999999999600 ) ;
#22 = PRODUCT_DEFINITION ( 'æœ', '', #590, #806 ) ;
#23 = CYLINDRICAL_SURFACE ( 'NONE', #77, 1.799999999999999822 ) ;
#24 = CARTESIAN_POINT ( 'NONE',  ( -10.63883476483182910, 8.838834764831858593, 0.000000000000000000 ) ) ;
#25 = CIRCLE ( 'NONE', #560, 3.049999999999999822 ) ;
#26 = ORIENTED_EDGE ( 'NONE', *, *, #636, .T. ) ;
#27 = DATE_AND_TIME ( #788, #624 ) ;
#28 = AXIS2_PLACEMENT_3D ( 'NONE', #795, #281, #36 ) ;
#29 = DIRECTION ( 'NONE',  ( -1.000000000000000000, 0.000000000000000000, 0.000000000000000000 ) ) ;
#30 = EDGE_CURVE ( 'NONE', #471, #639, #890, .T. ) ;
#31 = CARTESIAN_POINT ( 'NONE',  ( -10.63883476483194990, -8.838834764831739577, -3.500000000000000000 ) ) ;
#32 = EDGE_CURVE ( 'NONE', #333, #957, #321, .T. ) ;
#33 = ORIENTED_EDGE ( 'NONE', *, *, #796, .F. ) ;
#34 = ORIENTED_EDGE ( 'NONE', *, *, #813, .T. ) ;
#35 = CARTESIAN_POINT ( 'NONE',  ( 0.000000000000000000, 0.000000000000000000, 0.000000000000000000 ) ) ;
#36 = DIRECTION ( 'NONE',  ( -1.000000000000000000, 0.000000000000000000, 0.000000000000000000 ) ) ;
#37 = ORIENTED_EDGE ( 'NONE', *, *, #470, .T. ) ;
#38 = ORIENTED_EDGE ( 'NONE', *, *, #69, .T. ) ;
#39 = VECTOR ( 'NONE', #92, 1000.000000000000000 ) ;
#40 = CARTESIAN_POINT ( 'NONE',  ( 11.00000000000000000, -3.840629472727446691E-14, 0.000000000000000000 ) ) ;
#41 = DIRECTION ( 'NONE',  ( 1.000000000000000000, -0.000000000000000000, 0.000000000000000000 ) ) ;
#42 = AXIS2_PLACEMENT_3D ( 'NONE', #118, #364, #449 ) ;
#43 = ORIENTED_EDGE ( 'NONE', *, *, #877, .F. ) ;
#44 = CALENDAR_DATE ( 2026, 28, 8 ) ;
#45 = ADVANCED_FACE ( 'NONE', ( #575, #568, #978, #88, #995, #483, #81, #897, #247, #238 ), #304, .T. ) ;
#46 = ORIENTED_EDGE ( 'NONE', *, *, #893, .F. ) ;
#47 = PLANE ( 'NONE',  #269 ) ;
#48 = CARTESIAN_POINT ( 'NONE',  ( 1.799999999999922995, -11.00000000000000000, 0.000000000000000000 ) ) ;
#49 = CIRCLE ( 'NONE', #723, 5.500000000000000000 ) ;
#50 = DIRECTION ( 'NONE',  ( 1.000000000000000000, 0.000000000000000000, 0.000000000000000000 ) ) ;
#51 = ORIENTED_EDGE ( 'NONE', *, *, #410, .T. ) ;
#52 = CARTESIAN_POINT ( 'NONE',  ( 0.000000000000000000, 0.000000000000000000, 0.000000000000000000 ) ) ;
#53 = APPROVAL ( #372, 'æœª' ) ;
#54 = DIRECTION ( 'NONE',  ( 1.000000000000000000, 0.000000000000000000, 0.000000000000000000 ) ) ;
#55 = EDGE_LOOP ( 'NONE', ( #368, #857, #405, #1042 ) ) ;
#56 = ORIENTED_EDGE ( 'NONE', *, *, #939, .T. ) ;
#57 = AXIS2_PLACEMENT_3D ( 'NONE', #1055, #66, #887 ) ;
#58 = DIRECTION ( 'NONE',  ( 1.000000000000000000, 0.000000000000000000, 0.000000000000000000 ) ) ;
#59 = EDGE_CURVE ( 'NONE', #999, #94, #73, .T. ) ;
#60 = AXIS2_PLACEMENT_3D ( 'NONE', #413, #981, #585 ) ;
#61 = DIRECTION ( 'NONE',  ( -0.000000000000000000, -0.000000000000000000, 1.000000000000000000 ) ) ;
#62 = AXIS2_PLACEMENT_3D ( 'NONE', #664, #828, #901 ) ;
#63 = DIRECTION ( 'NONE',  ( 0.000000000000000000, 1.000000000000000000, 0.000000000000000000 ) ) ;
#64 = ORIENTED_EDGE ( 'NONE', *, *, #844, .F. ) ;
#65 = AXIS2_PLACEMENT_3D ( 'NONE', #10, #347, #938 ) ;
#66 = DIRECTION ( 'NONE',  ( 0.000000000000000000, 0.000000000000000000, 1.000000000000000000 ) ) ;
#67 = CARTESIAN_POINT ( 'NONE',  ( 0.000000000000000000, 0.000000000000000000, 2.500000000000000000 ) ) ;
#68 = DIRECTION ( 'NONE',  ( 0.000000000000000000, 0.000000000000000000, 1.000000000000000000 ) ) ;
#69 = EDGE_CURVE ( 'NONE', #550, #480, #581, .T. ) ;
#70 = VERTEX_POINT ( 'NONE', #823 ) ;
#71 = FACE_OUTER_BOUND ( 'NONE', #168, .T. ) ;
#72 = CARTESIAN_POINT ( 'NONE',  ( 0.0002372421956754770453, -0.9998609057851033377, 2.500000000000000444 ) ) ;
#73 = LINE ( 'NONE', #982, #156 ) ;
#74 = VERTEX_POINT ( 'NONE', #906 ) ;
#75 = LOCAL_TIME ( 11, 19, 41.00000000000000000, #278 ) ;
#76 = DIRECTION ( 'NONE',  ( 1.000000000000000000, 0.000000000000000000, 0.000000000000000000 ) ) ;
#77 = AXIS2_PLACEMENT_3D ( 'NONE', #959, #964, #208 ) ;
#78 = DIRECTION ( 'NONE',  ( 0.000000000000000000, 0.000000000000000000, 1.000000000000000000 ) ) ;
#79 = AXIS2_PLACEMENT_3D ( 'NONE', #435, #933, #352 ) ;
#80 = TOROIDAL_SURFACE ( 'NONE', #920, 3.049999999999999822, 0.5000000000000000000 ) ;
#81 = FACE_BOUND ( 'NONE', #866, .T. ) ;
#82 = ORIENTED_EDGE ( 'NONE', *, *, #254, .F. ) ;
#83 = EDGE_CURVE ( 'NONE', #752, #874, #393, .T. ) ;
#84 = CIRCLE ( 'NONE', #376, 1.799999999999999600 ) ;
#85 = DIRECTION ( 'NONE',  ( 1.000000000000000000, 0.000000000000000000, 0.000000000000000000 ) ) ;
#86 = EDGE_CURVE ( 'NONE', #829, #544, #1081, .T. ) ;
#87 = CARTESIAN_POINT ( 'NONE',  ( 1.799999999999999822, 11.00000000000000000, 2.500000000000000000 ) ) ;
#88 = FACE_BOUND ( 'NONE', #798, .T. ) ;
#89 = AXIS2_PLACEMENT_3D ( 'NONE', #597, #348, #531 ) ;
#90 = ORIENTED_EDGE ( 'NONE', *, *, #877, .T. ) ;
#91 = EDGE_CURVE ( 'NONE', #346, #983, #428, .T. ) ;
#92 = DIRECTION ( 'NONE',  ( -0.000000000000000000, -0.000000000000000000, 1.000000000000000000 ) ) ;
#93 = CARTESIAN_POINT ( 'NONE',  ( -8.838834764831830171, 8.838834764831858593, 2.500000000000000000 ) ) ;
#94 = VERTEX_POINT ( 'NONE', #157 ) ;
#95 = LINE ( 'NONE', #604, #186 ) ;
#96 = EDGE_CURVE ( 'NONE', #1082, #975, #408, .T. ) ;
#97 = DIRECTION ( 'NONE',  ( 0.000000000000000000, 0.000000000000000000, 1.000000000000000000 ) ) ;
#98 = ORIENTED_EDGE ( 'NONE', *, *, #69, .F. ) ;
#99 = CARTESIAN_POINT ( 'NONE',  ( 8.838834764831888791, 8.838834764831798196, -3.500000000000000000 ) ) ;
#100 = DIRECTION ( 'NONE',  ( 1.000000000000000000, 0.000000000000000000, 0.000000000000000000 ) ) ;
#101 = EDGE_LOOP ( 'NONE', ( #395, #652 ) ) ;
#102 = ADVANCED_FACE ( 'NONE', ( #500 ), #751, .F. ) ;
#103 = CIRCLE ( 'NONE', #927, 0.5000000000000004441 ) ;
#104 = VECTOR ( 'NONE', #455, 1000.000000000000000 ) ;
#105 = CARTESIAN_POINT ( 'NONE',  ( -7.681258945454893382E-14, -11.00000000000000000, -3.500000000000000000 ) ) ;
#106 = LINE ( 'NONE', #616, #1057 ) ;
#107 = EDGE_LOOP ( 'NONE', ( #1049, #963, #299, #564 ) ) ;
#108 = CARTESIAN_POINT ( 'NONE',  ( -7.038834764831950253, -8.838834764831739577, 0.000000000000000000 ) ) ;
#109 = FACE_OUTER_BOUND ( 'NONE', #811, .T. ) ;
#110 = CC_DESIGN_SECURITY_CLASSIFICATION ( #607, ( #590 ) ) ;
#111 = DIRECTION ( 'NONE',  ( -0.000000000000000000, -0.000000000000000000, 1.000000000000000000 ) ) ;
#112 = ORIENTED_EDGE ( 'NONE', *, *, #891, .F. ) ;
#113 =( LENGTH_UNIT ( ) NAMED_UNIT ( * ) SI_UNIT ( .MILLI., .METRE. ) );
#114 = CIRCLE ( 'NONE', #519, 22.50000000000000355 ) ;
#115 = AXIS2_PLACEMENT_3D ( 'NONE', #404, #399, #310 ) ;
#116 = APPLICATION_CONTEXT ( 'configuration controlled 3d designs of mechanical parts and assemblies' ) ;
#117 = ADVANCED_FACE ( 'NONE', ( #989 ), #733, .F. ) ;
#118 = CARTESIAN_POINT ( 'NONE',  ( 8.838834764831767998, -8.838834764831920765, 0.000000000000000000 ) ) ;
#119 = EDGE_CURVE ( 'NONE', #445, #728, #137, .T. ) ;
#120 = CARTESIAN_POINT ( 'NONE',  ( 2.550237242195675158, 0.000000000000000000, -13.00000000000000000 ) ) ;
#121 = PERSON ( 'æœª', 'æœª', 'æœª', ('æœª'), ('æœª'), ('æœª') ) ;
#122 = ORIENTED_EDGE ( 'NONE', *, *, #520, .F. ) ;
#123 = DATE_AND_TIME ( #196, #642 ) ;
#124 = EDGE_LOOP ( 'NONE', ( #51, #430, #678, #409 ) ) ;
#125 = AXIS2_PLACEMENT_3D ( 'NONE', #1086, #332, #345 ) ;
#126 = CARTESIAN_POINT ( 'NONE',  ( 0.0002372421956754808400, 1.000139094214896884, -12.49999999999999822 ) ) ;
#127 = EDGE_CURVE ( 'NONE', #824, #735, #586, .T. ) ;
#128 = DIRECTION ( 'NONE',  ( 0.000000000000000000, 0.000000000000000000, 1.000000000000000000 ) ) ;
#129 = ORIENTED_EDGE ( 'NONE', *, *, #457, .F. ) ;
#130 = VERTEX_POINT ( 'NONE', #414 ) ;
#131 = CARTESIAN_POINT ( 'NONE',  ( 2.550237242195675158, 1.000139094214896662, 2.500000000000000444 ) ) ;
#132 = FACE_OUTER_BOUND ( 'NONE', #135, .T. ) ;
#133 = DIRECTION ( 'NONE',  ( 0.000000000000000000, 0.000000000000000000, 1.000000000000000000 ) ) ;
#134 = CC_DESIGN_APPROVAL ( #53, ( #607 ) ) ;
#135 = EDGE_LOOP ( 'NONE', ( #717, #665, #526, #122 ) ) ;
#136 = AXIS2_PLACEMENT_3D ( 'NONE', #237, #831, #320 ) ;
#137 = CIRCLE ( 'NONE', #62, 1.799999999999999600 ) ;
#138 = DIRECTION ( 'NONE',  ( -1.000000000000000000, 0.000000000000000000, 0.000000000000000000 ) ) ;
#139 = CARTESIAN_POINT ( 'NONE',  ( 0.000000000000000000, 0.000000000000000000, -13.00000000000000000 ) ) ;
#140 = VERTEX_POINT ( 'NONE', #327 ) ;
#141 = VERTEX_POINT ( 'NONE', #911 ) ;
#142 = CARTESIAN_POINT ( 'NONE',  ( -7.038834764831950253, -8.838834764831739577, 2.500000000000000000 ) ) ;
#143 = DIRECTION ( 'NONE',  ( 1.000000000000000000, 0.000000000000000000, 0.000000000000000000 ) ) ;
#144 = ORIENTED_EDGE ( 'NONE', *, *, #726, .F. ) ;
#145 = EDGE_LOOP ( 'NONE', ( #477, #434, #538, #591 ) ) ;
#146 = CARTESIAN_POINT ( 'NONE',  ( 0.000000000000000000, 11.00000000000000000, 0.000000000000000000 ) ) ;
#147 = DIRECTION ( 'NONE',  ( -0.000000000000000000, -0.000000000000000000, 1.000000000000000000 ) ) ;
#148 = DIRECTION ( 'NONE',  ( -0.000000000000000000, -0.000000000000000000, -1.000000000000000000 ) ) ;
#149 = ORIENTED_EDGE ( 'NONE', *, *, #13, .F. ) ;
#150 = LOCAL_TIME ( 11, 19, 41.00000000000000000, #1036 ) ;
#151 = AXIS2_PLACEMENT_3D ( 'NONE', #572, #386, #58 ) ;
#152 = ADVANCED_FACE ( 'NONE', ( #833 ), #1058, .T. ) ;
#153 = DIRECTION ( 'NONE',  ( 0.000000000000000000, 0.000000000000000000, 1.000000000000000000 ) ) ;
#154 = ADVANCED_FACE ( 'NONE', ( #837 ), #650, .F. ) ;
#155 = CARTESIAN_POINT ( 'NONE',  ( -2.549762757804324043, 1.000139094214896662, -12.49999999999999822 ) ) ;
#156 = VECTOR ( 'NONE', #148, 1000.000000000000000 ) ;
#157 = CARTESIAN_POINT ( 'NONE',  ( 22.50000000000000355, 2.755455298081545172E-15, 0.000000000000000000 ) ) ;
#158 = ORIENTED_EDGE ( 'NONE', *, *, #621, .T. ) ;
#159 = DIRECTION ( 'NONE',  ( 0.000000000000000000, 0.000000000000000000, 1.000000000000000000 ) ) ;
#160 = CARTESIAN_POINT ( 'NONE',  ( -2.549762757804324043, -0.9998609057851033377, -12.49999999999999822 ) ) ;
#161 = ADVANCED_FACE ( 'NONE', ( #924 ), #340, .F. ) ;
#162 = CARTESIAN_POINT ( 'NONE',  ( 12.79999999999999893, -3.840629472727446691E-14, -3.500000000000000000 ) ) ;
#163 = EDGE_LOOP ( 'NONE', ( #950, #996 ) ) ;
#164 = DIRECTION ( 'NONE',  ( 1.000000000000000000, 0.000000000000000000, 0.000000000000000000 ) ) ;
#165 = FACE_BOUND ( 'NONE', #967, .T. ) ;
#166 = DIRECTION ( 'NONE',  ( 0.000000000000000000, 0.000000000000000000, 1.000000000000000000 ) ) ;
#167 = ADVANCED_FACE ( 'NONE', ( #605 ), #185, .F. ) ;
#168 = EDGE_LOOP ( 'NONE', ( #234, #1069 ) ) ;
#169 = CIRCLE ( 'NONE', #881, 1.799999999999999822 ) ;
#170 = CARTESIAN_POINT ( 'NONE',  ( 1.799999999999999822, 11.00000000000000000, 0.000000000000000000 ) ) ;
#171 = AXIS2_PLACEMENT_3D ( 'NONE', #775, #266, #181 ) ;
#172 = DIRECTION ( 'NONE',  ( 0.000000000000000000, -1.000000000000000000, 0.000000000000000000 ) ) ;
#173 = ORIENTED_EDGE ( 'NONE', *, *, #272, .T. ) ;
#174 = CIRCLE ( 'NONE', #42, 1.799999999999999600 ) ;
#175 = CALENDAR_DATE ( 2026, 28, 8 ) ;
#176 = DIRECTION ( 'NONE',  ( -0.000000000000000000, -0.000000000000000000, 1.000000000000000000 ) ) ;
#177 = DIRECTION ( 'NONE',  ( 1.000000000000000000, 0.000000000000000000, 0.000000000000000000 ) ) ;
#178 = AXIS2_PLACEMENT_3D ( 'NONE', #627, #543, #377 ) ;
#179 = ORIENTED_EDGE ( 'NONE', *, *, #731, .F. ) ;
#180 = DIRECTION ( 'NONE',  ( 1.000000000000000000, 0.000000000000000000, 0.000000000000000000 ) ) ;
#181 = DIRECTION ( 'NONE',  ( 1.000000000000000000, 0.000000000000000000, 0.000000000000000000 ) ) ;
#182 = ORIENTED_EDGE ( 'NONE', *, *, #448, .T. ) ;
#183 = DIRECTION ( 'NONE',  ( 0.000000000000000000, -1.000000000000000000, 0.000000000000000000 ) ) ;
#184 = ADVANCED_FACE ( 'NONE', ( #930 ), #424, .T. ) ;
#185 = CYLINDRICAL_SURFACE ( 'NONE', #1075, 1.799999999999999600 ) ;
#186 = VECTOR ( 'NONE', #1016, 1000.000000000000000 ) ;
#187 = ORIENTED_EDGE ( 'NONE', *, *, #416, .F. ) ;
#188 = AXIS2_PLACEMENT_3D ( 'NONE', #126, #460, #138 ) ;
#189 = CARTESIAN_POINT ( 'NONE',  ( 10.63883476483176693, -8.838834764831920765, 2.500000000000000000 ) ) ;
#190 = DIRECTION ( 'NONE',  ( -1.000000000000000000, 0.000000000000000000, 0.000000000000000000 ) ) ;
#191 = EDGE_LOOP ( 'NONE', ( #328, #646, #215, #549 ) ) ;
#192 = COORDINATED_UNIVERSAL_TIME_OFFSET ( 8, 0, .AHEAD. ) ;
#193 = FACE_BOUND ( 'NONE', #12, .T. ) ;
#194 = CYLINDRICAL_SURFACE ( 'NONE', #444, 1.799999999999999600 ) ;
#195 = ORIENTED_EDGE ( 'NONE', *, *, #636, .F. ) ;
#196 = CALENDAR_DATE ( 2026, 28, 8 ) ;
#197 = EDGE_CURVE ( 'NONE', #544, #217, #504, .T. ) ;
#198 = CARTESIAN_POINT ( 'NONE',  ( 11.00000000000000000, -3.840629472727446691E-14, 0.000000000000000000 ) ) ;
#199 = CARTESIAN_POINT ( 'NONE',  ( 7.038834764831890745, 8.838834764831798196, -3.500000000000000000 ) ) ;
#200 = CIRCLE ( 'NONE', #697, 1.799999999999999600 ) ;
#201 = EDGE_LOOP ( 'NONE', ( #293, #158, #469, #187 ) ) ;
#202 = AXIS2_PLACEMENT_3D ( 'NONE', #764, #854, #1089 ) ;
#203 = ADVANCED_FACE ( 'NONE', ( #419 ), #80, .T. ) ;
#204 = DIRECTION ( 'NONE',  ( 0.000000000000000000, 0.000000000000000000, 1.000000000000000000 ) ) ;
#205 = ORIENTED_EDGE ( 'NONE', *, *, #846, .F. ) ;
#206 = ORIENTED_EDGE ( 'NONE', *, *, #844, .T. ) ;
#207 = EDGE_CURVE ( 'NONE', #248, #925, #21, .T. ) ;
#208 = DIRECTION ( 'NONE',  ( 1.000000000000000000, 0.000000000000000000, 0.000000000000000000 ) ) ;
#209 = CARTESIAN_POINT ( 'NONE',  ( -1.799999999999999822, 11.00000000000000000, 0.000000000000000000 ) ) ;
#210 = EDGE_LOOP ( 'NONE', ( #1059, #1038 ) ) ;
#211 = ORIENTED_EDGE ( 'NONE', *, *, #331, .T. ) ;
#212 = FACE_BOUND ( 'NONE', #221, .T. ) ;
#213 = CARTESIAN_POINT ( 'NONE',  ( 0.000000000000000000, 0.000000000000000000, 2.500000000000000000 ) ) ;
#214 = ADVANCED_FACE ( 'NONE', ( #847 ), #194, .F. ) ;
#215 = ORIENTED_EDGE ( 'NONE', *, *, #540, .T. ) ;
#216 = VECTOR ( 'NONE', #969, 1000.000000000000000 ) ;
#217 = VERTEX_POINT ( 'NONE', #271 ) ;
#218 = VECTOR ( 'NONE', #63, 1000.000000000000000 ) ;
#219 = FACE_BOUND ( 'NONE', #566, .T. ) ;
#220 = LINE ( 'NONE', #956, #889 ) ;
#221 = EDGE_LOOP ( 'NONE', ( #289, #56 ) ) ;
#222 = ORIENTED_EDGE ( 'NONE', *, *, #30, .F. ) ;
#223 = DIRECTION ( 'NONE',  ( 1.000000000000000000, 0.000000000000000000, -0.000000000000000000 ) ) ;
#224 = VECTOR ( 'NONE', #710, 1000.000000000000000 ) ;
#225 = LINE ( 'NONE', #574, #319 ) ;
#226 = DIRECTION ( 'NONE',  ( -0.000000000000000000, -0.000000000000000000, -1.000000000000000000 ) ) ;
#227 = EDGE_CURVE ( 'NONE', #459, #248, #106, .T. ) ;
#228 = ORIENTED_EDGE ( 'NONE', *, *, #341, .F. ) ;
#229 = EDGE_CURVE ( 'NONE', #983, #346, #785, .T. ) ;
#230 = CARTESIAN_POINT ( 'NONE',  ( -7.681258945454893382E-14, -11.00000000000000000, 2.500000000000000000 ) ) ;
#231 = ORIENTED_EDGE ( 'NONE', *, *, #623, .F. ) ;
#232 = DIRECTION ( 'NONE',  ( -0.000000000000000000, -0.000000000000000000, 1.000000000000000000 ) ) ;
#233 = DIRECTION ( 'NONE',  ( -0.000000000000000000, -0.000000000000000000, 1.000000000000000000 ) ) ;
#234 = ORIENTED_EDGE ( 'NONE', *, *, #974, .F. ) ;
#235 = DIRECTION ( 'NONE',  ( -0.000000000000000000, -0.000000000000000000, 1.000000000000000000 ) ) ;
#236 = EDGE_CURVE ( 'NONE', #550, #471, #770, .T. ) ;
#237 = CARTESIAN_POINT ( 'NONE',  ( 0.0002372421956754808400, 1.000139094214896884, 2.500000000000000444 ) ) ;
#238 = FACE_OUTER_BOUND ( 'NONE', #941, .T. ) ;
#239 = ORIENTED_EDGE ( 'NONE', *, *, #127, .F. ) ;
#240 = CARTESIAN_POINT ( 'NONE',  ( -8.838834764831830171, 8.838834764831858593, 0.000000000000000000 ) ) ;
#241 = DIRECTION ( 'NONE',  ( -1.000000000000000000, 0.000000000000000000, 0.000000000000000000 ) ) ;
#242 = CIRCLE ( 'NONE', #125, 1.799999999999999600 ) ;
#243 = CARTESIAN_POINT ( 'NONE',  ( -8.838834764831949187, -8.838834764831739577, -3.500000000000000000 ) ) ;
#244 = EDGE_LOOP ( 'NONE', ( #228, #149, #635, #371 ) ) ;
#245 = CARTESIAN_POINT ( 'NONE',  ( -10.63883476483182910, 8.838834764831858593, 2.500000000000000000 ) ) ;
#246 = DIRECTION ( 'NONE',  ( 0.000000000000000000, 0.000000000000000000, 1.000000000000000000 ) ) ;
#247 = FACE_BOUND ( 'NONE', #630, .T. ) ;
#248 = VERTEX_POINT ( 'NONE', #762 ) ;
#249 = PERSON_AND_ORGANIZATION_ROLE ( 'design_owner' ) ;
#250 = AXIS2_PLACEMENT_3D ( 'NONE', #52, #313, #223 ) ;
#251 = DIRECTION ( 'NONE',  ( -0.000000000000000000, -0.000000000000000000, 1.000000000000000000 ) ) ;
#252 = AXIS2_PLACEMENT_3D ( 'NONE', #580, #905, #407 ) ;
#253 = DIRECTION ( 'NONE',  ( -0.000000000000000000, -0.000000000000000000, 1.000000000000000000 ) ) ;
#254 = EDGE_CURVE ( 'NONE', #1043, #140, #493, .T. ) ;
#255 = ORIENTED_EDGE ( 'NONE', *, *, #366, .T. ) ;
#256 = PERSON_AND_ORGANIZATION ( #121, #832 ) ;
#257 = DIRECTION ( 'NONE',  ( 0.000000000000000000, 1.000000000000000000, 0.000000000000000000 ) ) ;
#258 = DIRECTION ( 'NONE',  ( -0.000000000000000000, 1.000000000000000000, 0.000000000000000000 ) ) ;
#259 = CIRCLE ( 'NONE', #402, 1.799999999999999600 ) ;
#260 = ORIENTED_EDGE ( 'NONE', *, *, #542, .T. ) ;
#261 = EDGE_CURVE ( 'NONE', #550, #367, #600, .T. ) ;
#262 = LINE ( 'NONE', #1019, #398 ) ;
#263 = DIRECTION ( 'NONE',  ( 1.000000000000000000, 0.000000000000000000, 0.000000000000000000 ) ) ;
#264 = ORIENTED_EDGE ( 'NONE', *, *, #816, .T. ) ;
#265 = DIRECTION ( 'NONE',  ( 0.000000000000000000, 0.000000000000000000, 1.000000000000000000 ) ) ;
#266 = DIRECTION ( 'NONE',  ( -0.000000000000000000, -0.000000000000000000, 1.000000000000000000 ) ) ;
#267 = CIRCLE ( 'NONE', #300, 1.799999999999999822 ) ;
#268 = ORIENTED_EDGE ( 'NONE', *, *, #197, .T. ) ;
#269 = AXIS2_PLACEMENT_3D ( 'NONE', #709, #790, #1028 ) ;
#270 = CARTESIAN_POINT ( 'NONE',  ( 1.799999999999999822, 11.00000000000000000, -3.500000000000000000 ) ) ;
#271 = CARTESIAN_POINT ( 'NONE',  ( 9.199999999999999289, -3.818585830342793859E-14, 2.500000000000000000 ) ) ;
#272 = EDGE_CURVE ( 'NONE', #1087, #451, #242, .T. ) ;
#273 = ORIENTED_EDGE ( 'NONE', *, *, #283, .F. ) ;
#274 = COORDINATED_UNIVERSAL_TIME_OFFSET ( 8, 0, .AHEAD. ) ;
#275 = LINE ( 'NONE', #270, #104 ) ;
#276 = DIRECTION ( 'NONE',  ( -0.000000000000000000, -0.000000000000000000, 1.000000000000000000 ) ) ;
#277 = CARTESIAN_POINT ( 'NONE',  ( -2.549762757804324043, -0.9998609057851033377, 2.500000000000000444 ) ) ;
#278 = COORDINATED_UNIVERSAL_TIME_OFFSET ( 8, 0, .AHEAD. ) ;
#279 = EDGE_CURVE ( 'NONE', #140, #752, #680, .T. ) ;
#280 = CYLINDRICAL_SURFACE ( 'NONE', #523, 1.799999999999999600 ) ;
#281 = DIRECTION ( 'NONE',  ( 0.000000000000000000, 0.000000000000000000, -1.000000000000000000 ) ) ;
#282 = ORIENTED_EDGE ( 'NONE', *, *, #960, .F. ) ;
#283 = EDGE_CURVE ( 'NONE', #451, #1087, #722, .T. ) ;
#284 = CLOSED_SHELL ( 'NONE', ( #184, #705, #510, #784, #102, #167, #912, #154, #161, #659, #527, #603, #45, #932, #350, #423, #305, #755, #1009, #214, #676, #387, #1070, #117, #707, #1006, #152, #203, #385, #674, #1034 ) ) ;
#285 = ORIENTED_EDGE ( 'NONE', *, *, #563, .F. ) ;
#286 = DIRECTION ( 'NONE',  ( 1.000000000000000000, 0.000000000000000000, 0.000000000000000000 ) ) ;
#287 = DIRECTION ( 'NONE',  ( 1.000000000000000000, 0.000000000000000000, 0.000000000000000000 ) ) ;
#288 = ORIENTED_EDGE ( 'NONE', *, *, #579, .F. ) ;
#289 = ORIENTED_EDGE ( 'NONE', *, *, #693, .T. ) ;
#290 = CARTESIAN_POINT ( 'NONE',  ( 12.79999999999999893, -3.840629472727446691E-14, 0.000000000000000000 ) ) ;
#291 = EDGE_CURVE ( 'NONE', #633, #415, #997, .T. ) ;
#292 = DIRECTION ( 'NONE',  ( -0.000000000000000000, -1.000000000000000000, -0.000000000000000000 ) ) ;
#293 = ORIENTED_EDGE ( 'NONE', *, *, #741, .F. ) ;
#294 = ORIENTED_EDGE ( 'NONE', *, *, #91, .F. ) ;
#295 = DIRECTION ( 'NONE',  ( 1.000000000000000000, 0.000000000000000000, 0.000000000000000000 ) ) ;
#296 = DIRECTION ( 'NONE',  ( -0.000000000000000000, -0.000000000000000000, 1.000000000000000000 ) ) ;
#297 = CARTESIAN_POINT ( 'NONE',  ( -8.838834764831949187, -8.838834764831739577, 0.000000000000000000 ) ) ;
#298 = AXIS2_PLACEMENT_3D ( 'NONE', #748, #153, #578 ) ;
#299 = ORIENTED_EDGE ( 'NONE', *, *, #32, .T. ) ;
#300 = AXIS2_PLACEMENT_3D ( 'NONE', #396, #78, #738 ) ;
#301 = VECTOR ( 'NONE', #226, 1000.000000000000000 ) ;
#302 = CYLINDRICAL_SURFACE ( 'NONE', #1021, 5.500000000000000000 ) ;
#303 = CARTESIAN_POINT ( 'NONE',  ( 0.000000000000000000, 0.000000000000000000, -13.00000000000000000 ) ) ;
#304 = PLANE ( 'NONE',  #864 ) ;
#305 = ADVANCED_FACE ( 'NONE', ( #934 ), #1029, .F. ) ;
#306 = ORIENTED_EDGE ( 'NONE', *, *, #893, .T. ) ;
#307 = CARTESIAN_POINT ( 'NONE',  ( 0.000000000000000000, 0.000000000000000000, 0.000000000000000000 ) ) ;
#308 = TOROIDAL_SURFACE ( 'NONE', #28, 3.049999999999999822, 0.5000000000000000000 ) ;
#309 = LINE ( 'NONE', #475, #1015 ) ;
#310 = DIRECTION ( 'NONE',  ( 1.000000000000000000, 0.000000000000000000, 0.000000000000000000 ) ) ;
#311 = CC_DESIGN_PERSON_AND_ORGANIZATION_ASSIGNMENT ( #703, #1026, ( #607 ) ) ;
#312 = ORIENTED_EDGE ( 'NONE', *, *, #30, .T. ) ;
#313 = DIRECTION ( 'NONE',  ( 0.000000000000000000, 0.000000000000000000, 1.000000000000000000 ) ) ;
#314 = DIRECTION ( 'NONE',  ( -0.000000000000000000, -0.000000000000000000, -1.000000000000000000 ) ) ;
#315 = DIRECTION ( 'NONE',  ( -0.000000000000000000, -0.000000000000000000, 1.000000000000000000 ) ) ;
#316 = ORIENTED_EDGE ( 'NONE', *, *, #291, .F. ) ;
#317 = EDGE_CURVE ( 'NONE', #437, #735, #220, .T. ) ;
#318 = FACE_BOUND ( 'NONE', #8, .T. ) ;
#319 = VECTOR ( 'NONE', #1061, 1000.000000000000000 ) ;
#320 = DIRECTION ( 'NONE',  ( -1.000000000000000000, 0.000000000000000000, 0.000000000000000000 ) ) ;
#321 = LINE ( 'NONE', #495, #301 ) ;
#322 = ORIENTED_EDGE ( 'NONE', *, *, #540, .F. ) ;
#323 = PERSON_AND_ORGANIZATION ( #121, #832 ) ;
#324 = ORIENTED_EDGE ( 'NONE', *, *, #623, .T. ) ;
#325 = DIRECTION ( 'NONE',  ( 0.000000000000000000, 0.000000000000000000, -1.000000000000000000 ) ) ;
#326 = PRODUCT ( '\X2\8f9351657aef\X0\', '\X2\8f9351657aef\X0\', '', ( #858 ) ) ;
#327 = CARTESIAN_POINT ( 'NONE',  ( 10.63883476483176693, -8.838834764831920765, 0.000000000000000000 ) ) ;
#328 = ORIENTED_EDGE ( 'NONE', *, *, #472, .F. ) ;
#329 = APPROVAL_ROLE ( '' ) ;
#330 = DIRECTION ( 'NONE',  ( -0.000000000000000000, -1.000000000000000000, -0.000000000000000000 ) ) ;
#331 = EDGE_CURVE ( 'NONE', #655, #925, #872, .T. ) ;
#332 = DIRECTION ( 'NONE',  ( 0.000000000000000000, 0.000000000000000000, 1.000000000000000000 ) ) ;
#333 = VERTEX_POINT ( 'NONE', #1052 ) ;
#334 = APPROVAL_PERSON_ORGANIZATION ( #1083, #479, #329 ) ;
#335 = DIRECTION ( 'NONE',  ( 0.000000000000000000, 0.000000000000000000, 1.000000000000000000 ) ) ;
#336 = VECTOR ( 'NONE', #976, 1000.000000000000000 ) ;
#337 = CARTESIAN_POINT ( 'NONE',  ( -3.049762757804324043, 0.000000000000000000, -12.49999999999999822 ) ) ;
#338 = AXIS2_PLACEMENT_3D ( 'NONE', #337, #257, #761 ) ;
#339 = VECTOR ( 'NONE', #589, 1000.000000000000000 ) ;
#340 = CYLINDRICAL_SURFACE ( 'NONE', #1023, 1.799999999999999822 ) ;
#341 = EDGE_CURVE ( 'NONE', #776, #141, #805, .T. ) ;
#342 = ORIENTED_EDGE ( 'NONE', *, *, #91, .T. ) ;
#343 = EDGE_CURVE ( 'NONE', #874, #752, #825, .T. ) ;
#344 = DIRECTION ( 'NONE',  ( 1.000000000000000000, 0.000000000000000000, 0.000000000000000000 ) ) ;
#345 = DIRECTION ( 'NONE',  ( 1.000000000000000000, 0.000000000000000000, 0.000000000000000000 ) ) ;
#346 = VERTEX_POINT ( 'NONE', #48 ) ;
#347 = DIRECTION ( 'NONE',  ( 0.000000000000000000, 0.000000000000000000, 1.000000000000000000 ) ) ;
#348 = DIRECTION ( 'NONE',  ( 0.000000000000000000, 0.000000000000000000, 1.000000000000000000 ) ) ;
#349 = ORIENTED_EDGE ( 'NONE', *, *, #291, .T. ) ;
#350 = ADVANCED_FACE ( 'NONE', ( #132 ), #720, .F. ) ;
#351 = CC_DESIGN_APPROVAL ( #479, ( #22 ) ) ;
#352 = DIRECTION ( 'NONE',  ( 1.000000000000000000, 0.000000000000000000, 0.000000000000000000 ) ) ;
#353 = AXIS2_PLACEMENT_3D ( 'NONE', #992, #362, #503 ) ;
#354 = CARTESIAN_POINT ( 'NONE',  ( -10.99999999999999822, 1.152188841818234133E-13, -3.500000000000000000 ) ) ;
#355 = VECTOR ( 'NONE', #232, 1000.000000000000000 ) ;
#356 = AXIS2_PLACEMENT_3D ( 'NONE', #297, #133, #378 ) ;
#357 = ORIENTED_EDGE ( 'NONE', *, *, #457, .T. ) ;
#358 =( NAMED_UNIT ( * ) PLANE_ANGLE_UNIT ( ) SI_UNIT ( $, .RADIAN. ) );
#359 = CARTESIAN_POINT ( 'NONE',  ( 0.000000000000000000, 11.00000000000000000, 2.500000000000000000 ) ) ;
#360 = CARTESIAN_POINT ( 'NONE',  ( -12.79999999999999716, 1.154393206056699417E-13, 0.000000000000000000 ) ) ;
#361 = ORIENTED_EDGE ( 'NONE', *, *, #555, .F. ) ;
#362 = DIRECTION ( 'NONE',  ( -0.000000000000000000, -0.000000000000000000, 1.000000000000000000 ) ) ;
#363 = AXIS2_PLACEMENT_3D ( 'NONE', #120, #41, #1047 ) ;
#364 = DIRECTION ( 'NONE',  ( 0.000000000000000000, 0.000000000000000000, 1.000000000000000000 ) ) ;
#365 = LINE ( 'NONE', #961, #224 ) ;
#366 = EDGE_CURVE ( 'NONE', #658, #962, #365, .T. ) ;
#367 = VERTEX_POINT ( 'NONE', #876 ) ;
#368 = ORIENTED_EDGE ( 'NONE', *, *, #331, .F. ) ;
#369 = DIRECTION ( 'NONE',  ( 0.000000000000000000, 0.000000000000000000, -1.000000000000000000 ) ) ;
#370 = FACE_OUTER_BOUND ( 'NONE', #462, .T. ) ;
#371 = ORIENTED_EDGE ( 'NONE', *, *, #579, .T. ) ;
#372 = APPROVAL_STATUS ( 'not_yet_approved' ) ;
#373 = EDGE_CURVE ( 'NONE', #1022, #999, #1046, .T. ) ;
#374 = ORIENTED_EDGE ( 'NONE', *, *, #343, .F. ) ;
#375 = DIRECTION ( 'NONE',  ( 0.000000000000000000, 0.000000000000000000, 1.000000000000000000 ) ) ;
#376 = AXIS2_PLACEMENT_3D ( 'NONE', #198, #533, #862 ) ;
#377 = DIRECTION ( 'NONE',  ( 1.000000000000000000, 0.000000000000000000, 0.000000000000000000 ) ) ;
#378 = DIRECTION ( 'NONE',  ( 1.000000000000000000, 0.000000000000000000, 0.000000000000000000 ) ) ;
#379 = ORIENTED_EDGE ( 'NONE', *, *, #993, .F. ) ;
#380 = CIRCLE ( 'NONE', #839, 5.500000000000000000 ) ;
#381 = CARTESIAN_POINT ( 'NONE',  ( 0.0002372421956754770453, -0.9998609057851033377, -12.49999999999999822 ) ) ;
#382 = CARTESIAN_POINT ( 'NONE',  ( -1.800000000000076428, -11.00000000000000000, 2.500000000000000000 ) ) ;
#383 = VERTEX_POINT ( 'NONE', #382 ) ;
#384 = EDGE_LOOP ( 'NONE', ( #869, #935, #801, #312 ) ) ;
#385 = ADVANCED_FACE ( 'NONE', ( #1033 ), #308, .T. ) ;
#386 = DIRECTION ( 'NONE',  ( -0.000000000000000000, -0.000000000000000000, 1.000000000000000000 ) ) ;
#387 = ADVANCED_FACE ( 'NONE', ( #370 ), #714, .F. ) ;
#388 = DIRECTION ( 'NONE',  ( 1.000000000000000000, 0.000000000000000000, 0.000000000000000000 ) ) ;
#389 = ORIENTED_EDGE ( 'NONE', *, *, #939, .F. ) ;
#390 = PERSON_AND_ORGANIZATION ( #121, #832 ) ;
#391 = VERTEX_POINT ( 'NONE', #620 ) ;
#392 = CIRCLE ( 'NONE', #1008, 0.5000000000000004441 ) ;
#393 = CIRCLE ( 'NONE', #902, 1.799999999999999600 ) ;
#394 = CARTESIAN_POINT ( 'NONE',  ( 0.000000000000000000, 11.00000000000000000, -3.500000000000000000 ) ) ;
#395 = ORIENTED_EDGE ( 'NONE', *, *, #197, .F. ) ;
#396 = CARTESIAN_POINT ( 'NONE',  ( 0.000000000000000000, 11.00000000000000000, 0.000000000000000000 ) ) ;
#397 = EDGE_CURVE ( 'NONE', #957, #74, #380, .T. ) ;
#398 = VECTOR ( 'NONE', #330, 1000.000000000000000 ) ;
#399 = DIRECTION ( 'NONE',  ( 0.000000000000000000, 0.000000000000000000, 1.000000000000000000 ) ) ;
#400 = ORIENTED_EDGE ( 'NONE', *, *, #119, .F. ) ;
#401 = DIRECTION ( 'NONE',  ( 0.000000000000000000, 0.000000000000000000, 1.000000000000000000 ) ) ;
#402 = AXIS2_PLACEMENT_3D ( 'NONE', #791, #649, #143 ) ;
#403 = CARTESIAN_POINT ( 'NONE',  ( 10.63883476483188772, 8.838834764831798196, 0.000000000000000000 ) ) ;
#404 = CARTESIAN_POINT ( 'NONE',  ( -7.681258945454893382E-14, -11.00000000000000000, 0.000000000000000000 ) ) ;
#405 = ORIENTED_EDGE ( 'NONE', *, *, #227, .T. ) ;
#406 = CARTESIAN_POINT ( 'NONE',  ( -22.50000000000000355, 0.000000000000000000, 2.500000000000000000 ) ) ;
#407 = DIRECTION ( 'NONE',  ( -1.000000000000000000, 0.000000000000000000, 0.000000000000000000 ) ) ;
#408 = LINE ( 'NONE', #1001, #1040 ) ;
#409 = ORIENTED_EDGE ( 'NONE', *, *, #772, .F. ) ;
#410 = EDGE_CURVE ( 'NONE', #437, #658, #103, .T. ) ;
#411 = DIRECTION ( 'NONE',  ( -0.000000000000000000, -0.000000000000000000, -1.000000000000000000 ) ) ;
#412 = VERTEX_POINT ( 'NONE', #209 ) ;
#413 = CARTESIAN_POINT ( 'NONE',  ( 0.000000000000000000, 0.000000000000000000, 0.000000000000000000 ) ) ;
#414 = CARTESIAN_POINT ( 'NONE',  ( -3.049762757804324043, 1.000139094214896662, -13.00000000000000000 ) ) ;
#415 = VERTEX_POINT ( 'NONE', #360 ) ;
#416 = EDGE_CURVE ( 'NONE', #633, #4, #442, .T. ) ;
#417 = FACE_OUTER_BOUND ( 'NONE', #712, .T. ) ;
#418 = VECTOR ( 'NONE', #296, 1000.000000000000000 ) ;
#419 = FACE_OUTER_BOUND ( 'NONE', #124, .T. ) ;
#420 = ORIENTED_EDGE ( 'NONE', *, *, #960, .T. ) ;
#421 = DIRECTION ( 'NONE',  ( 0.000000000000000000, 0.000000000000000000, 1.000000000000000000 ) ) ;
#422 = CYLINDRICAL_SURFACE ( 'NONE', #202, 22.50000000000000355 ) ;
#423 = ADVANCED_FACE ( 'NONE', ( #461 ), #644, .F. ) ;
#424 = CYLINDRICAL_SURFACE ( 'NONE', #610, 5.500000000000000000 ) ;
#425 = ORIENTED_EDGE ( 'NONE', *, *, #928, .T. ) ;
#426 = AXIS2_PLACEMENT_3D ( 'NONE', #760, #335, #946 ) ;
#427 = FACE_OUTER_BOUND ( 'NONE', #673, .T. ) ;
#428 = CIRCLE ( 'NONE', #115, 1.799999999999999822 ) ;
#429 = DIRECTION ( 'NONE',  ( -0.000000000000000000, -0.000000000000000000, 1.000000000000000000 ) ) ;
#430 = ORIENTED_EDGE ( 'NONE', *, *, #571, .F. ) ;
#431 = LINE ( 'NONE', #845, #648 ) ;
#432 = CARTESIAN_POINT ( 'NONE',  ( 0.000000000000000000, 11.00000000000000000, -3.500000000000000000 ) ) ;
#433 = EDGE_CURVE ( 'NONE', #74, #957, #1062, .T. ) ;
#434 = ORIENTED_EDGE ( 'NONE', *, *, #813, .F. ) ;
#435 = CARTESIAN_POINT ( 'NONE',  ( 11.00000000000000000, -3.840629472727446691E-14, 2.500000000000000000 ) ) ;
#436 = CARTESIAN_POINT ( 'NONE',  ( 8.838834764831767998, -8.838834764831920765, 0.000000000000000000 ) ) ;
#437 = VERTEX_POINT ( 'NONE', #786 ) ;
#438 = PERSON_AND_ORGANIZATION ( #121, #832 ) ;
#439 = CC_DESIGN_PERSON_AND_ORGANIZATION_ASSIGNMENT ( #256, #614, ( #590 ) ) ;
#440 = CARTESIAN_POINT ( 'NONE',  ( 9.199999999999999289, -3.818585830342793859E-14, 0.000000000000000000 ) ) ;
#441 = CIRCLE ( 'NONE', #968, 1.799999999999999600 ) ;
#442 = LINE ( 'NONE', #561, #418 ) ;
#443 = CIRCLE ( 'NONE', #595, 1.799999999999999600 ) ;
#444 = AXIS2_PLACEMENT_3D ( 'NONE', #354, #513, #842 ) ;
#445 = VERTEX_POINT ( 'NONE', #24 ) ;
#446 =( NAMED_UNIT ( * ) SI_UNIT ( $, .STERADIAN. ) SOLID_ANGLE_UNIT ( ) );
#447 = CIRCLE ( 'NONE', #188, 2.549999999999999822 ) ;
#448 = EDGE_CURVE ( 'NONE', #4, #391, #259, .T. ) ;
#449 = DIRECTION ( 'NONE',  ( 1.000000000000000000, 0.000000000000000000, 0.000000000000000000 ) ) ;
#450 = DIRECTION ( 'NONE',  ( 0.000000000000000000, 0.000000000000000000, -1.000000000000000000 ) ) ;
#451 = VERTEX_POINT ( 'NONE', #1056 ) ;
#452 = APPROVAL_ROLE ( '' ) ;
#453 = AXIS2_PLACEMENT_3D ( 'NONE', #691, #1017, #263 ) ;
#454 = ORIENTED_EDGE ( 'NONE', *, *, #366, .F. ) ;
#455 = DIRECTION ( 'NONE',  ( -0.000000000000000000, -0.000000000000000000, 1.000000000000000000 ) ) ;
#456 = CARTESIAN_POINT ( 'NONE',  ( 0.0002372421956754770453, -0.9998609057851033377, -13.00000000000000000 ) ) ;
#457 = EDGE_CURVE ( 'NONE', #412, #907, #309, .T. ) ;
#458 = ORIENTED_EDGE ( 'NONE', *, *, #974, .T. ) ;
#459 = VERTEX_POINT ( 'NONE', #403 ) ;
#460 = DIRECTION ( 'NONE',  ( 0.000000000000000000, 0.000000000000000000, -1.000000000000000000 ) ) ;
#461 = FACE_OUTER_BOUND ( 'NONE', #587, .T. ) ;
#462 = EDGE_LOOP ( 'NONE', ( #861, #821, #807, #268 ) ) ;
#463 = EDGE_CURVE ( 'NONE', #848, #217, #827, .T. ) ;
#464 = AXIS2_PLACEMENT_3D ( 'NONE', #521, #701, #766 ) ;
#465 = ORIENTED_EDGE ( 'NONE', *, *, #32, .F. ) ;
#466 = FACE_BOUND ( 'NONE', #671, .T. ) ;
#467 = CIRCLE ( 'NONE', #507, 1.799999999999999600 ) ;
#468 = DIRECTION ( 'NONE',  ( 0.000000000000000000, 0.000000000000000000, -1.000000000000000000 ) ) ;
#469 = ORIENTED_EDGE ( 'NONE', *, *, #739, .T. ) ;
#470 = EDGE_CURVE ( 'NONE', #724, #412, #267, .T. ) ;
#471 = VERTEX_POINT ( 'NONE', #817 ) ;
#472 = EDGE_CURVE ( 'NONE', #445, #1087, #225, .T. ) ;
#473 = CARTESIAN_POINT ( 'NONE',  ( 0.000000000000000000, 0.000000000000000000, 0.000000000000000000 ) ) ;
#474 = VECTOR ( 'NONE', #943, 1000.000000000000000 ) ;
#475 = CARTESIAN_POINT ( 'NONE',  ( -1.799999999999999822, 11.00000000000000000, -3.500000000000000000 ) ) ;
#476 = DIRECTION ( 'NONE',  ( 0.000000000000000000, 1.000000000000000000, 0.000000000000000000 ) ) ;
#477 = ORIENTED_EDGE ( 'NONE', *, *, #1050, .F. ) ;
#478 = DIRECTION ( 'NONE',  ( 0.000000000000000000, 0.000000000000000000, 1.000000000000000000 ) ) ;
#479 = APPROVAL ( #1010, 'æœª' ) ;
#480 = VERTEX_POINT ( 'NONE', #155 ) ;
#481 = DIRECTION ( 'NONE',  ( 0.000000000000000000, 0.000000000000000000, 1.000000000000000000 ) ) ;
#482 = PRODUCT_DEFINITION_SHAPE ( 'NONE', 'NONE',  #22 ) ;
#483 = FACE_BOUND ( 'NONE', #101, .T. ) ;
#484 = AXIS2_PLACEMENT_3D ( 'NONE', #909, #820, #583 ) ;
#485 = ORIENTED_EDGE ( 'NONE', *, *, #741, .T. ) ;
#486 = AXIS2_PLACEMENT_3D ( 'NONE', #105, #176, #1024 ) ;
#487 = FACE_BOUND ( 'NONE', #501, .T. ) ;
#488 = ORIENTED_EDGE ( 'NONE', *, *, #1085, .T. ) ;
#489 = CARTESIAN_POINT ( 'NONE',  ( 8.838834764831888791, 8.838834764831798196, -3.500000000000000000 ) ) ;
#490 = DIRECTION ( 'NONE',  ( 1.000000000000000000, 0.000000000000000000, 0.000000000000000000 ) ) ;
#491 = EDGE_LOOP ( 'NONE', ( #958, #420 ) ) ;
#492 = FACE_BOUND ( 'NONE', #737, .T. ) ;
#493 = CIRCLE ( 'NONE', #512, 1.799999999999999600 ) ;
#494 = DIRECTION ( 'NONE',  ( -1.000000000000000000, 0.000000000000000000, -0.000000000000000000 ) ) ;
#495 = CARTESIAN_POINT ( 'NONE',  ( -5.500000000000000000, 0.000000000000000000, 0.000000000000000000 ) ) ;
#496 = EDGE_CURVE ( 'NONE', #606, #74, #810, .T. ) ;
#497 = ORIENTED_EDGE ( 'NONE', *, *, #928, .F. ) ;
#498 = CARTESIAN_POINT ( 'NONE',  ( -2.549762757804324043, 1.000139094214896662, -13.00000000000000000 ) ) ;
#499 = DIRECTION ( 'NONE',  ( -0.000000000000000000, -0.000000000000000000, 1.000000000000000000 ) ) ;
#500 = FACE_OUTER_BOUND ( 'NONE', #617, .T. ) ;
#501 = EDGE_LOOP ( 'NONE', ( #838, #112 ) ) ;
#502 = CIRCLE ( 'NONE', #815, 1.799999999999999600 ) ;
#503 = DIRECTION ( 'NONE',  ( 1.000000000000000000, 0.000000000000000000, 0.000000000000000000 ) ) ;
#504 = CIRCLE ( 'NONE', #464, 1.799999999999999600 ) ;
#505 = CARTESIAN_POINT ( 'NONE',  ( 8.838834764831888791, 8.838834764831798196, 0.000000000000000000 ) ) ;
#506 = DIRECTION ( 'NONE',  ( 0.000000000000000000, 0.000000000000000000, -1.000000000000000000 ) ) ;
#507 = AXIS2_PLACEMENT_3D ( 'NONE', #773, #265, #608 ) ;
#508 = ORIENTED_EDGE ( 'NONE', *, *, #472, .T. ) ;
#509 = DATE_TIME_ROLE ( 'creation_date' ) ;
#510 = ADVANCED_FACE ( 'NONE', ( #749 ), #900, .F. ) ;
#511 = CARTESIAN_POINT ( 'NONE',  ( -7.038834764831830348, 8.838834764831858593, 0.000000000000000000 ) ) ;
#512 = AXIS2_PLACEMENT_3D ( 'NONE', #436, #97, #944 ) ;
#513 = DIRECTION ( 'NONE',  ( -0.000000000000000000, -0.000000000000000000, 1.000000000000000000 ) ) ;
#514 = EDGE_LOOP ( 'NONE', ( #288, #918 ) ) ;
#515 = DIRECTION ( 'NONE',  ( 1.000000000000000000, 0.000000000000000000, 0.000000000000000000 ) ) ;
#516 = DIRECTION ( 'NONE',  ( 0.000000000000000000, 0.000000000000000000, -1.000000000000000000 ) ) ;
#517 = ORIENTED_EDGE ( 'NONE', *, *, #993, .T. ) ;
#518 = CARTESIAN_POINT ( 'NONE',  ( -8.838834764831830171, 8.838834764831858593, -3.500000000000000000 ) ) ;
#519 = AXIS2_PLACEMENT_3D ( 'NONE', #67, #481, #732 ) ;
#520 = EDGE_CURVE ( 'NONE', #735, #471, #970, .T. ) ;
#521 = CARTESIAN_POINT ( 'NONE',  ( 11.00000000000000000, -3.840629472727446691E-14, 2.500000000000000000 ) ) ;
#522 = ORIENTED_EDGE ( 'NONE', *, *, #555, .T. ) ;
#523 = AXIS2_PLACEMENT_3D ( 'NONE', #859, #948, #286 ) ;
#524 = FACE_OUTER_BOUND ( 'NONE', #819, .T. ) ;
#525 = DIRECTION ( 'NONE',  ( -0.000000000000000000, -0.000000000000000000, -1.000000000000000000 ) ) ;
#526 = ORIENTED_EDGE ( 'NONE', *, *, #236, .T. ) ;
#527 = ADVANCED_FACE ( 'NONE', ( #165, #896 ), #822, .T. ) ;
#528 = APPROVAL_DATE_TIME ( #27, #479 ) ;
#529 = CARTESIAN_POINT ( 'NONE',  ( 3.050237242195675158, 1.000139094214896662, -12.49999999999999822 ) ) ;
#530 = APPLICATION_CONTEXT ( 'configuration controlled 3d designs of mechanical parts and assemblies' ) ;
#531 = DIRECTION ( 'NONE',  ( 1.000000000000000000, 0.000000000000000000, 0.000000000000000000 ) ) ;
#532 = ORIENTED_EDGE ( 'NONE', *, *, #341, .T. ) ;
#533 = DIRECTION ( 'NONE',  ( 0.000000000000000000, 0.000000000000000000, 1.000000000000000000 ) ) ;
#534 = CIRCLE ( 'NONE', #484, 1.799999999999999600 ) ;
#535 = DIRECTION ( 'NONE',  ( 0.000000000000000000, 0.000000000000000000, -1.000000000000000000 ) ) ;
#536 = CIRCLE ( 'NONE', #79, 1.799999999999999600 ) ;
#537 = AXIS2_PLACEMENT_3D ( 'NONE', #1076, #233, #490 ) ;
#538 = ORIENTED_EDGE ( 'NONE', *, *, #279, .T. ) ;
#539 = DATE_AND_TIME ( #683, #75 ) ;
#540 = EDGE_CURVE ( 'NONE', #728, #451, #656, .T. ) ;
#541 = DIRECTION ( 'NONE',  ( 0.000000000000000000, 1.000000000000000000, 0.000000000000000000 ) ) ;
#542 = EDGE_CURVE ( 'NONE', #333, #606, #783, .T. ) ;
#543 = DIRECTION ( 'NONE',  ( -0.000000000000000000, -0.000000000000000000, 1.000000000000000000 ) ) ;
#544 = VERTEX_POINT ( 'NONE', #987 ) ;
#545 = ORIENTED_EDGE ( 'NONE', *, *, #279, .F. ) ;
#546 = CARTESIAN_POINT ( 'NONE',  ( 7.038834764831889856, 8.838834764831798196, 2.500000000000000000 ) ) ;
#547 = CC_DESIGN_DATE_AND_TIME_ASSIGNMENT ( #780, #509, ( #22 ) ) ;
#548 = CARTESIAN_POINT ( 'NONE',  ( 8.838834764831767998, -8.838834764831920765, 2.500000000000000000 ) ) ;
#549 = ORIENTED_EDGE ( 'NONE', *, *, #283, .T. ) ;
#550 = VERTEX_POINT ( 'NONE', #160 ) ;
#551 = CARTESIAN_POINT ( 'NONE',  ( -10.63883476483194990, -8.838834764831739577, 0.000000000000000000 ) ) ;
#552 = APPROVAL_PERSON_ORGANIZATION ( #390, #53, #452 ) ;
#553 = VECTOR ( 'NONE', #799, 1000.000000000000000 ) ;
#554 = DIRECTION ( 'NONE',  ( -0.000000000000000000, -0.000000000000000000, 1.000000000000000000 ) ) ;
#555 = EDGE_CURVE ( 'NONE', #983, #383, #757, .T. ) ;
#556 = EDGE_LOOP ( 'NONE', ( #273, #640 ) ) ;
#557 = AXIS2_PLACEMENT_3D ( 'NONE', #694, #922, #344 ) ;
#558 = ORIENTED_EDGE ( 'NONE', *, *, #731, .T. ) ;
#559 = DIRECTION ( 'NONE',  ( 1.000000000000000000, 0.000000000000000000, 0.000000000000000000 ) ) ;
#560 = AXIS2_PLACEMENT_3D ( 'NONE', #1045, #953, #625 ) ;
#561 = CARTESIAN_POINT ( 'NONE',  ( -9.199999999999997513, 1.152188841818234133E-13, -3.500000000000000000 ) ) ;
#562 = ORIENTED_EDGE ( 'NONE', *, *, #207, .F. ) ;
#563 = EDGE_CURVE ( 'NONE', #639, #824, #919, .T. ) ;
#564 = ORIENTED_EDGE ( 'NONE', *, *, #433, .F. ) ;
#565 = LINE ( 'NONE', #498, #336 ) ;
#566 = EDGE_LOOP ( 'NONE', ( #342, #792 ) ) ;
#567 = CARTESIAN_POINT ( 'NONE',  ( 9.199999999999999289, -3.818585830342793859E-14, -3.500000000000000000 ) ) ;
#568 = FACE_BOUND ( 'NONE', #556, .T. ) ;
#569 = SHAPE_DEFINITION_REPRESENTATION ( #482, #765 ) ;
#570 = ORIENTED_EDGE ( 'NONE', *, *, #463, .T. ) ;
#571 = EDGE_CURVE ( 'NONE', #367, #658, #20, .T. ) ;
#572 = CARTESIAN_POINT ( 'NONE',  ( -8.838834764831830171, 8.838834764831858593, -3.500000000000000000 ) ) ;
#573 = ORIENTED_EDGE ( 'NONE', *, *, #802, .T. ) ;
#574 = CARTESIAN_POINT ( 'NONE',  ( -10.63883476483182910, 8.838834764831858593, -3.500000000000000000 ) ) ;
#575 = FACE_BOUND ( 'NONE', #384, .T. ) ;
#576 = ORIENTED_EDGE ( 'NONE', *, *, #59, .F. ) ;
#577 = VECTOR ( 'NONE', #476, 1000.000000000000000 ) ;
#578 = DIRECTION ( 'NONE',  ( 1.000000000000000000, 0.000000000000000000, 0.000000000000000000 ) ) ;
#579 = EDGE_CURVE ( 'NONE', #975, #141, #443, .T. ) ;
#580 = CARTESIAN_POINT ( 'NONE',  ( 0.000000000000000000, 0.000000000000000000, 2.500000000000000000 ) ) ;
#581 = LINE ( 'NONE', #740, #218 ) ;
#582 = ORIENTED_EDGE ( 'NONE', *, *, #7, .F. ) ;
#583 = DIRECTION ( 'NONE',  ( 1.000000000000000000, 0.000000000000000000, 0.000000000000000000 ) ) ;
#584 = VECTOR ( 'NONE', #253, 1000.000000000000000 ) ;
#585 = DIRECTION ( 'NONE',  ( -1.000000000000000000, 0.000000000000000000, 0.000000000000000000 ) ) ;
#586 = LINE ( 'NONE', #670, #339 ) ;
#587 = EDGE_LOOP ( 'NONE', ( #179, #1030, #759, #239 ) ) ;
#588 = CYLINDRICAL_SURFACE ( 'NONE', #868, 1.799999999999999600 ) ;
#589 = DIRECTION ( 'NONE',  ( 0.000000000000000000, -1.000000000000000000, 0.000000000000000000 ) ) ;
#590 = PRODUCT_DEFINITION_FORMATION_WITH_SPECIFIED_SOURCE ( 'ä»', '', #326, .NOT_KNOWN. ) ;
#591 = ORIENTED_EDGE ( 'NONE', *, *, #83, .T. ) ;
#592 = CIRCLE ( 'NONE', #952, 1.799999999999999822 ) ;
#593 = EDGE_CURVE ( 'NONE', #999, #1022, #114, .T. ) ;
#594 = PERSON_AND_ORGANIZATION ( #121, #832 ) ;
#595 = AXIS2_PLACEMENT_3D ( 'NONE', #1073, #246, #388 ) ;
#596 = CARTESIAN_POINT ( 'NONE',  ( 1.799999999999922995, -11.00000000000000000, -3.500000000000000000 ) ) ;
#597 = CARTESIAN_POINT ( 'NONE',  ( -7.681258945454893382E-14, -11.00000000000000000, 0.000000000000000000 ) ) ;
#598 = EDGE_LOOP ( 'NONE', ( #880, #522, #903, #742 ) ) ;
#599 = FACE_OUTER_BOUND ( 'NONE', #913, .T. ) ;
#600 = CIRCLE ( 'NONE', #774, 0.5000000000000004441 ) ;
#601 = DIRECTION ( 'NONE',  ( 1.000000000000000000, 0.000000000000000000, 0.000000000000000000 ) ) ;
#602 = ORIENTED_EDGE ( 'NONE', *, *, #1050, .T. ) ;
#603 = ADVANCED_FACE ( 'NONE', ( #668 ), #1067, .T. ) ;
#604 = CARTESIAN_POINT ( 'NONE',  ( -12.79999999999999716, 1.154393206056699417E-13, -3.500000000000000000 ) ) ;
#605 = FACE_OUTER_BOUND ( 'NONE', #681, .T. ) ;
#606 = VERTEX_POINT ( 'NONE', #994 ) ;
#607 = SECURITY_CLASSIFICATION ( '', '', #867 ) ;
#608 = DIRECTION ( 'NONE',  ( 1.000000000000000000, 0.000000000000000000, 0.000000000000000000 ) ) ;
#609 = AXIS2_PLACEMENT_3D ( 'NONE', #303, #1080, #494 ) ;
#610 = AXIS2_PLACEMENT_3D ( 'NONE', #1020, #525, #856 ) ;
#611 = EDGE_CURVE ( 'NONE', #346, #70, #841, .T. ) ;
#612 = CARTESIAN_POINT ( 'NONE',  ( 0.0002372421956754770453, -0.9998609057851033377, -12.49999999999999822 ) ) ;
#613 = EDGE_LOOP ( 'NONE', ( #129, #715, #90, #264 ) ) ;
#614 = PERSON_AND_ORGANIZATION_ROLE ( 'creator' ) ;
#615 = CARTESIAN_POINT ( 'NONE',  ( -22.50000000000000355, 0.000000000000000000, 2.500000000000000000 ) ) ;
#616 = CARTESIAN_POINT ( 'NONE',  ( 10.63883476483188772, 8.838834764831798196, -3.500000000000000000 ) ) ;
#617 = EDGE_LOOP ( 'NONE', ( #282, #532, #488, #990 ) ) ;
#618 = COORDINATED_UNIVERSAL_TIME_OFFSET ( 8, 0, .AHEAD. ) ;
#619 = CARTESIAN_POINT ( 'NONE',  ( -22.50000000000000355, 0.000000000000000000, 0.000000000000000000 ) ) ;
#620 = CARTESIAN_POINT ( 'NONE',  ( -12.79999999999999716, 1.154393206056699417E-13, 2.500000000000000000 ) ) ;
#621 = EDGE_CURVE ( 'NONE', #415, #391, #95, .T. ) ;
#622 = ORIENTED_EDGE ( 'NONE', *, *, #236, .F. ) ;
#623 = EDGE_CURVE ( 'NONE', #907, #629, #863, .T. ) ;
#624 = LOCAL_TIME ( 11, 19, 41.00000000000000000, #274 ) ;
#625 = DIRECTION ( 'NONE',  ( -1.000000000000000000, 0.000000000000000000, 0.000000000000000000 ) ) ;
#626 = AXIS2_PLACEMENT_3D ( 'NONE', #666, #736, #559 ) ;
#627 = CARTESIAN_POINT ( 'NONE',  ( 0.0002372421956754808400, 1.000139094214896884, -13.00000000000000000 ) ) ;
#628 = VECTOR ( 'NONE', #818, 1000.000000000000000 ) ;
#629 = VERTEX_POINT ( 'NONE', #87 ) ;
#630 = EDGE_LOOP ( 'NONE', ( #793, #231 ) ) ;
#631 = CARTESIAN_POINT ( 'NONE',  ( 7.038834764831768176, -8.838834764831920765, 2.500000000000000000 ) ) ;
#632 = DIRECTION ( 'NONE',  ( -1.000000000000000000, 0.000000000000000000, 0.000000000000000000 ) ) ;
#633 = VERTEX_POINT ( 'NONE', #685 ) ;
#634 = AXIS2_PLACEMENT_3D ( 'NONE', #213, #884, #965 ) ;
#635 = ORIENTED_EDGE ( 'NONE', *, *, #96, .T. ) ;
#636 = EDGE_CURVE ( 'NONE', #130, #480, #392, .T. ) ;
#637 = FACE_BOUND ( 'NONE', #163, .T. ) ;
#638 = DIRECTION ( 'NONE',  ( 1.000000000000000000, 0.000000000000000000, 0.000000000000000000 ) ) ;
#639 = VERTEX_POINT ( 'NONE', #835 ) ;
#640 = ORIENTED_EDGE ( 'NONE', *, *, #272, .F. ) ;
#641 = DIRECTION ( 'NONE',  ( 1.000000000000000000, 0.000000000000000000, 0.000000000000000000 ) ) ;
#642 = LOCAL_TIME ( 11, 19, 41.00000000000000000, #618 ) ;
#643 = CIRCLE ( 'NONE', #1, 22.50000000000000355 ) ;
#644 = PLANE ( 'NONE',  #363 ) ;
#645 = EDGE_LOOP ( 'NONE', ( #206, #205, #195, #33 ) ) ;
#646 = ORIENTED_EDGE ( 'NONE', *, *, #951, .F. ) ;
#647 = CARTESIAN_POINT ( 'NONE',  ( 7.038834764831768176, -8.838834764831920765, 0.000000000000000000 ) ) ;
#648 = VECTOR ( 'NONE', #769, 1000.000000000000000 ) ;
#649 = DIRECTION ( 'NONE',  ( 0.000000000000000000, 0.000000000000000000, 1.000000000000000000 ) ) ;
#650 = CYLINDRICAL_SURFACE ( 'NONE', #171, 1.799999999999999600 ) ;
#651 = EDGE_CURVE ( 'NONE', #217, #544, #536, .T. ) ;
#652 = ORIENTED_EDGE ( 'NONE', *, *, #651, .F. ) ;
#653 = AXIS2_PLACEMENT_3D ( 'NONE', #1041, #276, #287 ) ;
#654 = LINE ( 'NONE', #899, #216 ) ;
#655 = VERTEX_POINT ( 'NONE', #1003 ) ;
#656 = LINE ( 'NONE', #977, #1074 ) ;
#657 = DIRECTION ( 'NONE',  ( 1.000000000000000000, 0.000000000000000000, 0.000000000000000000 ) ) ;
#658 = VERTEX_POINT ( 'NONE', #1011 ) ;
#659 = ADVANCED_FACE ( 'NONE', ( #524 ), #422, .T. ) ;
#660 = CYLINDRICAL_SURFACE ( 'NONE', #915, 1.799999999999999822 ) ;
#661 = EDGE_LOOP ( 'NONE', ( #779, #1077 ) ) ;
#662 = DIRECTION ( 'NONE',  ( -0.000000000000000000, -0.000000000000000000, 1.000000000000000000 ) ) ;
#663 = APPROVAL_PERSON_ORGANIZATION ( #323, #852, #1088 ) ;
#664 = CARTESIAN_POINT ( 'NONE',  ( -8.838834764831830171, 8.838834764831858593, 0.000000000000000000 ) ) ;
#665 = ORIENTED_EDGE ( 'NONE', *, *, #772, .T. ) ;
#666 = CARTESIAN_POINT ( 'NONE',  ( -8.838834764831949187, -8.838834764831739577, 0.000000000000000000 ) ) ;
#667 = CC_DESIGN_PERSON_AND_ORGANIZATION_ASSIGNMENT ( #18, #942, ( #590 ) ) ;
#668 = FACE_OUTER_BOUND ( 'NONE', #892, .T. ) ;
#669 = AXIS2_PLACEMENT_3D ( 'NONE', #99, #251, #180 ) ;
#670 = CARTESIAN_POINT ( 'NONE',  ( 2.550237242195675158, 1.000139094214896662, 2.500000000000000444 ) ) ;
#671 = EDGE_LOOP ( 'NONE', ( #34, #763 ) ) ;
#672 = APPROVAL_DATE_TIME ( #539, #852 ) ;
#673 = EDGE_LOOP ( 'NONE', ( #400, #508, #173, #322 ) ) ;
#674 = ADVANCED_FACE ( 'NONE', ( #417 ), #914, .T. ) ;
#675 = DIRECTION ( 'NONE',  ( -0.000000000000000000, -0.000000000000000000, 1.000000000000000000 ) ) ;
#676 = ADVANCED_FACE ( 'NONE', ( #599 ), #689, .F. ) ;
#677 = DIRECTION ( 'NONE',  ( 1.000000000000000000, 0.000000000000000000, -0.000000000000000000 ) ) ;
#678 = ORIENTED_EDGE ( 'NONE', *, *, #261, .F. ) ;
#679 = DIRECTION ( 'NONE',  ( 0.000000000000000000, 0.000000000000000000, -1.000000000000000000 ) ) ;
#680 = LINE ( 'NONE', #1005, #584 ) ;
#681 = EDGE_LOOP ( 'NONE', ( #497, #570, #979, #696 ) ) ;
#682 = CIRCLE ( 'NONE', #57, 22.50000000000000355 ) ;
#683 = CALENDAR_DATE ( 2026, 28, 8 ) ;
#684 = AXIS2_PLACEMENT_3D ( 'NONE', #758, #172, #506 ) ;
#685 = CARTESIAN_POINT ( 'NONE',  ( -9.199999999999997513, 1.152188841818234133E-13, 0.000000000000000000 ) ) ;
#686 = CARTESIAN_POINT ( 'NONE',  ( -2.549762757804324043, -0.9998609057851033377, -13.00000000000000000 ) ) ;
#687 = AXIS2_PLACEMENT_3D ( 'NONE', #529, #541, #870 ) ;
#688 = EDGE_LOOP ( 'NONE', ( #721, #873, #558, #285 ) ) ;
#689 = CYLINDRICAL_SURFACE ( 'NONE', #486, 1.799999999999999822 ) ;
#690 = VECTOR ( 'NONE', #6, 1000.000000000000000 ) ;
#691 = CARTESIAN_POINT ( 'NONE',  ( -10.99999999999999822, 1.152188841818234133E-13, 0.000000000000000000 ) ) ;
#692 = ORIENTED_EDGE ( 'NONE', *, *, #726, .T. ) ;
#693 = EDGE_CURVE ( 'NONE', #459, #655, #954, .T. ) ;
#694 = CARTESIAN_POINT ( 'NONE',  ( 0.000000000000000000, 11.00000000000000000, 2.500000000000000000 ) ) ;
#695 = DIRECTION ( 'NONE',  ( 0.000000000000000000, 0.000000000000000000, 1.000000000000000000 ) ) ;
#696 = ORIENTED_EDGE ( 'NONE', *, *, #86, .F. ) ;
#697 = AXIS2_PLACEMENT_3D ( 'NONE', #40, #375, #719 ) ;
#698 = CYLINDRICAL_SURFACE ( 'NONE', #669, 1.799999999999999600 ) ;
#699 = VECTOR ( 'NONE', #675, 1000.000000000000000 ) ;
#700 = AXIS2_PLACEMENT_3D ( 'NONE', #778, #1013, #177 ) ;
#701 = DIRECTION ( 'NONE',  ( 0.000000000000000000, 0.000000000000000000, 1.000000000000000000 ) ) ;
#702 = ORIENTED_EDGE ( 'NONE', *, *, #261, .T. ) ;
#703 = PERSON_AND_ORGANIZATION ( #121, #832 ) ;
#704 = LINE ( 'NONE', #875, #553 ) ;
#705 = ADVANCED_FACE ( 'NONE', ( #427 ), #588, .F. ) ;
#706 = DIRECTION ( 'NONE',  ( 1.000000000000000000, 0.000000000000000000, 0.000000000000000000 ) ) ;
#707 = ADVANCED_FACE ( 'NONE', ( #1084 ), #698, .F. ) ;
#708 = ORIENTED_EDGE ( 'NONE', *, *, #343, .T. ) ;
#709 = CARTESIAN_POINT ( 'NONE',  ( -2.549762757804324043, 0.000000000000000000, -13.00000000000000000 ) ) ;
#710 = DIRECTION ( 'NONE',  ( -0.000000000000000000, 1.000000000000000000, 0.000000000000000000 ) ) ;
#711 = DIRECTION ( 'NONE',  ( 0.000000000000000000, 0.000000000000000000, 1.000000000000000000 ) ) ;
#712 = EDGE_LOOP ( 'NONE', ( #702, #144, #26, #98 ) ) ;
#713 = DIRECTION ( 'NONE',  ( -1.000000000000000000, 0.000000000000000000, 0.000000000000000000 ) ) ;
#714 = CYLINDRICAL_SURFACE ( 'NONE', #653, 1.799999999999999600 ) ;
#715 = ORIENTED_EDGE ( 'NONE', *, *, #470, .F. ) ;
#716 = DATE_AND_TIME ( #44, #150 ) ;
#717 = ORIENTED_EDGE ( 'NONE', *, *, #317, .F. ) ;
#718 = AXIS2_PLACEMENT_3D ( 'NONE', #505, #929, #515 ) ;
#719 = DIRECTION ( 'NONE',  ( 1.000000000000000000, 0.000000000000000000, 0.000000000000000000 ) ) ;
#720 = CYLINDRICAL_SURFACE ( 'NONE', #871, 2.549999999999999822 ) ;
#721 = ORIENTED_EDGE ( 'NONE', *, *, #972, .F. ) ;
#722 = CIRCLE ( 'NONE', #855, 1.799999999999999600 ) ;
#723 = AXIS2_PLACEMENT_3D ( 'NONE', #35, #369, #713 ) ;
#724 = VERTEX_POINT ( 'NONE', #170 ) ;
#725 = DIRECTION ( 'NONE',  ( 1.000000000000000000, 0.000000000000000000, 0.000000000000000000 ) ) ;
#726 = EDGE_CURVE ( 'NONE', #130, #367, #262, .T. ) ;
#727 = DIRECTION ( 'NONE',  ( -0.000000000000000000, -0.000000000000000000, 1.000000000000000000 ) ) ;
#728 = VERTEX_POINT ( 'NONE', #511 ) ;
#729 = EDGE_LOOP ( 'NONE', ( #379, #357, #324, #43 ) ) ;
#730 = FACE_OUTER_BOUND ( 'NONE', #613, .T. ) ;
#731 = EDGE_CURVE ( 'NONE', #17, #824, #431, .T. ) ;
#732 = DIRECTION ( 'NONE',  ( 1.000000000000000000, 0.000000000000000000, 0.000000000000000000 ) ) ;
#733 = CYLINDRICAL_SURFACE ( 'NONE', #537, 1.799999999999999600 ) ;
#734 = APPROVAL_DATE_TIME ( #716, #53 ) ;
#735 = VERTEX_POINT ( 'NONE', #5 ) ;
#736 = DIRECTION ( 'NONE',  ( 0.000000000000000000, 0.000000000000000000, 1.000000000000000000 ) ) ;
#737 = EDGE_LOOP ( 'NONE', ( #37, #517 ) ) ;
#738 = DIRECTION ( 'NONE',  ( 1.000000000000000000, 0.000000000000000000, 0.000000000000000000 ) ) ;
#739 = EDGE_CURVE ( 'NONE', #391, #4, #467, .T. ) ;
#740 = CARTESIAN_POINT ( 'NONE',  ( -2.549762757804324043, 0.000000000000000000, -12.49999999999999822 ) ) ;
#741 = EDGE_CURVE ( 'NONE', #415, #633, #836, .T. ) ;
#742 = ORIENTED_EDGE ( 'NONE', *, *, #611, .F. ) ;
#743 = AXIS2_PLACEMENT_3D ( 'NONE', #139, #468, #971 ) ;
#744 = FACE_OUTER_BOUND ( 'NONE', #191, .T. ) ;
#745 = CARTESIAN_POINT ( 'NONE',  ( -1.800000000000076428, -11.00000000000000000, -3.500000000000000000 ) ) ;
#746 = CARTESIAN_POINT ( 'NONE',  ( 8.838834764831767998, -8.838834764831920765, 2.500000000000000000 ) ) ;
#747 = ORIENTED_EDGE ( 'NONE', *, *, #410, .F. ) ;
#748 = CARTESIAN_POINT ( 'NONE',  ( 8.838834764831888791, 8.838834764831798196, 2.500000000000000000 ) ) ;
#749 = FACE_OUTER_BOUND ( 'NONE', #1065, .T. ) ;
#750 = CC_DESIGN_APPROVAL ( #852, ( #590 ) ) ;
#751 = CYLINDRICAL_SURFACE ( 'NONE', #937, 1.799999999999999600 ) ;
#752 = VERTEX_POINT ( 'NONE', #189 ) ;
#753 = AXIS2_PLACEMENT_3D ( 'NONE', #489, #662, #54 ) ;
#754 = CIRCLE ( 'NONE', #356, 1.799999999999999600 ) ;
#755 = ADVANCED_FACE ( 'NONE', ( #109 ), #47, .T. ) ;
#756 = DATE_TIME_ROLE ( 'classification_date' ) ;
#757 = LINE ( 'NONE', #745, #699 ) ;
#758 = CARTESIAN_POINT ( 'NONE',  ( 3.050237242195675158, 0.000000000000000000, -12.49999999999999822 ) ) ;
#759 = ORIENTED_EDGE ( 'NONE', *, *, #317, .T. ) ;
#760 = CARTESIAN_POINT ( 'NONE',  ( 0.000000000000000000, 0.000000000000000000, 0.000000000000000000 ) ) ;
#761 = DIRECTION ( 'NONE',  ( 0.000000000000000000, 0.000000000000000000, 1.000000000000000000 ) ) ;
#762 = CARTESIAN_POINT ( 'NONE',  ( 10.63883476483188772, 8.838834764831798196, 2.500000000000000000 ) ) ;
#763 = ORIENTED_EDGE ( 'NONE', *, *, #254, .T. ) ;
#764 = CARTESIAN_POINT ( 'NONE',  ( 0.000000000000000000, 0.000000000000000000, 2.500000000000000000 ) ) ;
#765 = ADVANCED_BREP_SHAPE_REPRESENTATION ( '\X2\8f9351657aef\X0\', ( #19, #426 ), #1004 ) ;
#766 = DIRECTION ( 'NONE',  ( 1.000000000000000000, 0.000000000000000000, 0.000000000000000000 ) ) ;
#767 = ORIENTED_EDGE ( 'NONE', *, *, #984, .T. ) ;
#768 = AXIS2_PLACEMENT_3D ( 'NONE', #885, #711, #50 ) ;
#769 = DIRECTION ( 'NONE',  ( -0.000000000000000000, -0.000000000000000000, 1.000000000000000000 ) ) ;
#770 = LINE ( 'NONE', #686, #690 ) ;
#771 = ORIENTED_EDGE ( 'NONE', *, *, #1037, .T. ) ;
#772 = EDGE_CURVE ( 'NONE', #437, #550, #991, .T. ) ;
#773 = CARTESIAN_POINT ( 'NONE',  ( -10.99999999999999822, 1.152188841818234133E-13, 2.500000000000000000 ) ) ;
#774 = AXIS2_PLACEMENT_3D ( 'NONE', #860, #258, #695 ) ;
#775 = CARTESIAN_POINT ( 'NONE',  ( -10.99999999999999822, 1.152188841818234133E-13, -3.500000000000000000 ) ) ;
#776 = VERTEX_POINT ( 'NONE', #551 ) ;
#777 = CARTESIAN_POINT ( 'NONE',  ( -3.049762757804324043, 1.000139094214896662, -12.49999999999999822 ) ) ;
#778 = CARTESIAN_POINT ( 'NONE',  ( 8.838834764831888791, 8.838834764831798196, 2.500000000000000000 ) ) ;
#779 = ORIENTED_EDGE ( 'NONE', *, *, #397, .T. ) ;
#780 = DATE_AND_TIME ( #175, #1072 ) ;
#781 = CIRCLE ( 'NONE', #298, 1.799999999999999600 ) ;
#782 = LINE ( 'NONE', #615, #474 ) ;
#783 = CIRCLE ( 'NONE', #60, 5.500000000000000000 ) ;
#784 = ADVANCED_FACE ( 'NONE', ( #1032 ), #280, .F. ) ;
#785 = CIRCLE ( 'NONE', #89, 1.799999999999999822 ) ;
#786 = CARTESIAN_POINT ( 'NONE',  ( 2.550237242195675158, -0.9998609057851033377, -12.49999999999999822 ) ) ;
#787 = ORIENTED_EDGE ( 'NONE', *, *, #1064, .T. ) ;
#788 = CALENDAR_DATE ( 2026, 28, 8 ) ;
#789 = AXIS2_PLACEMENT_3D ( 'NONE', #359, #204, #725 ) ;
#790 = DIRECTION ( 'NONE',  ( 1.000000000000000000, -0.000000000000000000, 0.000000000000000000 ) ) ;
#791 = CARTESIAN_POINT ( 'NONE',  ( -10.99999999999999822, 1.152188841818234133E-13, 2.500000000000000000 ) ) ;
#792 = ORIENTED_EDGE ( 'NONE', *, *, #229, .T. ) ;
#793 = ORIENTED_EDGE ( 'NONE', *, *, #816, .F. ) ;
#794 = DIRECTION ( 'NONE',  ( 0.000000000000000000, 0.000000000000000000, -1.000000000000000000 ) ) ;
#795 = CARTESIAN_POINT ( 'NONE',  ( 0.0002372421956754808400, 1.000139094214896884, -12.49999999999999822 ) ) ;
#796 = EDGE_CURVE ( 'NONE', #962, #130, #25, .T. ) ;
#797 = ORIENTED_EDGE ( 'NONE', *, *, #373, .T. ) ;
#798 = EDGE_LOOP ( 'NONE', ( #973, #374 ) ) ;
#799 = DIRECTION ( 'NONE',  ( -0.000000000000000000, -1.000000000000000000, 0.000000000000000000 ) ) ;
#800 = CARTESIAN_POINT ( 'NONE',  ( 0.000000000000000000, 0.000000000000000000, -13.00000000000000000 ) ) ;
#801 = ORIENTED_EDGE ( 'NONE', *, *, #520, .T. ) ;
#802 = EDGE_CURVE ( 'NONE', #829, #848, #84, .T. ) ;
#803 = ORIENTED_EDGE ( 'NONE', *, *, #796, .T. ) ;
#804 = FACE_BOUND ( 'NONE', #491, .T. ) ;
#805 = LINE ( 'NONE', #31, #9 ) ;
#806 = DESIGN_CONTEXT ( 'detailed design', #530, 'design' ) ;
#807 = ORIENTED_EDGE ( 'NONE', *, *, #86, .T. ) ;
#808 = EDGE_LOOP ( 'NONE', ( #562, #1025 ) ) ;
#809 = PLANE ( 'NONE',  #250 ) ;
#810 = LINE ( 'NONE', #888, #988 ) ;
#811 = EDGE_LOOP ( 'NONE', ( #622, #38, #1007, #222 ) ) ;
#812 = ORIENTED_EDGE ( 'NONE', *, *, #593, .F. ) ;
#813 = EDGE_CURVE ( 'NONE', #140, #1043, #174, .T. ) ;
#814 = CYLINDRICAL_SURFACE ( 'NONE', #151, 1.799999999999999600 ) ;
#815 = AXIS2_PLACEMENT_3D ( 'NONE', #240, #894, #295 ) ;
#816 = EDGE_CURVE ( 'NONE', #629, #907, #1012, .T. ) ;
#817 = CARTESIAN_POINT ( 'NONE',  ( -2.549762757804324043, -0.9998609057851033377, 2.500000000000000444 ) ) ;
#818 = DIRECTION ( 'NONE',  ( -0.000000000000000000, -0.000000000000000000, 1.000000000000000000 ) ) ;
#819 = EDGE_LOOP ( 'NONE', ( #812, #843, #767, #46 ) ) ;
#820 = DIRECTION ( 'NONE',  ( 0.000000000000000000, 0.000000000000000000, 1.000000000000000000 ) ) ;
#821 = ORIENTED_EDGE ( 'NONE', *, *, #802, .F. ) ;
#822 = PLANE ( 'NONE',  #609 ) ;
#823 = CARTESIAN_POINT ( 'NONE',  ( 1.799999999999922995, -11.00000000000000000, 2.500000000000000000 ) ) ;
#824 = VERTEX_POINT ( 'NONE', #131 ) ;
#825 = CIRCLE ( 'NONE', #1027, 1.799999999999999600 ) ;
#826 = CARTESIAN_POINT ( 'NONE',  ( -5.500000000000000000, 0.000000000000000000, -13.00000000000000000 ) ) ;
#827 = LINE ( 'NONE', #567, #355 ) ;
#828 = DIRECTION ( 'NONE',  ( 0.000000000000000000, 0.000000000000000000, 1.000000000000000000 ) ) ;
#829 = VERTEX_POINT ( 'NONE', #290 ) ;
#830 = CARTESIAN_POINT ( 'NONE',  ( -1.800000000000076428, -11.00000000000000000, 0.000000000000000000 ) ) ;
#831 = DIRECTION ( 'NONE',  ( 0.000000000000000000, 0.000000000000000000, -1.000000000000000000 ) ) ;
#832 = ORGANIZATION ( 'æœª', 'æœª', '' ) ;
#833 = FACE_OUTER_BOUND ( 'NONE', #853, .T. ) ;
#834 = ORIENTED_EDGE ( 'NONE', *, *, #593, .T. ) ;
#835 = CARTESIAN_POINT ( 'NONE',  ( -2.549762757804324043, 1.000139094214896662, 2.500000000000000444 ) ) ;
#836 = CIRCLE ( 'NONE', #65, 1.799999999999999600 ) ;
#837 = FACE_OUTER_BOUND ( 'NONE', #201, .T. ) ;
#838 = ORIENTED_EDGE ( 'NONE', *, *, #542, .F. ) ;
#839 = AXIS2_PLACEMENT_3D ( 'NONE', #800, #535, #632 ) ;
#840 = APPROVAL_STATUS ( 'not_yet_approved' ) ;
#841 = LINE ( 'NONE', #596, #39 ) ;
#842 = DIRECTION ( 'NONE',  ( 1.000000000000000000, 0.000000000000000000, 0.000000000000000000 ) ) ;
#843 = ORIENTED_EDGE ( 'NONE', *, *, #59, .T. ) ;
#844 = EDGE_CURVE ( 'NONE', #962, #17, #923, .T. ) ;
#845 = CARTESIAN_POINT ( 'NONE',  ( 2.550237242195675158, 1.000139094214896662, -13.00000000000000000 ) ) ;
#846 = EDGE_CURVE ( 'NONE', #480, #17, #447, .T. ) ;
#847 = FACE_OUTER_BOUND ( 'NONE', #1002, .T. ) ;
#848 = VERTEX_POINT ( 'NONE', #440 ) ;
#849 = DIRECTION ( 'NONE',  ( 1.000000000000000000, 0.000000000000000000, 0.000000000000000000 ) ) ;
#850 = CARTESIAN_POINT ( 'NONE',  ( 11.00000000000000000, -3.840629472727446691E-14, -3.500000000000000000 ) ) ;
#851 = AXIS2_PLACEMENT_3D ( 'NONE', #381, #794, #29 ) ;
#852 = APPROVAL ( #840, 'æœª' ) ;
#853 = EDGE_LOOP ( 'NONE', ( #64, #454, #747, #1048 ) ) ;
#854 = DIRECTION ( 'NONE',  ( -0.000000000000000000, -0.000000000000000000, -1.000000000000000000 ) ) ;
#855 = AXIS2_PLACEMENT_3D ( 'NONE', #93, #2, #601 ) ;
#856 = DIRECTION ( 'NONE',  ( -1.000000000000000000, 0.000000000000000000, 0.000000000000000000 ) ) ;
#857 = ORIENTED_EDGE ( 'NONE', *, *, #693, .F. ) ;
#858 = MECHANICAL_CONTEXT ( 'NONE', #116, 'mechanical' ) ;
#859 = CARTESIAN_POINT ( 'NONE',  ( 8.838834764831767998, -8.838834764831920765, -3.500000000000000000 ) ) ;
#860 = CARTESIAN_POINT ( 'NONE',  ( -3.049762757804324043, -0.9998609057851033377, -12.49999999999999822 ) ) ;
#861 = ORIENTED_EDGE ( 'NONE', *, *, #463, .F. ) ;
#862 = DIRECTION ( 'NONE',  ( 1.000000000000000000, 0.000000000000000000, 0.000000000000000000 ) ) ;
#863 = CIRCLE ( 'NONE', #557, 1.799999999999999822 ) ;
#864 = AXIS2_PLACEMENT_3D ( 'NONE', #916, #68, #677 ) ;
#865 = CARTESIAN_POINT ( 'NONE',  ( 3.050237242195675158, -0.9998609057851033377, -12.49999999999999822 ) ) ;
#866 = EDGE_LOOP ( 'NONE', ( #1018, #582 ) ) ;
#867 = SECURITY_CLASSIFICATION_LEVEL ( 'unclassified' ) ;
#868 = AXIS2_PLACEMENT_3D ( 'NONE', #518, #14, #849 ) ;
#869 = ORIENTED_EDGE ( 'NONE', *, *, #563, .T. ) ;
#870 = DIRECTION ( 'NONE',  ( 0.000000000000000000, 0.000000000000000000, 1.000000000000000000 ) ) ;
#871 = AXIS2_PLACEMENT_3D ( 'NONE', #456, #727, #706 ) ;
#872 = LINE ( 'NONE', #199, #908 ) ;
#873 = ORIENTED_EDGE ( 'NONE', *, *, #846, .T. ) ;
#874 = VERTEX_POINT ( 'NONE', #631 ) ;
#875 = CARTESIAN_POINT ( 'NONE',  ( 2.550237242195675158, -0.9998609057851033377, -12.49999999999999822 ) ) ;
#876 = CARTESIAN_POINT ( 'NONE',  ( -3.049762757804324043, -0.9998609057851033377, -13.00000000000000000 ) ) ;
#877 = EDGE_CURVE ( 'NONE', #724, #629, #275, .T. ) ;
#878 = UNCERTAINTY_MEASURE_WITH_UNIT (LENGTH_MEASURE( 1.000000000000000082E-05 ), #113, 'distance_accuracy_value', 'NONE');
#879 = CARTESIAN_POINT ( 'NONE',  ( -9.199999999999997513, 1.152188841818234133E-13, 2.500000000000000000 ) ) ;
#880 = ORIENTED_EDGE ( 'NONE', *, *, #229, .F. ) ;
#881 = AXIS2_PLACEMENT_3D ( 'NONE', #146, #478, #164 ) ;
#882 = FACE_OUTER_BOUND ( 'NONE', #598, .T. ) ;
#883 = AXIS2_PLACEMENT_3D ( 'NONE', #1000, #147, #241 ) ;
#884 = DIRECTION ( 'NONE',  ( 0.000000000000000000, 0.000000000000000000, 1.000000000000000000 ) ) ;
#885 = CARTESIAN_POINT ( 'NONE',  ( -7.681258945454893382E-14, -11.00000000000000000, 2.500000000000000000 ) ) ;
#886 = ORIENTED_EDGE ( 'NONE', *, *, #496, .T. ) ;
#887 = DIRECTION ( 'NONE',  ( 1.000000000000000000, 0.000000000000000000, 0.000000000000000000 ) ) ;
#888 = CARTESIAN_POINT ( 'NONE',  ( 5.500000000000000000, 6.735557395310441037E-16, 0.000000000000000000 ) ) ;
#889 = VECTOR ( 'NONE', #554, 1000.000000000000000 ) ;
#890 = LINE ( 'NONE', #277, #577 ) ;
#891 = EDGE_CURVE ( 'NONE', #606, #333, #49, .T. ) ;
#892 = EDGE_LOOP ( 'NONE', ( #576, #945, #306, #458 ) ) ;
#893 = EDGE_CURVE ( 'NONE', #1022, #898, #782, .T. ) ;
#894 = DIRECTION ( 'NONE',  ( 0.000000000000000000, 0.000000000000000000, 1.000000000000000000 ) ) ;
#895 = ORIENTED_EDGE ( 'NONE', *, *, #571, .T. ) ;
#896 = FACE_OUTER_BOUND ( 'NONE', #661, .T. ) ;
#897 = FACE_BOUND ( 'NONE', #210, .T. ) ;
#898 = VERTEX_POINT ( 'NONE', #619 ) ;
#899 = CARTESIAN_POINT ( 'NONE',  ( 7.038834764831769064, -8.838834764831920765, -3.500000000000000000 ) ) ;
#900 = CYLINDRICAL_SURFACE ( 'NONE', #753, 1.799999999999999600 ) ;
#901 = DIRECTION ( 'NONE',  ( 1.000000000000000000, 0.000000000000000000, 0.000000000000000000 ) ) ;
#902 = AXIS2_PLACEMENT_3D ( 'NONE', #746, #166, #1068 ) ;
#903 = ORIENTED_EDGE ( 'NONE', *, *, #7, .T. ) ;
#904 = FACE_OUTER_BOUND ( 'NONE', #244, .T. ) ;
#905 = DIRECTION ( 'NONE',  ( -0.000000000000000000, -0.000000000000000000, -1.000000000000000000 ) ) ;
#906 = CARTESIAN_POINT ( 'NONE',  ( 5.500000000000000000, 6.735557395310441037E-16, -13.00000000000000000 ) ) ;
#907 = VERTEX_POINT ( 'NONE', #1039 ) ;
#908 = VECTOR ( 'NONE', #111, 1000.000000000000000 ) ;
#909 = CARTESIAN_POINT ( 'NONE',  ( 8.838834764831888791, 8.838834764831798196, 0.000000000000000000 ) ) ;
#910 = DIRECTION ( 'NONE',  ( -1.000000000000000000, 0.000000000000000000, 0.000000000000000000 ) ) ;
#911 = CARTESIAN_POINT ( 'NONE',  ( -10.63883476483194990, -8.838834764831739577, 2.500000000000000000 ) ) ;
#912 = ADVANCED_FACE ( 'NONE', ( #882 ), #23, .F. ) ;
#913 = EDGE_LOOP ( 'NONE', ( #361, #294, #1035, #771 ) ) ;
#914 = CYLINDRICAL_SURFACE ( 'NONE', #338, 0.5000000000000004441 ) ;
#915 = AXIS2_PLACEMENT_3D ( 'NONE', #394, #235, #641 ) ;
#916 = CARTESIAN_POINT ( 'NONE',  ( 0.000000000000000000, 0.000000000000000000, 2.500000000000000000 ) ) ;
#917 = PRODUCT_RELATED_PRODUCT_CATEGORY ( 'detail', '', ( #326 ) ) ;
#918 = ORIENTED_EDGE ( 'NONE', *, *, #1085, .F. ) ;
#919 = CIRCLE ( 'NONE', #136, 2.549999999999999822 ) ;
#920 = AXIS2_PLACEMENT_3D ( 'NONE', #612, #516, #190 ) ;
#921 = PERSON_AND_ORGANIZATION_ROLE ( 'creator' ) ;
#922 = DIRECTION ( 'NONE',  ( 0.000000000000000000, 0.000000000000000000, 1.000000000000000000 ) ) ;
#923 = CIRCLE ( 'NONE', #687, 0.5000000000000004441 ) ;
#924 = FACE_OUTER_BOUND ( 'NONE', #729, .T. ) ;
#925 = VERTEX_POINT ( 'NONE', #546 ) ;
#926 = EDGE_CURVE ( 'NONE', #17, #437, #704, .T. ) ;
#927 = AXIS2_PLACEMENT_3D ( 'NONE', #865, #292, #450 ) ;
#928 = EDGE_CURVE ( 'NONE', #848, #829, #200, .T. ) ;
#929 = DIRECTION ( 'NONE',  ( 0.000000000000000000, 0.000000000000000000, 1.000000000000000000 ) ) ;
#930 = FACE_OUTER_BOUND ( 'NONE', #931, .T. ) ;
#931 = EDGE_LOOP ( 'NONE', ( #260, #886, #1079, #465 ) ) ;
#932 = ADVANCED_FACE ( 'NONE', ( #637, #212, #466, #804, #193, #219, #318, #492, #71, #487 ), #809, .F. ) ;
#933 = DIRECTION ( 'NONE',  ( 0.000000000000000000, 0.000000000000000000, 1.000000000000000000 ) ) ;
#934 = FACE_OUTER_BOUND ( 'NONE', #688, .T. ) ;
#935 = ORIENTED_EDGE ( 'NONE', *, *, #127, .T. ) ;
#936 = AXIS2_PLACEMENT_3D ( 'NONE', #72, #325, #910 ) ;
#937 = AXIS2_PLACEMENT_3D ( 'NONE', #243, #1063, #657 ) ;
#938 = DIRECTION ( 'NONE',  ( 1.000000000000000000, 0.000000000000000000, 0.000000000000000000 ) ) ;
#939 = EDGE_CURVE ( 'NONE', #655, #459, #534, .T. ) ;
#940 = DIRECTION ( 'NONE',  ( 1.000000000000000000, 0.000000000000000000, 0.000000000000000000 ) ) ;
#941 = EDGE_LOOP ( 'NONE', ( #797, #834 ) ) ;
#942 = PERSON_AND_ORGANIZATION_ROLE ( 'design_supplier' ) ;
#943 = DIRECTION ( 'NONE',  ( -0.000000000000000000, -0.000000000000000000, -1.000000000000000000 ) ) ;
#944 = DIRECTION ( 'NONE',  ( 1.000000000000000000, 0.000000000000000000, 0.000000000000000000 ) ) ;
#945 = ORIENTED_EDGE ( 'NONE', *, *, #373, .F. ) ;
#946 = DIRECTION ( 'NONE',  ( 1.000000000000000000, 0.000000000000000000, 0.000000000000000000 ) ) ;
#947 = CC_DESIGN_PERSON_AND_ORGANIZATION_ASSIGNMENT ( #594, #921, ( #22 ) ) ;
#948 = DIRECTION ( 'NONE',  ( -0.000000000000000000, -0.000000000000000000, 1.000000000000000000 ) ) ;
#949 = DIRECTION ( 'NONE',  ( -0.000000000000000000, -0.000000000000000000, 1.000000000000000000 ) ) ;
#950 = ORIENTED_EDGE ( 'NONE', *, *, #951, .T. ) ;
#951 = EDGE_CURVE ( 'NONE', #728, #445, #502, .T. ) ;
#952 = AXIS2_PLACEMENT_3D ( 'NONE', #230, #159, #1051 ) ;
#953 = DIRECTION ( 'NONE',  ( -0.000000000000000000, -0.000000000000000000, 1.000000000000000000 ) ) ;
#954 = CIRCLE ( 'NONE', #718, 1.799999999999999600 ) ;
#955 = CIRCLE ( 'NONE', #768, 1.799999999999999822 ) ;
#956 = CARTESIAN_POINT ( 'NONE',  ( 2.550237242195675158, -0.9998609057851033377, -13.00000000000000000 ) ) ;
#957 = VERTEX_POINT ( 'NONE', #826 ) ;
#958 = ORIENTED_EDGE ( 'NONE', *, *, #13, .T. ) ;
#959 = CARTESIAN_POINT ( 'NONE',  ( -7.681258945454893382E-14, -11.00000000000000000, -3.500000000000000000 ) ) ;
#960 = EDGE_CURVE ( 'NONE', #776, #1082, #16, .T. ) ;
#961 = CARTESIAN_POINT ( 'NONE',  ( 3.050237242195675158, 1.000139094214896662, -13.00000000000000000 ) ) ;
#962 = VERTEX_POINT ( 'NONE', #1066 ) ;
#963 = ORIENTED_EDGE ( 'NONE', *, *, #891, .T. ) ;
#964 = DIRECTION ( 'NONE',  ( -0.000000000000000000, -0.000000000000000000, 1.000000000000000000 ) ) ;
#965 = DIRECTION ( 'NONE',  ( 1.000000000000000000, 0.000000000000000000, 0.000000000000000000 ) ) ;
#966 = ORIENTED_EDGE ( 'NONE', *, *, #227, .F. ) ;
#967 = EDGE_LOOP ( 'NONE', ( #803, #692, #895, #255 ) ) ;
#968 = AXIS2_PLACEMENT_3D ( 'NONE', #1078, #421, #85 ) ;
#969 = DIRECTION ( 'NONE',  ( -0.000000000000000000, -0.000000000000000000, 1.000000000000000000 ) ) ;
#970 = CIRCLE ( 'NONE', #936, 2.549999999999999822 ) ;
#971 = DIRECTION ( 'NONE',  ( -1.000000000000000000, 0.000000000000000000, 0.000000000000000000 ) ) ;
#972 = EDGE_CURVE ( 'NONE', #480, #639, #565, .T. ) ;
#973 = ORIENTED_EDGE ( 'NONE', *, *, #83, .F. ) ;
#974 = EDGE_CURVE ( 'NONE', #898, #94, #682, .T. ) ;
#975 = VERTEX_POINT ( 'NONE', #142 ) ;
#976 = DIRECTION ( 'NONE',  ( -0.000000000000000000, -0.000000000000000000, 1.000000000000000000 ) ) ;
#977 = CARTESIAN_POINT ( 'NONE',  ( -7.038834764831830348, 8.838834764831858593, -3.500000000000000000 ) ) ;
#978 = FACE_BOUND ( 'NONE', #808, .T. ) ;
#979 = ORIENTED_EDGE ( 'NONE', *, *, #651, .T. ) ;
#980 = DIRECTION ( 'NONE',  ( -1.000000000000000000, 0.000000000000000000, 0.000000000000000000 ) ) ;
#981 = DIRECTION ( 'NONE',  ( 0.000000000000000000, 0.000000000000000000, -1.000000000000000000 ) ) ;
#982 = CARTESIAN_POINT ( 'NONE',  ( 22.50000000000000355, 2.755455298081545172E-15, 2.500000000000000000 ) ) ;
#983 = VERTEX_POINT ( 'NONE', #830 ) ;
#984 = EDGE_CURVE ( 'NONE', #94, #898, #643, .T. ) ;
#985 = CARTESIAN_POINT ( 'NONE',  ( 22.50000000000000355, 2.755455298081545172E-15, 2.500000000000000000 ) ) ;
#986 = ORIENTED_EDGE ( 'NONE', *, *, #621, .F. ) ;
#987 = CARTESIAN_POINT ( 'NONE',  ( 12.79999999999999893, -3.840629472727446691E-14, 2.500000000000000000 ) ) ;
#988 = VECTOR ( 'NONE', #314, 1000.000000000000000 ) ;
#989 = FACE_OUTER_BOUND ( 'NONE', #145, .T. ) ;
#990 = ORIENTED_EDGE ( 'NONE', *, *, #96, .F. ) ;
#991 = CIRCLE ( 'NONE', #851, 2.549999999999999822 ) ;
#992 = CARTESIAN_POINT ( 'NONE',  ( -8.838834764831949187, -8.838834764831739577, -3.500000000000000000 ) ) ;
#993 = EDGE_CURVE ( 'NONE', #412, #724, #169, .T. ) ;
#994 = CARTESIAN_POINT ( 'NONE',  ( 5.500000000000000000, 6.735557395310441037E-16, 0.000000000000000000 ) ) ;
#995 = FACE_BOUND ( 'NONE', #514, .T. ) ;
#996 = ORIENTED_EDGE ( 'NONE', *, *, #119, .T. ) ;
#997 = CIRCLE ( 'NONE', #453, 1.799999999999999600 ) ;
#998 = APPLICATION_PROTOCOL_DEFINITION ( 'international standard', 'config_control_design', 1994, #116 ) ;
#999 = VERTEX_POINT ( 'NONE', #985 ) ;
#1000 = CARTESIAN_POINT ( 'NONE',  ( 0.0002372421956754770453, -0.9998609057851033377, -13.00000000000000000 ) ) ;
#1001 = CARTESIAN_POINT ( 'NONE',  ( -7.038834764831950253, -8.838834764831739577, -3.500000000000000000 ) ) ;
#1002 = EDGE_LOOP ( 'NONE', ( #986, #316, #1014, #182 ) ) ;
#1003 = CARTESIAN_POINT ( 'NONE',  ( 7.038834764831889856, 8.838834764831798196, 0.000000000000000000 ) ) ;
#1004 =( GEOMETRIC_REPRESENTATION_CONTEXT ( 3 ) GLOBAL_UNCERTAINTY_ASSIGNED_CONTEXT ( ( #878 ) ) GLOBAL_UNIT_ASSIGNED_CONTEXT ( ( #113, #358, #446 ) ) REPRESENTATION_CONTEXT ( 'NONE', 'WORKASPACE' ) );
#1005 = CARTESIAN_POINT ( 'NONE',  ( 10.63883476483176693, -8.838834764831920765, -3.500000000000000000 ) ) ;
#1006 = ADVANCED_FACE ( 'NONE', ( #744 ), #814, .F. ) ;
#1007 = ORIENTED_EDGE ( 'NONE', *, *, #972, .T. ) ;
#1008 = AXIS2_PLACEMENT_3D ( 'NONE', #777, #183, #679 ) ;
#1009 = ADVANCED_FACE ( 'NONE', ( #730 ), #660, .F. ) ;
#1010 = APPROVAL_STATUS ( 'not_yet_approved' ) ;
#1011 = CARTESIAN_POINT ( 'NONE',  ( 3.050237242195675158, -0.9998609057851033377, -13.00000000000000000 ) ) ;
#1012 = CIRCLE ( 'NONE', #789, 1.799999999999999822 ) ;
#1013 = DIRECTION ( 'NONE',  ( 0.000000000000000000, 0.000000000000000000, 1.000000000000000000 ) ) ;
#1014 = ORIENTED_EDGE ( 'NONE', *, *, #416, .T. ) ;
#1015 = VECTOR ( 'NONE', #61, 1000.000000000000000 ) ;
#1016 = DIRECTION ( 'NONE',  ( -0.000000000000000000, -0.000000000000000000, 1.000000000000000000 ) ) ;
#1017 = DIRECTION ( 'NONE',  ( 0.000000000000000000, 0.000000000000000000, 1.000000000000000000 ) ) ;
#1018 = ORIENTED_EDGE ( 'NONE', *, *, #1037, .F. ) ;
#1019 = CARTESIAN_POINT ( 'NONE',  ( -3.049762757804324043, 0.000000000000000000, -13.00000000000000000 ) ) ;
#1020 = CARTESIAN_POINT ( 'NONE',  ( 0.000000000000000000, 0.000000000000000000, 0.000000000000000000 ) ) ;
#1021 = AXIS2_PLACEMENT_3D ( 'NONE', #307, #411, #980 ) ;
#1022 = VERTEX_POINT ( 'NONE', #406 ) ;
#1023 = AXIS2_PLACEMENT_3D ( 'NONE', #432, #15, #100 ) ;
#1024 = DIRECTION ( 'NONE',  ( 1.000000000000000000, 0.000000000000000000, 0.000000000000000000 ) ) ;
#1025 = ORIENTED_EDGE ( 'NONE', *, *, #1064, .F. ) ;
#1026 = PERSON_AND_ORGANIZATION_ROLE ( 'classification_officer' ) ;
#1027 = AXIS2_PLACEMENT_3D ( 'NONE', #548, #128, #638 ) ;
#1028 = DIRECTION ( 'NONE',  ( 0.000000000000000000, 0.000000000000000000, -1.000000000000000000 ) ) ;
#1029 = CYLINDRICAL_SURFACE ( 'NONE', #178, 2.549999999999999822 ) ;
#1030 = ORIENTED_EDGE ( 'NONE', *, *, #926, .T. ) ;
#1031 = APPLICATION_PROTOCOL_DEFINITION ( 'international standard', 'config_control_design', 1994, #530 ) ;
#1032 = FACE_OUTER_BOUND ( 'NONE', #1054, .T. ) ;
#1033 = FACE_OUTER_BOUND ( 'NONE', #645, .T. ) ;
#1034 = ADVANCED_FACE ( 'NONE', ( #1060 ), #302, .T. ) ;
#1035 = ORIENTED_EDGE ( 'NONE', *, *, #611, .T. ) ;
#1036 = COORDINATED_UNIVERSAL_TIME_OFFSET ( 8, 0, .AHEAD. ) ;
#1037 = EDGE_CURVE ( 'NONE', #70, #383, #592, .T. ) ;
#1038 = ORIENTED_EDGE ( 'NONE', *, *, #739, .F. ) ;
#1039 = CARTESIAN_POINT ( 'NONE',  ( -1.799999999999999822, 11.00000000000000000, 2.500000000000000000 ) ) ;
#1040 = VECTOR ( 'NONE', #315, 1000.000000000000000 ) ;
#1041 = CARTESIAN_POINT ( 'NONE',  ( 11.00000000000000000, -3.840629472727446691E-14, -3.500000000000000000 ) ) ;
#1042 = ORIENTED_EDGE ( 'NONE', *, *, #207, .T. ) ;
#1043 = VERTEX_POINT ( 'NONE', #647 ) ;
#1044 = CC_DESIGN_DATE_AND_TIME_ASSIGNMENT ( #123, #756, ( #607 ) ) ;
#1045 = CARTESIAN_POINT ( 'NONE',  ( 0.0002372421956754808400, 1.000139094214896884, -13.00000000000000000 ) ) ;
#1046 = CIRCLE ( 'NONE', #634, 22.50000000000000355 ) ;
#1047 = DIRECTION ( 'NONE',  ( 0.000000000000000000, 0.000000000000000000, -1.000000000000000000 ) ) ;
#1048 = ORIENTED_EDGE ( 'NONE', *, *, #926, .F. ) ;
#1049 = ORIENTED_EDGE ( 'NONE', *, *, #496, .F. ) ;
#1050 = EDGE_CURVE ( 'NONE', #1043, #874, #654, .T. ) ;
#1051 = DIRECTION ( 'NONE',  ( 1.000000000000000000, 0.000000000000000000, 0.000000000000000000 ) ) ;
#1052 = CARTESIAN_POINT ( 'NONE',  ( -5.500000000000000000, 0.000000000000000000, 0.000000000000000000 ) ) ;
#1053 = CARTESIAN_POINT ( 'NONE',  ( 2.550237242195675158, 1.000139094214896662, -12.49999999999999822 ) ) ;
#1054 = EDGE_LOOP ( 'NONE', ( #82, #602, #708, #545 ) ) ;
#1055 = CARTESIAN_POINT ( 'NONE',  ( 0.000000000000000000, 0.000000000000000000, 0.000000000000000000 ) ) ;
#1056 = CARTESIAN_POINT ( 'NONE',  ( -7.038834764831830348, 8.838834764831858593, 2.500000000000000000 ) ) ;
#1057 = VECTOR ( 'NONE', #11, 1000.000000000000000 ) ;
#1058 = CYLINDRICAL_SURFACE ( 'NONE', #684, 0.5000000000000004441 ) ;
#1059 = ORIENTED_EDGE ( 'NONE', *, *, #448, .F. ) ;
#1060 = FACE_OUTER_BOUND ( 'NONE', #107, .T. ) ;
#1061 = DIRECTION ( 'NONE',  ( -0.000000000000000000, -0.000000000000000000, 1.000000000000000000 ) ) ;
#1062 = CIRCLE ( 'NONE', #743, 5.500000000000000000 ) ;
#1063 = DIRECTION ( 'NONE',  ( -0.000000000000000000, -0.000000000000000000, 1.000000000000000000 ) ) ;
#1064 = EDGE_CURVE ( 'NONE', #925, #248, #781, .T. ) ;
#1065 = EDGE_LOOP ( 'NONE', ( #389, #211, #787, #966 ) ) ;
#1066 = CARTESIAN_POINT ( 'NONE',  ( 3.050237242195675158, 1.000139094214896662, -13.00000000000000000 ) ) ;
#1067 = CYLINDRICAL_SURFACE ( 'NONE', #252, 22.50000000000000355 ) ;
#1068 = DIRECTION ( 'NONE',  ( 1.000000000000000000, 0.000000000000000000, 0.000000000000000000 ) ) ;
#1069 = ORIENTED_EDGE ( 'NONE', *, *, #984, .F. ) ;
#1070 = ADVANCED_FACE ( 'NONE', ( #904 ), #1071, .F. ) ;
#1071 = CYLINDRICAL_SURFACE ( 'NONE', #353, 1.799999999999999600 ) ;
#1072 = LOCAL_TIME ( 11, 19, 41.00000000000000000, #192 ) ;
#1073 = CARTESIAN_POINT ( 'NONE',  ( -8.838834764831949187, -8.838834764831739577, 2.500000000000000000 ) ) ;
#1074 = VECTOR ( 'NONE', #499, 1000.000000000000000 ) ;
#1075 = AXIS2_PLACEMENT_3D ( 'NONE', #850, #429, #940 ) ;
#1076 = CARTESIAN_POINT ( 'NONE',  ( 8.838834764831767998, -8.838834764831920765, -3.500000000000000000 ) ) ;
#1077 = ORIENTED_EDGE ( 'NONE', *, *, #433, .T. ) ;
#1078 = CARTESIAN_POINT ( 'NONE',  ( -8.838834764831949187, -8.838834764831739577, 2.500000000000000000 ) ) ;
#1079 = ORIENTED_EDGE ( 'NONE', *, *, #397, .F. ) ;
#1080 = DIRECTION ( 'NONE',  ( 0.000000000000000000, 0.000000000000000000, -1.000000000000000000 ) ) ;
#1081 = LINE ( 'NONE', #162, #628 ) ;
#1082 = VERTEX_POINT ( 'NONE', #108 ) ;
#1083 = PERSON_AND_ORGANIZATION ( #121, #832 ) ;
#1084 = FACE_OUTER_BOUND ( 'NONE', #55, .T. ) ;
#1085 = EDGE_CURVE ( 'NONE', #141, #975, #441, .T. ) ;
#1086 = CARTESIAN_POINT ( 'NONE',  ( -8.838834764831830171, 8.838834764831858593, 2.500000000000000000 ) ) ;
#1087 = VERTEX_POINT ( 'NONE', #245 ) ;
#1088 = APPROVAL_ROLE ( '' ) ;
#1089 = DIRECTION ( 'NONE',  ( -1.000000000000000000, 0.000000000000000000, 0.000000000000000000 ) ) ;
ENDSEC;
END-ISO-10303-21;
