ISO-10303-21;
HEADER;
FILE_DESCRIPTION (( 'STEP AP203' ),
    '1' );
FILE_NAME ('¶¥¸Ç.STEP',
    '2026-08-28T03:17:11',
    ( '' ),
    ( '' ),
    'SwSTEP 2.0',
    'SolidWorks 2026',
    '' );
FILE_SCHEMA (( 'CONFIG_CONTROL_DESIGN' ));
ENDSEC;

DATA;
#1 = CARTESIAN_POINT ( 'NONE',  ( 0.000000000000000000, 0.000000000000000000, 0.000000000000000000 ) ) ;
#2 = EDGE_LOOP ( 'NONE', ( #1127, #987 ) ) ;
#3 = CARTESIAN_POINT ( 'NONE',  ( -2.706168622523819067E-13, -28.50000000000001066, 5.000000000000000000 ) ) ;
#4 = DIRECTION ( 'NONE',  ( -1.000000000000000000, 0.000000000000000000, -0.000000000000000000 ) ) ;
#5 = EDGE_LOOP ( 'NONE', ( #291, #612 ) ) ;
#6 = COORDINATED_UNIVERSAL_TIME_OFFSET ( 8, 0, .AHEAD. ) ;
#7 = AXIS2_PLACEMENT_3D ( 'NONE', #589, #771, #878 ) ;
#8 = ORIENTED_EDGE ( 'NONE', *, *, #847, .T. ) ;
#9 = APPROVAL_PERSON_ORGANIZATION ( #575, #177, #962 ) ;
#10 = CARTESIAN_POINT ( 'NONE',  ( 32.00000000000000000, 3.918869757271530263E-15, 2.000000000000000000 ) ) ;
#11 = CYLINDRICAL_SURFACE ( 'NONE', #76, 1.799999999999999600 ) ;
#12 = CARTESIAN_POINT ( 'NONE',  ( -21.83172400787096379, -14.25000000000428635, 0.000000000000000000 ) ) ;
#13 = CIRCLE ( 'NONE', #949, 1.800000000000000933 ) ;
#14 = EDGE_CURVE ( 'NONE', #82, #1107, #985, .T. ) ;
#15 = ORIENTED_EDGE ( 'NONE', *, *, #491, .T. ) ;
#16 = DIRECTION ( 'NONE',  ( 1.000000000000000000, 0.000000000000000000, 0.000000000000000000 ) ) ;
#17 = LINE ( 'NONE', #99, #1247 ) ;
#18 = CARTESIAN_POINT ( 'NONE',  ( -26.48172400785649927, -14.25000000000001243, 3.000000000000000000 ) ) ;
#19 = SHAPE_DEFINITION_REPRESENTATION ( #653, #1136 ) ;
#20 = EDGE_CURVE ( 'NONE', #374, #571, #382, .T. ) ;
#21 = EDGE_LOOP ( 'NONE', ( #170, #275, #1073, #981 ) ) ;
#22 = CARTESIAN_POINT ( 'NONE',  ( -2.850000000019127455, 28.50000000000838085, 3.000000000000000000 ) ) ;
#23 = CARTESIAN_POINT ( 'NONE',  ( -1.601988228706893096E-11, 28.50000000000838085, 0.000000000000000000 ) ) ;
#24 = EDGE_LOOP ( 'NONE', ( #937, #1232, #1033, #602 ) ) ;
#25 = EDGE_LOOP ( 'NONE', ( #355, #512, #363, #855 ) ) ;
#26 = CARTESIAN_POINT ( 'NONE',  ( -27.53172400787599727, -14.25000000000428635, 3.000000000000000000 ) ) ;
#27 = CIRCLE ( 'NONE', #781, 1.799999999999999600 ) ;
#28 = ORGANIZATION ( 'æœª', 'æœª', '' ) ;
#29 = CARTESIAN_POINT ( 'NONE',  ( 24.68172400785097764, -14.24999999999877964, 3.000000000000000000 ) ) ;
#30 = EDGE_CURVE ( 'NONE', #1068, #329, #237, .T. ) ;
#31 = DIRECTION ( 'NONE',  ( 1.000000000000000000, 0.000000000000000000, 0.000000000000000000 ) ) ;
#32 = CIRCLE ( 'NONE', #786, 2.849999999996920774 ) ;
#33 = AXIS2_PLACEMENT_3D ( 'NONE', #163, #62, #470 ) ;
#34 = CIRCLE ( 'NONE', #138, 2.849999999994391686 ) ;
#35 = VERTEX_POINT ( 'NONE', #956 ) ;
#36 = DIRECTION ( 'NONE',  ( 0.000000000000000000, 0.000000000000000000, 1.000000000000000000 ) ) ;
#37 = DIRECTION ( 'NONE',  ( -0.000000000000000000, -0.000000000000000000, -1.000000000000000000 ) ) ;
#38 = ADVANCED_FACE ( 'NONE', ( #80 ), #687, .F. ) ;
#39 = CARTESIAN_POINT ( 'NONE',  ( 24.68172400785650566, -14.24999999999999467, 0.000000000000000000 ) ) ;
#40 = EDGE_LOOP ( 'NONE', ( #128, #1002, #1132, #814 ) ) ;
#41 = DIRECTION ( 'NONE',  ( -1.000000000000000000, 0.000000000000000000, 0.000000000000000000 ) ) ;
#42 = DIRECTION ( 'NONE',  ( -0.000000000000000000, -0.000000000000000000, -1.000000000000000000 ) ) ;
#43 = FACE_BOUND ( 'NONE', #344, .T. ) ;
#44 = ORIENTED_EDGE ( 'NONE', *, *, #611, .T. ) ;
#45 = DIRECTION ( 'NONE',  ( -0.000000000000000000, -0.000000000000000000, 1.000000000000000000 ) ) ;
#46 = AXIS2_PLACEMENT_3D ( 'NONE', #3, #577, #103 ) ;
#47 = DIRECTION ( 'NONE',  ( -0.000000000000000000, -0.000000000000000000, -1.000000000000000000 ) ) ;
#48 = CIRCLE ( 'NONE', #278, 25.00000000000000000 ) ;
#49 = CARTESIAN_POINT ( 'NONE',  ( 0.000000000000000000, 0.000000000000000000, 6.000000000000000000 ) ) ;
#50 = EDGE_CURVE ( 'NONE', #588, #452, #73, .T. ) ;
#51 = VERTEX_POINT ( 'NONE', #12 ) ;
#52 = DIRECTION ( 'NONE',  ( 0.000000000000000000, 0.000000000000000000, -1.000000000000000000 ) ) ;
#53 = VECTOR ( 'NONE', #796, 1000.000000000000000 ) ;
#54 = ORIENTED_EDGE ( 'NONE', *, *, #856, .T. ) ;
#55 = CARTESIAN_POINT ( 'NONE',  ( 0.000000000000000000, 28.50000000000000000, 3.000000000000000000 ) ) ;
#56 = PLANE ( 'NONE',  #744 ) ;
#57 = VERTEX_POINT ( 'NONE', #1236 ) ;
#58 = CYLINDRICAL_SURFACE ( 'NONE', #337, 1.799999999999999822 ) ;
#59 = EDGE_CURVE ( 'NONE', #794, #102, #180, .T. ) ;
#60 = VERTEX_POINT ( 'NONE', #797 ) ;
#61 = DIRECTION ( 'NONE',  ( 1.000000000000000000, 0.000000000000000000, 0.000000000000000000 ) ) ;
#62 = DIRECTION ( 'NONE',  ( -0.000000000000000000, -0.000000000000000000, 1.000000000000000000 ) ) ;
#63 = ORIENTED_EDGE ( 'NONE', *, *, #543, .T. ) ;
#64 = DIRECTION ( 'NONE',  ( 0.000000000000000000, 0.000000000000000000, 1.000000000000000000 ) ) ;
#65 = EDGE_LOOP ( 'NONE', ( #623, #409, #1169, #1230 ) ) ;
#66 = DIRECTION ( 'NONE',  ( -0.000000000000000000, -0.000000000000000000, -1.000000000000000000 ) ) ;
#67 = EDGE_CURVE ( 'NONE', #82, #35, #32, .T. ) ;
#68 = FACE_BOUND ( 'NONE', #273, .T. ) ;
#69 = AXIS2_PLACEMENT_3D ( 'NONE', #1197, #319, #897 ) ;
#70 = VECTOR ( 'NONE', #1106, 1000.000000000000000 ) ;
#71 = EDGE_LOOP ( 'NONE', ( #1208, #501 ) ) ;
#72 = FACE_OUTER_BOUND ( 'NONE', #996, .T. ) ;
#73 = CIRCLE ( 'NONE', #724, 1.799999999999999822 ) ;
#74 = VERTEX_POINT ( 'NONE', #18 ) ;
#75 = CARTESIAN_POINT ( 'NONE',  ( 2.849999999987088195, 28.50000000000838085, 0.000000000000000000 ) ) ;
#76 = AXIS2_PLACEMENT_3D ( 'NONE', #293, #782, #204 ) ;
#77 = CARTESIAN_POINT ( 'NONE',  ( 24.68172400784779796, 14.25000000000782840, 0.000000000000000000 ) ) ;
#78 = MANIFOLD_SOLID_BREP ( '\X2\52079664\X0\-\X2\62c94f38\X0\3', #1245 ) ;
#79 = EDGE_CURVE ( 'NONE', #325, #143, #361, .T. ) ;
#80 = FACE_OUTER_BOUND ( 'NONE', #428, .T. ) ;
#81 = CYLINDRICAL_SURFACE ( 'NONE', #1220, 2.850000000002517186 ) ;
#82 = VERTEX_POINT ( 'NONE', #1140 ) ;
#83 = FACE_BOUND ( 'NONE', #5, .T. ) ;
#84 = DIRECTION ( 'NONE',  ( -1.000000000000000000, 0.000000000000000000, 0.000000000000000000 ) ) ;
#85 = EDGE_CURVE ( 'NONE', #160, #651, #134, .T. ) ;
#86 = DIRECTION ( 'NONE',  ( 1.000000000000000000, 0.000000000000000000, 0.000000000000000000 ) ) ;
#87 = VERTEX_POINT ( 'NONE', #1187 ) ;
#88 = DIRECTION ( 'NONE',  ( 1.000000000000000000, 0.000000000000000000, 0.000000000000000000 ) ) ;
#89 = CARTESIAN_POINT ( 'NONE',  ( -24.68172400785650211, 14.25000000000000533, 3.000000000000000000 ) ) ;
#90 = PERSON_AND_ORGANIZATION_ROLE ( 'design_owner' ) ;
#91 = ADVANCED_FACE ( 'NONE', ( #451 ), #1104, .F. ) ;
#92 = VERTEX_POINT ( 'NONE', #1090 ) ;
#93 = CARTESIAN_POINT ( 'NONE',  ( 26.48172400785650638, -14.24999999999999467, 0.000000000000000000 ) ) ;
#94 = CARTESIAN_POINT ( 'NONE',  ( -1.799999999999996270, -28.50000000000000000, 3.000000000000000000 ) ) ;
#95 = CIRCLE ( 'NONE', #7, 1.799999999999999600 ) ;
#96 = PERSON_AND_ORGANIZATION ( #1194, #28 ) ;
#97 = ORIENTED_EDGE ( 'NONE', *, *, #506, .F. ) ;
#98 = DIRECTION ( 'NONE',  ( -0.000000000000000000, -0.000000000000000000, 1.000000000000000000 ) ) ;
#99 = CARTESIAN_POINT ( 'NONE',  ( -22.88172400785650140, 14.25000000000000533, 0.000000000000000000 ) ) ;
#100 = DIRECTION ( 'NONE',  ( 1.000000000000000000, 0.000000000000000000, 0.000000000000000000 ) ) ;
#101 = APPROVAL_STATUS ( 'not_yet_approved' ) ;
#102 = VERTEX_POINT ( 'NONE', #1085 ) ;
#103 = DIRECTION ( 'NONE',  ( 1.000000000000000000, 0.000000000000000000, 0.000000000000000000 ) ) ;
#104 = DIRECTION ( 'NONE',  ( 1.000000000000000000, 0.000000000000000000, 0.000000000000000000 ) ) ;
#105 = EDGE_CURVE ( 'NONE', #117, #761, #702, .T. ) ;
#106 = CARTESIAN_POINT ( 'NONE',  ( 3.469446951953614189E-15, -28.50000000000000000, 3.000000000000000000 ) ) ;
#107 = PERSON_AND_ORGANIZATION ( #1194, #28 ) ;
#108 = AXIS2_PLACEMENT_3D ( 'NONE', #1244, #288, #790 ) ;
#109 = VERTEX_POINT ( 'NONE', #1207 ) ;
#110 = CIRCLE ( 'NONE', #1097, 1.799999999999999600 ) ;
#111 = DIRECTION ( 'NONE',  ( 0.000000000000000000, 0.000000000000000000, 1.000000000000000000 ) ) ;
#112 = LINE ( 'NONE', #680, #806 ) ;
#113 = CIRCLE ( 'NONE', #259, 1.799999999999999822 ) ;
#114 = ORIENTED_EDGE ( 'NONE', *, *, #785, .F. ) ;
#115 = EDGE_CURVE ( 'NONE', #191, #593, #542, .T. ) ;
#116 = AXIS2_PLACEMENT_3D ( 'NONE', #816, #1198, #723 ) ;
#117 = VERTEX_POINT ( 'NONE', #627 ) ;
#118 = DIRECTION ( 'NONE',  ( -1.000000000000000000, 0.000000000000000000, 0.000000000000000000 ) ) ;
#119 = VERTEX_POINT ( 'NONE', #523 ) ;
#120 = DIRECTION ( 'NONE',  ( 1.000000000000000000, 0.000000000000000000, 0.000000000000000000 ) ) ;
#121 = DIRECTION ( 'NONE',  ( -1.000000000000000000, 0.000000000000000000, 0.000000000000000000 ) ) ;
#122 = ADVANCED_FACE ( 'NONE', ( #615 ), #529, .F. ) ;
#123 = EDGE_LOOP ( 'NONE', ( #466, #964, #412, #843 ) ) ;
#124 = LINE ( 'NONE', #988, #294 ) ;
#125 = LINE ( 'NONE', #998, #909 ) ;
#126 = DIRECTION ( 'NONE',  ( 1.000000000000000000, 0.000000000000000000, 0.000000000000000000 ) ) ;
#127 = DATE_AND_TIME ( #381, #765 ) ;
#128 = ORIENTED_EDGE ( 'NONE', *, *, #1204, .F. ) ;
#129 = DIRECTION ( 'NONE',  ( 0.000000000000000000, 0.000000000000000000, 1.000000000000000000 ) ) ;
#130 = AXIS2_PLACEMENT_3D ( 'NONE', #390, #776, #298 ) ;
#131 = EDGE_CURVE ( 'NONE', #452, #588, #113, .T. ) ;
#132 = AXIS2_PLACEMENT_3D ( 'NONE', #354, #1222, #179 ) ;
#133 = DIRECTION ( 'NONE',  ( 0.000000000000000000, 0.000000000000000000, -1.000000000000000000 ) ) ;
#134 = LINE ( 'NONE', #1013, #1059 ) ;
#135 = CC_DESIGN_DATE_AND_TIME_ASSIGNMENT ( #882, #388, ( #701 ) ) ;
#136 = AXIS2_PLACEMENT_3D ( 'NONE', #931, #1200, #333 ) ;
#137 = CIRCLE ( 'NONE', #1164, 1.799999999999999600 ) ;
#138 = AXIS2_PLACEMENT_3D ( 'NONE', #1036, #763, #743 ) ;
#139 = ORIENTED_EDGE ( 'NONE', *, *, #1144, .F. ) ;
#140 = CARTESIAN_POINT ( 'NONE',  ( -25.00000000000000000, 0.000000000000000000, 2.000000000000000000 ) ) ;
#141 = DIRECTION ( 'NONE',  ( -1.000000000000000000, 0.000000000000000000, 0.000000000000000000 ) ) ;
#142 = DIRECTION ( 'NONE',  ( 0.000000000000000000, 0.000000000000000000, -1.000000000000000000 ) ) ;
#143 = VERTEX_POINT ( 'NONE', #323 ) ;
#144 = FACE_OUTER_BOUND ( 'NONE', #205, .T. ) ;
#145 = ORIENTED_EDGE ( 'NONE', *, *, #819, .F. ) ;
#146 = DIRECTION ( 'NONE',  ( 1.000000000000000000, 0.000000000000000000, 0.000000000000000000 ) ) ;
#147 = DIRECTION ( 'NONE',  ( -0.000000000000000000, -0.000000000000000000, 1.000000000000000000 ) ) ;
#148 = ADVANCED_FACE ( 'NONE', ( #533 ), #921, .F. ) ;
#149 = ORIENTED_EDGE ( 'NONE', *, *, #829, .T. ) ;
#150 = DIRECTION ( 'NONE',  ( 0.000000000000000000, 0.000000000000000000, -1.000000000000000000 ) ) ;
#151 = ORIENTED_EDGE ( 'NONE', *, *, #1091, .T. ) ;
#152 = CIRCLE ( 'NONE', #1199, 2.849999999996920774 ) ;
#153 = FACE_OUTER_BOUND ( 'NONE', #722, .T. ) ;
#154 = CIRCLE ( 'NONE', #1001, 1.799999999999999600 ) ;
#155 = DIRECTION ( 'NONE',  ( -0.000000000000000000, -0.000000000000000000, -1.000000000000000000 ) ) ;
#156 = ADVANCED_FACE ( 'NONE', ( #443, #826 ), #56, .T. ) ;
#157 = CIRCLE ( 'NONE', #1121, 1.799999999999999600 ) ;
#158 = ORIENTED_EDGE ( 'NONE', *, *, #184, .T. ) ;
#159 = DIRECTION ( 'NONE',  ( 0.000000000000000000, 0.000000000000000000, 1.000000000000000000 ) ) ;
#160 = VERTEX_POINT ( 'NONE', #916 ) ;
#161 = CC_DESIGN_PERSON_AND_ORGANIZATION_ASSIGNMENT ( #787, #1165, ( #762 ) ) ;
#162 = DIRECTION ( 'NONE',  ( -1.000000000000000000, 0.000000000000000000, 0.000000000000000000 ) ) ;
#163 = CARTESIAN_POINT ( 'NONE',  ( 24.68172400785650566, -14.24999999999999467, 0.000000000000000000 ) ) ;
#164 = ORIENTED_EDGE ( 'NONE', *, *, #582, .T. ) ;
#165 = CARTESIAN_POINT ( 'NONE',  ( 0.000000000000000000, 0.000000000000000000, 5.000000000000000000 ) ) ;
#166 = EDGE_CURVE ( 'NONE', #51, #493, #1080, .T. ) ;
#167 = EDGE_LOOP ( 'NONE', ( #830, #1221, #667, #1175 ) ) ;
#168 = LINE ( 'NONE', #646, #324 ) ;
#169 = DIRECTION ( 'NONE',  ( -0.000000000000000000, -0.000000000000000000, -1.000000000000000000 ) ) ;
#170 = ORIENTED_EDGE ( 'NONE', *, *, #772, .F. ) ;
#171 = CARTESIAN_POINT ( 'NONE',  ( -1.800000000000270717, -28.50000000000000000, 5.000000000000000000 ) ) ;
#172 = EDGE_LOOP ( 'NONE', ( #281, #944, #565, #820 ) ) ;
#173 = DIRECTION ( 'NONE',  ( 0.000000000000000000, 0.000000000000000000, -1.000000000000000000 ) ) ;
#174 = ADVANCED_FACE ( 'NONE', ( #328, #515, #610, #346, #817, #732, #43, #1110 ), #436, .T. ) ;
#175 = CARTESIAN_POINT ( 'NONE',  ( -24.68172400785649856, -14.25000000000001243, 0.000000000000000000 ) ) ;
#176 = CIRCLE ( 'NONE', #862, 1.799999999999999600 ) ;
#177 = APPROVAL ( #101, 'æœª' ) ;
#178 = DIRECTION ( 'NONE',  ( -0.000000000000000000, -0.000000000000000000, -1.000000000000000000 ) ) ;
#179 = DIRECTION ( 'NONE',  ( 1.000000000000000000, 0.000000000000000000, 0.000000000000000000 ) ) ;
#180 = CIRCLE ( 'NONE', #681, 2.849999999994391686 ) ;
#181 = ORIENTED_EDGE ( 'NONE', *, *, #528, .F. ) ;
#182 = DIRECTION ( 'NONE',  ( -0.000000000000000000, -0.000000000000000000, 1.000000000000000000 ) ) ;
#183 = DIRECTION ( 'NONE',  ( 1.000000000000000000, 0.000000000000000000, 0.000000000000000000 ) ) ;
#184 = EDGE_CURVE ( 'NONE', #735, #57, #157, .T. ) ;
#185 = CARTESIAN_POINT ( 'NONE',  ( 6.938893903907228378E-14, 28.50000000000000711, 5.000000000000000000 ) ) ;
#186 = CALENDAR_DATE ( 2026, 28, 8 ) ;
#187 = ORIENTED_EDGE ( 'NONE', *, *, #221, .T. ) ;
#188 = LINE ( 'NONE', #1167, #233 ) ;
#189 = CYLINDRICAL_SURFACE ( 'NONE', #825, 2.849999999994391686 ) ;
#190 = EDGE_CURVE ( 'NONE', #1214, #729, #867, .T. ) ;
#191 = VERTEX_POINT ( 'NONE', #717 ) ;
#192 = FACE_OUTER_BOUND ( 'NONE', #822, .T. ) ;
#193 = APPROVAL ( #393, 'æœª' ) ;
#194 = CARTESIAN_POINT ( 'NONE',  ( -27.53172400788227492, 14.25000000000231815, 3.000000000000000000 ) ) ;
#195 =( LENGTH_UNIT ( ) NAMED_UNIT ( * ) SI_UNIT ( .MILLI., .METRE. ) );
#196 = EDGE_LOOP ( 'NONE', ( #1094, #8 ) ) ;
#197 = DIRECTION ( 'NONE',  ( 0.000000000000000000, 0.000000000000000000, -1.000000000000000000 ) ) ;
#198 = AXIS2_PLACEMENT_3D ( 'NONE', #224, #609, #1179 ) ;
#199 = CARTESIAN_POINT ( 'NONE',  ( -21.83172400787103840, 14.25000000000231815, 3.000000000000000000 ) ) ;
#200 = AXIS2_PLACEMENT_3D ( 'NONE', #242, #1206, #730 ) ;
#201 = ORIENTED_EDGE ( 'NONE', *, *, #863, .T. ) ;
#202 = DIRECTION ( 'NONE',  ( 0.000000000000000000, 0.000000000000000000, -1.000000000000000000 ) ) ;
#203 = EDGE_CURVE ( 'NONE', #754, #549, #580, .T. ) ;
#204 = DIRECTION ( 'NONE',  ( 1.000000000000000000, 0.000000000000000000, 0.000000000000000000 ) ) ;
#205 = EDGE_LOOP ( 'NONE', ( #1082, #658, #478, #742 ) ) ;
#206 = PERSON_AND_ORGANIZATION ( #1194, #28 ) ;
#207 = ORIENTED_EDGE ( 'NONE', *, *, #1134, .T. ) ;
#208 = DIRECTION ( 'NONE',  ( 0.000000000000000000, 0.000000000000000000, -1.000000000000000000 ) ) ;
#209 = ADVANCED_FACE ( 'NONE', ( #1037, #1145 ), #277, .T. ) ;
#210 = CYLINDRICAL_SURFACE ( 'NONE', #1146, 23.99999999999999645 ) ;
#211 = DIRECTION ( 'NONE',  ( 0.000000000000000000, 0.000000000000000000, 1.000000000000000000 ) ) ;
#212 = CC_DESIGN_DATE_AND_TIME_ASSIGNMENT ( #581, #861, ( #762 ) ) ;
#213 = AXIS2_PLACEMENT_3D ( 'NONE', #1176, #618, #41 ) ;
#214 = ORIENTED_EDGE ( 'NONE', *, *, #1078, .F. ) ;
#215 = CARTESIAN_POINT ( 'NONE',  ( 0.000000000000000000, 0.000000000000000000, 2.000000000000000000 ) ) ;
#216 = ORIENTED_EDGE ( 'NONE', *, *, #1007, .T. ) ;
#217 = CARTESIAN_POINT ( 'NONE',  ( -27.53172400788227492, 14.25000000000231815, 3.000000000000000000 ) ) ;
#218 = AXIS2_PLACEMENT_3D ( 'NONE', #990, #1066, #665 ) ;
#219 = DIRECTION ( 'NONE',  ( -1.000000000000000000, 0.000000000000000000, 0.000000000000000000 ) ) ;
#220 = AXIS2_PLACEMENT_3D ( 'NONE', #327, #1084, #532 ) ;
#221 = EDGE_CURVE ( 'NONE', #306, #927, #766, .T. ) ;
#222 = EDGE_LOOP ( 'NONE', ( #1170, #703 ) ) ;
#223 = DIRECTION ( 'NONE',  ( 1.000000000000000000, 0.000000000000000000, 0.000000000000000000 ) ) ;
#224 = CARTESIAN_POINT ( 'NONE',  ( 24.68172400785658382, 14.24999999999988454, 5.000000000000000000 ) ) ;
#225 = DIRECTION ( 'NONE',  ( -1.000000000000000000, 0.000000000000000000, 0.000000000000000000 ) ) ;
#226 = EDGE_CURVE ( 'NONE', #672, #934, #669, .T. ) ;
#227 = EDGE_LOOP ( 'NONE', ( #331, #656 ) ) ;
#228 = CARTESIAN_POINT ( 'NONE',  ( 27.53172400784536222, -14.24999999999877964, 3.000000000000000000 ) ) ;
#229 = CYLINDRICAL_SURFACE ( 'NONE', #1045, 1.799999999999999822 ) ;
#230 = CARTESIAN_POINT ( 'NONE',  ( -9.654613238654835866E-12, -28.50000000000484945, 3.000000000000000000 ) ) ;
#231 = ORIENTED_EDGE ( 'NONE', *, *, #708, .T. ) ;
#232 = DIRECTION ( 'NONE',  ( -0.000000000000000000, -0.000000000000000000, -1.000000000000000000 ) ) ;
#233 = VECTOR ( 'NONE', #479, 1000.000000000000000 ) ;
#234 = ORIENTED_EDGE ( 'NONE', *, *, #626, .F. ) ;
#235 = FACE_OUTER_BOUND ( 'NONE', #1111, .T. ) ;
#236 = DIRECTION ( 'NONE',  ( 0.000000000000000000, 0.000000000000000000, -1.000000000000000000 ) ) ;
#237 = CIRCLE ( 'NONE', #1098, 1.800000000000000933 ) ;
#238 = CIRCLE ( 'NONE', #1182, 2.849999999994384581 ) ;
#239 = VERTEX_POINT ( 'NONE', #1213 ) ;
#240 = CARTESIAN_POINT ( 'NONE',  ( 25.00000000000000000, 3.061616997868383043E-15, 2.000000000000000000 ) ) ;
#241 = ORIENTED_EDGE ( 'NONE', *, *, #1235, .T. ) ;
#242 = CARTESIAN_POINT ( 'NONE',  ( 0.000000000000000000, 0.000000000000000000, 0.000000000000000000 ) ) ;
#243 = EDGE_CURVE ( 'NONE', #628, #1072, #299, .T. ) ;
#244 = DIRECTION ( 'NONE',  ( -1.000000000000000000, 0.000000000000000000, 0.000000000000000000 ) ) ;
#245 = ORIENTED_EDGE ( 'NONE', *, *, #888, .T. ) ;
#246 = DIRECTION ( 'NONE',  ( -1.000000000000000000, 0.000000000000000000, 0.000000000000000000 ) ) ;
#247 = ORIENTED_EDGE ( 'NONE', *, *, #203, .F. ) ;
#248 = DIRECTION ( 'NONE',  ( -0.000000000000000000, -0.000000000000000000, 1.000000000000000000 ) ) ;
#249 = ADVANCED_FACE ( 'NONE', ( #1239 ), #189, .F. ) ;
#250 = DIRECTION ( 'NONE',  ( 1.000000000000000000, 0.000000000000000000, -0.000000000000000000 ) ) ;
#251 = EDGE_LOOP ( 'NONE', ( #158, #546 ) ) ;
#252 = CARTESIAN_POINT ( 'NONE',  ( -2.850000000006575718, -28.50000000000484945, 0.000000000000000000 ) ) ;
#253 = ORIENTED_EDGE ( 'NONE', *, *, #606, .F. ) ;
#254 = AXIS2_PLACEMENT_3D ( 'NONE', #502, #1057, #16 ) ;
#255 = FACE_BOUND ( 'NONE', #699, .T. ) ;
#256 = LOCAL_TIME ( 11, 17, 11.00000000000000000, #6 ) ;
#257 = CARTESIAN_POINT ( 'NONE',  ( 21.83172400785659306, -14.24999999999877964, 3.000000000000000000 ) ) ;
#258 = EDGE_CURVE ( 'NONE', #493, #51, #464, .T. ) ;
#259 = AXIS2_PLACEMENT_3D ( 'NONE', #712, #541, #809 ) ;
#260 = CIRCLE ( 'NONE', #583, 1.799999999999999600 ) ;
#261 = ORIENTED_EDGE ( 'NONE', *, *, #295, .F. ) ;
#262 = CARTESIAN_POINT ( 'NONE',  ( 0.000000000000000000, 0.000000000000000000, 2.000000000000000000 ) ) ;
#263 = CIRCLE ( 'NONE', #302, 1.799999999999999600 ) ;
#264 = ORIENTED_EDGE ( 'NONE', *, *, #360, .T. ) ;
#265 = DIRECTION ( 'NONE',  ( -1.000000000000000000, 0.000000000000000000, 0.000000000000000000 ) ) ;
#266 = DIRECTION ( 'NONE',  ( -0.000000000000000000, -0.000000000000000000, -1.000000000000000000 ) ) ;
#267 = EDGE_CURVE ( 'NONE', #347, #510, #1138, .T. ) ;
#268 = EDGE_LOOP ( 'NONE', ( #872, #245 ) ) ;
#269 = DIRECTION ( 'NONE',  ( -1.000000000000000000, 0.000000000000000000, 0.000000000000000000 ) ) ;
#270 = VERTEX_POINT ( 'NONE', #359 ) ;
#271 = CARTESIAN_POINT ( 'NONE',  ( 22.88172400785650495, -14.24999999999999467, 0.000000000000000000 ) ) ;
#272 = DIRECTION ( 'NONE',  ( -0.000000000000000000, -0.000000000000000000, -1.000000000000000000 ) ) ;
#273 = EDGE_LOOP ( 'NONE', ( #297, #414 ) ) ;
#274 = DIRECTION ( 'NONE',  ( 1.000000000000000000, 0.000000000000000000, -0.000000000000000000 ) ) ;
#275 = ORIENTED_EDGE ( 'NONE', *, *, #737, .T. ) ;
#276 = FACE_OUTER_BOUND ( 'NONE', #454, .T. ) ;
#277 = PLANE ( 'NONE',  #845 ) ;
#278 = AXIS2_PLACEMENT_3D ( 'NONE', #335, #36, #223 ) ;
#279 = ORIENTED_EDGE ( 'NONE', *, *, #568, .F. ) ;
#280 = DIRECTION ( 'NONE',  ( 0.000000000000000000, 0.000000000000000000, 1.000000000000000000 ) ) ;
#281 = ORIENTED_EDGE ( 'NONE', *, *, #448, .F. ) ;
#282 = DIRECTION ( 'NONE',  ( 1.000000000000000000, 0.000000000000000000, -0.000000000000000000 ) ) ;
#283 = AXIS2_PLACEMENT_3D ( 'NONE', #758, #1228, #379 ) ;
#284 = EDGE_CURVE ( 'NONE', #119, #544, #465, .T. ) ;
#285 = DIRECTION ( 'NONE',  ( 0.000000000000000000, 0.000000000000000000, -1.000000000000000000 ) ) ;
#286 = MECHANICAL_CONTEXT ( 'NONE', #871, 'mechanical' ) ;
#287 = EDGE_LOOP ( 'NONE', ( #899, #389 ) ) ;
#288 = DIRECTION ( 'NONE',  ( 0.000000000000000000, 0.000000000000000000, 1.000000000000000000 ) ) ;
#289 = DIRECTION ( 'NONE',  ( -0.000000000000000000, -0.000000000000000000, -1.000000000000000000 ) ) ;
#290 = ADVANCED_FACE ( 'NONE', ( #1115, #68 ), #573, .T. ) ;
#291 = ORIENTED_EDGE ( 'NONE', *, *, #258, .F. ) ;
#292 = DIRECTION ( 'NONE',  ( -0.000000000000000000, -0.000000000000000000, 1.000000000000000000 ) ) ;
#293 = CARTESIAN_POINT ( 'NONE',  ( -24.68172400785649856, -14.25000000000001243, 0.000000000000000000 ) ) ;
#294 = VECTOR ( 'NONE', #508, 1000.000000000000000 ) ;
#295 = EDGE_CURVE ( 'NONE', #775, #784, #725, .T. ) ;
#296 = DATE_AND_TIME ( #186, #256 ) ;
#297 = ORIENTED_EDGE ( 'NONE', *, *, #190, .T. ) ;
#298 = DIRECTION ( 'NONE',  ( -1.000000000000000000, 0.000000000000000000, 0.000000000000000000 ) ) ;
#299 = CIRCLE ( 'NONE', #601, 2.850000000003107825 ) ;
#300 = AXIS2_PLACEMENT_3D ( 'NONE', #77, #1049, #352 ) ;
#301 = CARTESIAN_POINT ( 'NONE',  ( 1.799999999999999600, 28.50000000000000000, 0.000000000000000000 ) ) ;
#302 = AXIS2_PLACEMENT_3D ( 'NONE', #55, #377, #265 ) ;
#303 = CARTESIAN_POINT ( 'NONE',  ( 24.68172400785658382, 14.24999999999988454, 5.000000000000000000 ) ) ;
#304 = CALENDAR_DATE ( 2026, 28, 8 ) ;
#305 = ADVANCED_FACE ( 'NONE', ( #1126 ), #1234, .F. ) ;
#306 = VERTEX_POINT ( 'NONE', #257 ) ;
#307 = LINE ( 'NONE', #873, #698 ) ;
#308 = CARTESIAN_POINT ( 'NONE',  ( 0.000000000000000000, 0.000000000000000000, 2.000000000000000000 ) ) ;
#309 = CC_DESIGN_PERSON_AND_ORGANIZATION_ASSIGNMENT ( #107, #870, ( #701 ) ) ;
#310 = CARTESIAN_POINT ( 'NONE',  ( -2.850000000006575718, -28.50000000000484945, 3.000000000000000000 ) ) ;
#311 = VERTEX_POINT ( 'NONE', #457 ) ;
#312 = DIRECTION ( 'NONE',  ( -0.000000000000000000, -0.000000000000000000, -1.000000000000000000 ) ) ;
#313 = DIRECTION ( 'NONE',  ( -0.000000000000000000, -0.000000000000000000, 1.000000000000000000 ) ) ;
#314 = ADVANCED_FACE ( 'NONE', ( #948 ), #567, .T. ) ;
#315 = ORIENTED_EDGE ( 'NONE', *, *, #973, .T. ) ;
#316 = VECTOR ( 'NONE', #232, 1000.000000000000000 ) ;
#317 = AXIS2_PLACEMENT_3D ( 'NONE', #1, #280, #86 ) ;
#318 = ORIENTED_EDGE ( 'NONE', *, *, #258, .T. ) ;
#319 = DIRECTION ( 'NONE',  ( -0.000000000000000000, -0.000000000000000000, -1.000000000000000000 ) ) ;
#320 = LINE ( 'NONE', #527, #322 ) ;
#321 = ADVANCED_FACE ( 'NONE', ( #640 ), #1026, .F. ) ;
#322 = VECTOR ( 'NONE', #1108, 1000.000000000000000 ) ;
#323 = CARTESIAN_POINT ( 'NONE',  ( -21.83172400787096379, -14.25000000000428635, 3.000000000000000000 ) ) ;
#324 = VECTOR ( 'NONE', #450, 1000.000000000000000 ) ;
#325 = VERTEX_POINT ( 'NONE', #838 ) ;
#326 = DIRECTION ( 'NONE',  ( 1.000000000000000000, 0.000000000000000000, 0.000000000000000000 ) ) ;
#327 = CARTESIAN_POINT ( 'NONE',  ( -24.68172400787348053, -14.25000000000428635, 3.000000000000000000 ) ) ;
#328 = FACE_BOUND ( 'NONE', #495, .T. ) ;
#329 = VERTEX_POINT ( 'NONE', #1218 ) ;
#330 = DIRECTION ( 'NONE',  ( 0.000000000000000000, 0.000000000000000000, -1.000000000000000000 ) ) ;
#331 = ORIENTED_EDGE ( 'NONE', *, *, #67, .T. ) ;
#332 = CYLINDRICAL_SURFACE ( 'NONE', #868, 2.849999999994384581 ) ;
#333 = DIRECTION ( 'NONE',  ( -1.000000000000000000, 0.000000000000000000, 0.000000000000000000 ) ) ;
#334 = ORIENTED_EDGE ( 'NONE', *, *, #14, .T. ) ;
#335 = CARTESIAN_POINT ( 'NONE',  ( 0.000000000000000000, 0.000000000000000000, 5.000000000000000000 ) ) ;
#336 = AXIS2_PLACEMENT_3D ( 'NONE', #993, #513, #811 ) ;
#337 = AXIS2_PLACEMENT_3D ( 'NONE', #453, #857, #671 ) ;
#338 = LINE ( 'NONE', #430, #746 ) ;
#339 = CARTESIAN_POINT ( 'NONE',  ( -1.601988228706893096E-11, 28.50000000000838085, 3.000000000000000000 ) ) ;
#340 = AXIS2_PLACEMENT_3D ( 'NONE', #23, #133, #520 ) ;
#341 = ORIENTED_EDGE ( 'NONE', *, *, #534, .F. ) ;
#342 = DIRECTION ( 'NONE',  ( 0.000000000000000000, 0.000000000000000000, 1.000000000000000000 ) ) ;
#343 = EDGE_CURVE ( 'NONE', #784, #775, #260, .T. ) ;
#344 = EDGE_LOOP ( 'NONE', ( #1009, #433 ) ) ;
#345 = DIRECTION ( 'NONE',  ( 1.000000000000000000, 0.000000000000000000, 0.000000000000000000 ) ) ;
#346 = FACE_BOUND ( 'NONE', #1113, .T. ) ;
#347 = VERTEX_POINT ( 'NONE', #199 ) ;
#348 = DIRECTION ( 'NONE',  ( -1.000000000000000000, 0.000000000000000000, 0.000000000000000000 ) ) ;
#349 = EDGE_LOOP ( 'NONE', ( #714, #694, #187, #63 ) ) ;
#350 = CYLINDRICAL_SURFACE ( 'NONE', #970, 2.850000000005618706 ) ;
#351 = EDGE_CURVE ( 'NONE', #950, #239, #791, .T. ) ;
#352 = DIRECTION ( 'NONE',  ( -1.000000000000000000, 0.000000000000000000, 0.000000000000000000 ) ) ;
#353 = EDGE_LOOP ( 'NONE', ( #733, #748, #149, #403 ) ) ;
#354 = CARTESIAN_POINT ( 'NONE',  ( 0.000000000000000000, 28.50000000000000000, 0.000000000000000000 ) ) ;
#355 = ORIENTED_EDGE ( 'NONE', *, *, #59, .F. ) ;
#356 = AXIS2_PLACEMENT_3D ( 'NONE', #914, #129, #613 ) ;
#357 = PLANE ( 'NONE',  #849 ) ;
#358 = APPROVAL_PERSON_ORGANIZATION ( #206, #405, #592 ) ;
#359 = CARTESIAN_POINT ( 'NONE',  ( 32.00000000000000000, 3.918869757271530263E-15, 5.000000000000000000 ) ) ;
#360 = EDGE_CURVE ( 'NONE', #775, #117, #17, .T. ) ;
#361 = CIRCLE ( 'NONE', #767, 2.850000000002517186 ) ;
#362 = VECTOR ( 'NONE', #1077, 1000.000000000000000 ) ;
#363 = ORIENTED_EDGE ( 'NONE', *, *, #284, .T. ) ;
#364 = CYLINDRICAL_SURFACE ( 'NONE', #1075, 2.850000000003107825 ) ;
#365 = AXIS2_PLACEMENT_3D ( 'NONE', #547, #552, #475 ) ;
#366 = EDGE_LOOP ( 'NONE', ( #1163, #630, #1205, #525 ) ) ;
#367 = DIRECTION ( 'NONE',  ( -1.000000000000000000, 0.000000000000000000, 0.000000000000000000 ) ) ;
#368 = DIRECTION ( 'NONE',  ( -1.000000000000000000, 0.000000000000000000, 0.000000000000000000 ) ) ;
#369 = EDGE_LOOP ( 'NONE', ( #114, #913, #554, #1030 ) ) ;
#370 = FACE_OUTER_BOUND ( 'NONE', #804, .T. ) ;
#371 = ORIENTED_EDGE ( 'NONE', *, *, #633, .T. ) ;
#372 = CARTESIAN_POINT ( 'NONE',  ( 1.799999999999999600, 28.50000000000000000, 3.000000000000000000 ) ) ;
#373 = CARTESIAN_POINT ( 'NONE',  ( 24.68172400784779796, 14.25000000000782840, 3.000000000000000000 ) ) ;
#374 = VERTEX_POINT ( 'NONE', #1053 ) ;
#375 = EDGE_CURVE ( 'NONE', #789, #1068, #112, .T. ) ;
#376 = ORIENTED_EDGE ( 'NONE', *, *, #105, .F. ) ;
#377 = DIRECTION ( 'NONE',  ( -0.000000000000000000, -0.000000000000000000, 1.000000000000000000 ) ) ;
#378 = CIRCLE ( 'NONE', #1019, 1.800000000000000488 ) ;
#379 = DIRECTION ( 'NONE',  ( -1.000000000000000000, 0.000000000000000000, -0.000000000000000000 ) ) ;
#380 =( GEOMETRIC_REPRESENTATION_CONTEXT ( 3 ) GLOBAL_UNCERTAINTY_ASSIGNED_CONTEXT ( ( #397 ) ) GLOBAL_UNIT_ASSIGNED_CONTEXT ( ( #195, #1147, #778 ) ) REPRESENTATION_CONTEXT ( 'NONE', 'WORKASPACE' ) );
#381 = CALENDAR_DATE ( 2026, 28, 8 ) ;
#382 = CIRCLE ( 'NONE', #803, 1.799999999999999600 ) ;
#383 = ORIENTED_EDGE ( 'NONE', *, *, #808, .F. ) ;
#384 = DIRECTION ( 'NONE',  ( 1.000000000000000000, 0.000000000000000000, 0.000000000000000000 ) ) ;
#385 = ADVANCED_FACE ( 'NONE', ( #984 ), #777, .T. ) ;
#386 = DIRECTION ( 'NONE',  ( -1.000000000000000000, 0.000000000000000000, 0.000000000000000000 ) ) ;
#387 = CC_DESIGN_PERSON_AND_ORGANIZATION_ASSIGNMENT ( #957, #769, ( #923 ) ) ;
#388 = DATE_TIME_ROLE ( 'creation_date' ) ;
#389 = ORIENTED_EDGE ( 'NONE', *, *, #1235, .F. ) ;
#390 = CARTESIAN_POINT ( 'NONE',  ( -24.68172400787665666, 14.25000000000231815, 3.000000000000000000 ) ) ;
#391 = CARTESIAN_POINT ( 'NONE',  ( 24.68172400784779796, 14.25000000000782840, 3.000000000000000000 ) ) ;
#392 = EDGE_CURVE ( 'NONE', #950, #306, #445, .T. ) ;
#393 = APPROVAL_STATUS ( 'not_yet_approved' ) ;
#394 = ORIENTED_EDGE ( 'NONE', *, *, #973, .F. ) ;
#395 = CARTESIAN_POINT ( 'NONE',  ( 24.68172400784779796, 14.25000000000782840, 3.000000000000000000 ) ) ;
#396 = CARTESIAN_POINT ( 'NONE',  ( 24.68172400785097764, -14.24999999999877964, 3.000000000000000000 ) ) ;
#397 = UNCERTAINTY_MEASURE_WITH_UNIT (LENGTH_MEASURE( 1.000000000000000082E-05 ), #195, 'distance_accuracy_value', 'NONE');
#398 = EDGE_LOOP ( 'NONE', ( #918, #449, #976, #689 ) ) ;
#399 = AXIS2_PLACEMENT_3D ( 'NONE', #1100, #624, #1010 ) ;
#400 = ADVANCED_FACE ( 'NONE', ( #974 ), #210, .F. ) ;
#401 = CC_DESIGN_SECURITY_CLASSIFICATION ( #762, ( #923 ) ) ;
#402 = PERSON_AND_ORGANIZATION_ROLE ( 'creator' ) ;
#403 = ORIENTED_EDGE ( 'NONE', *, *, #874, .T. ) ;
#404 = CARTESIAN_POINT ( 'NONE',  ( -26.48172400785650282, 14.25000000000000533, 3.000000000000000000 ) ) ;
#405 = APPROVAL ( #688, 'æœª' ) ;
#406 = CARTESIAN_POINT ( 'NONE',  ( 24.68172400785650211, 14.25000000000000355, 3.000000000000000000 ) ) ;
#407 = DIRECTION ( 'NONE',  ( -1.000000000000000000, 0.000000000000000000, 0.000000000000000000 ) ) ;
#408 = EDGE_CURVE ( 'NONE', #92, #1005, #411, .T. ) ;
#409 = ORIENTED_EDGE ( 'NONE', *, *, #351, .T. ) ;
#410 = CARTESIAN_POINT ( 'NONE',  ( -22.88172400785667904, -14.24999999999970512, 5.000000000000000000 ) ) ;
#411 = LINE ( 'NONE', #879, #503 ) ;
#412 = ORIENTED_EDGE ( 'NONE', *, *, #626, .T. ) ;
#413 = PRODUCT ( '\X2\987676d6\X0\', '\X2\987676d6\X0\', '', ( #286 ) ) ;
#414 = ORIENTED_EDGE ( 'NONE', *, *, #772, .T. ) ;
#415 = CARTESIAN_POINT ( 'NONE',  ( -1.799999999999931655, 28.50000000000000000, 5.000000000000000000 ) ) ;
#416 = EDGE_CURVE ( 'NONE', #468, #852, #875, .T. ) ;
#417 = DIRECTION ( 'NONE',  ( -1.000000000000000000, 0.000000000000000000, 0.000000000000000000 ) ) ;
#418 = ORIENTED_EDGE ( 'NONE', *, *, #226, .F. ) ;
#419 = CC_DESIGN_PERSON_AND_ORGANIZATION_ASSIGNMENT ( #682, #402, ( #923 ) ) ;
#420 = CIRCLE ( 'NONE', #130, 2.850000000005618706 ) ;
#421 = CIRCLE ( 'NONE', #538, 2.849999999996920774 ) ;
#422 = VERTEX_POINT ( 'NONE', #497 ) ;
#423 = CARTESIAN_POINT ( 'NONE',  ( 0.000000000000000000, 0.000000000000000000, 2.000000000000000000 ) ) ;
#424 = DIRECTION ( 'NONE',  ( 0.000000000000000000, 0.000000000000000000, 1.000000000000000000 ) ) ;
#425 = VECTOR ( 'NONE', #178, 1000.000000000000000 ) ;
#426 = DIRECTION ( 'NONE',  ( 0.000000000000000000, 0.000000000000000000, 1.000000000000000000 ) ) ;
#427 = AXIS2_PLACEMENT_3D ( 'NONE', #1017, #836, #61 ) ;
#428 = EDGE_LOOP ( 'NONE', ( #599, #971, #1243, #216 ) ) ;
#429 = DIRECTION ( 'NONE',  ( -0.000000000000000000, -0.000000000000000000, -1.000000000000000000 ) ) ;
#430 = CARTESIAN_POINT ( 'NONE',  ( 1.800000000000003153, -28.50000000000000000, 0.000000000000000000 ) ) ;
#431 = DIRECTION ( 'NONE',  ( -1.000000000000000000, 0.000000000000000000, 0.000000000000000000 ) ) ;
#432 = EDGE_CURVE ( 'NONE', #727, #329, #504, .T. ) ;
#433 = ORIENTED_EDGE ( 'NONE', *, *, #1062, .F. ) ;
#434 = DIRECTION ( 'NONE',  ( -0.000000000000000000, -0.000000000000000000, -1.000000000000000000 ) ) ;
#435 = DIRECTION ( 'NONE',  ( -0.000000000000000000, -0.000000000000000000, 1.000000000000000000 ) ) ;
#436 = PLANE ( 'NONE',  #929 ) ;
#437 = ADVANCED_FACE ( 'NONE', ( #1246 ), #1173, .F. ) ;
#438 = ORIENTED_EDGE ( 'NONE', *, *, #85, .T. ) ;
#439 = CARTESIAN_POINT ( 'NONE',  ( -24.68172400787665666, 14.25000000000231815, 0.000000000000000000 ) ) ;
#440 = AXIS2_PLACEMENT_3D ( 'NONE', #165, #342, #1128 ) ;
#441 = ORIENTED_EDGE ( 'NONE', *, *, #1091, .F. ) ;
#442 = DIRECTION ( 'NONE',  ( -0.000000000000000000, -0.000000000000000000, 1.000000000000000000 ) ) ;
#443 = FACE_OUTER_BOUND ( 'NONE', #1092, .T. ) ;
#444 = VECTOR ( 'NONE', #745, 1000.000000000000000 ) ;
#445 = CIRCLE ( 'NONE', #930, 2.849999999994384581 ) ;
#446 = ORIENTED_EDGE ( 'NONE', *, *, #184, .F. ) ;
#447 = FACE_BOUND ( 'NONE', #287, .T. ) ;
#448 = EDGE_CURVE ( 'NONE', #57, #735, #768, .T. ) ;
#449 = ORIENTED_EDGE ( 'NONE', *, *, #456, .T. ) ;
#450 = DIRECTION ( 'NONE',  ( -0.000000000000000000, -0.000000000000000000, 1.000000000000000000 ) ) ;
#451 = FACE_OUTER_BOUND ( 'NONE', #398, .T. ) ;
#452 = VERTEX_POINT ( 'NONE', #94 ) ;
#453 = CARTESIAN_POINT ( 'NONE',  ( 3.469446951953614189E-15, -28.50000000000000000, 0.000000000000000000 ) ) ;
#454 = EDGE_LOOP ( 'NONE', ( #907, #750, #1196, #164 ) ) ;
#455 = FACE_OUTER_BOUND ( 'NONE', #366, .T. ) ;
#456 = EDGE_CURVE ( 'NONE', #35, #1087, #773, .T. ) ;
#457 = CARTESIAN_POINT ( 'NONE',  ( 23.99999999999999645, 2.939152317953647500E-15, 2.000000000000000000 ) ) ;
#458 = EDGE_LOOP ( 'NONE', ( #1021, #709 ) ) ;
#459 = DIRECTION ( 'NONE',  ( 1.000000000000000000, 0.000000000000000000, 0.000000000000000000 ) ) ;
#460 = ORIENTED_EDGE ( 'NONE', *, *, #847, .F. ) ;
#461 = CIRCLE ( 'NONE', #213, 2.849999999994384581 ) ;
#462 = PLANE ( 'NONE',  #365 ) ;
#463 = DIRECTION ( 'NONE',  ( -1.000000000000000000, 0.000000000000000000, 0.000000000000000000 ) ) ;
#464 = CIRCLE ( 'NONE', #969, 2.850000000002517186 ) ;
#465 = CIRCLE ( 'NONE', #300, 2.849999999994391686 ) ;
#466 = ORIENTED_EDGE ( 'NONE', *, *, #1178, .F. ) ;
#467 = CARTESIAN_POINT ( 'NONE',  ( -24.68172400785649856, -14.25000000000001243, 3.000000000000000000 ) ) ;
#468 = VERTEX_POINT ( 'NONE', #194 ) ;
#469 = FACE_BOUND ( 'NONE', #1099, .T. ) ;
#470 = DIRECTION ( 'NONE',  ( 1.000000000000000000, 0.000000000000000000, 0.000000000000000000 ) ) ;
#471 = EDGE_CURVE ( 'NONE', #1072, #637, #674, .T. ) ;
#472 = EDGE_LOOP ( 'NONE', ( #896, #1051, #958, #394 ) ) ;
#473 = DIRECTION ( 'NONE',  ( 0.000000000000000000, 0.000000000000000000, 1.000000000000000000 ) ) ;
#474 = EDGE_LOOP ( 'NONE', ( #607, #892 ) ) ;
#475 = DIRECTION ( 'NONE',  ( -1.000000000000000000, 0.000000000000000000, -0.000000000000000000 ) ) ;
#476 = DIRECTION ( 'NONE',  ( -0.000000000000000000, -0.000000000000000000, 1.000000000000000000 ) ) ;
#477 = ADVANCED_FACE ( 'NONE', ( #967, #1252 ), #488, .T. ) ;
#478 = ORIENTED_EDGE ( 'NONE', *, *, #924, .F. ) ;
#479 = DIRECTION ( 'NONE',  ( -0.000000000000000000, -0.000000000000000000, 1.000000000000000000 ) ) ;
#480 = CIRCLE ( 'NONE', #598, 32.00000000000000000 ) ;
#481 = CARTESIAN_POINT ( 'NONE',  ( 24.68172400785650211, 14.25000000000000355, 0.000000000000000000 ) ) ;
#482 = APPLICATION_PROTOCOL_DEFINITION ( 'international standard', 'config_control_design', 1994, #871 ) ;
#483 = VECTOR ( 'NONE', #289, 1000.000000000000000 ) ;
#484 = ORIENTED_EDGE ( 'NONE', *, *, #67, .F. ) ;
#485 = CARTESIAN_POINT ( 'NONE',  ( -1.601988228706893096E-11, 28.50000000000838085, 0.000000000000000000 ) ) ;
#486 = VECTOR ( 'NONE', #182, 1000.000000000000000 ) ;
#487 = ADVANCED_FACE ( 'NONE', ( #1155 ), #11, .F. ) ;
#488 = PLANE ( 'NONE',  #1060 ) ;
#489 = ORIENTED_EDGE ( 'NONE', *, *, #1151, .F. ) ;
#490 = CARTESIAN_POINT ( 'NONE',  ( 27.53172400784218965, 14.25000000000782840, 3.000000000000000000 ) ) ;
#491 = EDGE_CURVE ( 'NONE', #756, #74, #137, .T. ) ;
#492 = DIRECTION ( 'NONE',  ( -1.000000000000000000, 0.000000000000000000, 0.000000000000000000 ) ) ;
#493 = VERTEX_POINT ( 'NONE', #716 ) ;
#494 = COORDINATED_UNIVERSAL_TIME_OFFSET ( 8, 0, .AHEAD. ) ;
#495 = EDGE_LOOP ( 'NONE', ( #1166, #234 ) ) ;
#496 = CARTESIAN_POINT ( 'NONE',  ( -9.654613238654835866E-12, -28.50000000000484945, 0.000000000000000000 ) ) ;
#497 = CARTESIAN_POINT ( 'NONE',  ( -32.00000000000000000, 0.000000000000000000, 5.000000000000000000 ) ) ;
#498 = DIRECTION ( 'NONE',  ( -0.000000000000000000, -0.000000000000000000, 1.000000000000000000 ) ) ;
#499 = CIRCLE ( 'NONE', #254, 25.00000000000000000 ) ;
#500 = AXIS2_PLACEMENT_3D ( 'NONE', #545, #926, #348 ) ;
#501 = ORIENTED_EDGE ( 'NONE', *, *, #713, .F. ) ;
#502 = CARTESIAN_POINT ( 'NONE',  ( 0.000000000000000000, 0.000000000000000000, 2.000000000000000000 ) ) ;
#503 = VECTOR ( 'NONE', #1162, 1000.000000000000000 ) ;
#504 = LINE ( 'NONE', #301, #362 ) ;
#505 = DIRECTION ( 'NONE',  ( 0.000000000000000000, 0.000000000000000000, -1.000000000000000000 ) ) ;
#506 = EDGE_CURVE ( 'NONE', #784, #761, #320, .T. ) ;
#507 = EDGE_LOOP ( 'NONE', ( #881, #371 ) ) ;
#508 = DIRECTION ( 'NONE',  ( -0.000000000000000000, -0.000000000000000000, 1.000000000000000000 ) ) ;
#509 = CARTESIAN_POINT ( 'NONE',  ( 24.68172400785097764, -14.24999999999877964, 3.000000000000000000 ) ) ;
#510 = VERTEX_POINT ( 'NONE', #706 ) ;
#511 = EDGE_CURVE ( 'NONE', #143, #325, #1203, .T. ) ;
#512 = ORIENTED_EDGE ( 'NONE', *, *, #568, .T. ) ;
#513 = DIRECTION ( 'NONE',  ( -0.000000000000000000, -0.000000000000000000, -1.000000000000000000 ) ) ;
#514 = CARTESIAN_POINT ( 'NONE',  ( 22.88172400785658311, 14.25000000000000355, 5.000000000000000000 ) ) ;
#515 = FACE_BOUND ( 'NONE', #458, .T. ) ;
#516 = CIRCLE ( 'NONE', #999, 2.850000000003107825 ) ;
#517 = AXIS2_PLACEMENT_3D ( 'NONE', #262, #159, #274 ) ;
#518 = ORIENTED_EDGE ( 'NONE', *, *, #888, .F. ) ;
#519 = DIRECTION ( 'NONE',  ( 1.000000000000000000, 0.000000000000000000, 0.000000000000000000 ) ) ;
#520 = DIRECTION ( 'NONE',  ( -1.000000000000000000, 0.000000000000000000, 0.000000000000000000 ) ) ;
#521 = ADVANCED_FACE ( 'NONE', ( #1006 ), #332, .F. ) ;
#522 = AXIS2_PLACEMENT_3D ( 'NONE', #175, #738, #183 ) ;
#523 = CARTESIAN_POINT ( 'NONE',  ( 27.53172400784218965, 14.25000000000782840, 0.000000000000000000 ) ) ;
#524 = AXIS2_PLACEMENT_3D ( 'NONE', #652, #173, #1211 ) ;
#525 = ORIENTED_EDGE ( 'NONE', *, *, #606, .T. ) ;
#526 = LINE ( 'NONE', #721, #1116 ) ;
#527 = CARTESIAN_POINT ( 'NONE',  ( -26.48172400785650282, 14.25000000000000533, 0.000000000000000000 ) ) ;
#528 = EDGE_CURVE ( 'NONE', #588, #87, #338, .T. ) ;
#529 = CYLINDRICAL_SURFACE ( 'NONE', #1043, 1.799999999999999600 ) ;
#530 = ORIENTED_EDGE ( 'NONE', *, *, #511, .T. ) ;
#531 = CARTESIAN_POINT ( 'NONE',  ( 24.68172400785639553, -14.25000000000017408, 5.000000000000000000 ) ) ;
#532 = DIRECTION ( 'NONE',  ( -1.000000000000000000, 0.000000000000000000, 0.000000000000000000 ) ) ;
#533 = FACE_OUTER_BOUND ( 'NONE', #850, .T. ) ;
#534 = EDGE_CURVE ( 'NONE', #143, #51, #994, .T. ) ;
#535 = CIRCLE ( 'NONE', #46, 1.800000000000000488 ) ;
#536 = ORIENTED_EDGE ( 'NONE', *, *, #793, .T. ) ;
#537 = PLANE ( 'NONE',  #517 ) ;
#538 = AXIS2_PLACEMENT_3D ( 'NONE', #749, #150, #945 ) ;
#539 = EDGE_LOOP ( 'NONE', ( #145, #489 ) ) ;
#540 = CARTESIAN_POINT ( 'NONE',  ( -23.99999999999999645, 0.000000000000000000, 0.000000000000000000 ) ) ;
#541 = DIRECTION ( 'NONE',  ( -0.000000000000000000, -0.000000000000000000, 1.000000000000000000 ) ) ;
#542 = CIRCLE ( 'NONE', #639, 1.799999999999999600 ) ;
#543 = EDGE_CURVE ( 'NONE', #927, #239, #238, .T. ) ;
#544 = VERTEX_POINT ( 'NONE', #625 ) ;
#545 = CARTESIAN_POINT ( 'NONE',  ( -9.654613238654835866E-12, -28.50000000000484945, 3.000000000000000000 ) ) ;
#546 = ORIENTED_EDGE ( 'NONE', *, *, #448, .T. ) ;
#547 = CARTESIAN_POINT ( 'NONE',  ( -24.68172400787665666, 14.25000000000231815, 3.000000000000000000 ) ) ;
#548 = CARTESIAN_POINT ( 'NONE',  ( 25.00000000000000000, 3.061616997868383043E-15, 6.000000000000000000 ) ) ;
#549 = VERTEX_POINT ( 'NONE', #1192 ) ;
#550 = DIRECTION ( 'NONE',  ( -1.000000000000000000, 0.000000000000000000, 0.000000000000000000 ) ) ;
#551 = ORIENTED_EDGE ( 'NONE', *, *, #924, .T. ) ;
#552 = DIRECTION ( 'NONE',  ( 0.000000000000000000, 0.000000000000000000, -1.000000000000000000 ) ) ;
#553 = DIRECTION ( 'NONE',  ( 0.000000000000000000, 0.000000000000000000, -1.000000000000000000 ) ) ;
#554 = ORIENTED_EDGE ( 'NONE', *, *, #808, .T. ) ;
#555 = DIRECTION ( 'NONE',  ( -0.000000000000000000, -0.000000000000000000, -1.000000000000000000 ) ) ;
#556 = ORIENTED_EDGE ( 'NONE', *, *, #917, .T. ) ;
#557 = CIRCLE ( 'NONE', #983, 25.00000000000000000 ) ;
#558 = CARTESIAN_POINT ( 'NONE',  ( -32.00000000000000000, 0.000000000000000000, 0.000000000000000000 ) ) ;
#559 = CIRCLE ( 'NONE', #842, 23.99999999999999645 ) ;
#560 = EDGE_CURVE ( 'NONE', #571, #374, #1081, .T. ) ;
#561 = DIRECTION ( 'NONE',  ( 0.000000000000000000, 0.000000000000000000, -1.000000000000000000 ) ) ;
#562 = AXIS2_PLACEMENT_3D ( 'NONE', #29, #898, #141 ) ;
#563 = DIRECTION ( 'NONE',  ( 0.000000000000000000, 0.000000000000000000, 1.000000000000000000 ) ) ;
#564 = DIRECTION ( 'NONE',  ( -0.000000000000000000, -0.000000000000000000, 1.000000000000000000 ) ) ;
#565 = ORIENTED_EDGE ( 'NONE', *, *, #560, .T. ) ;
#566 = CYLINDRICAL_SURFACE ( 'NONE', #963, 1.799999999999999600 ) ;
#567 = CYLINDRICAL_SURFACE ( 'NONE', #603, 32.00000000000000000 ) ;
#568 = EDGE_CURVE ( 'NONE', #794, #119, #125, .T. ) ;
#569 = ORIENTED_EDGE ( 'NONE', *, *, #560, .F. ) ;
#570 = APPROVAL_DATE_TIME ( #296, #193 ) ;
#571 = VERTEX_POINT ( 'NONE', #514 ) ;
#572 = DIRECTION ( 'NONE',  ( 0.000000000000000000, 0.000000000000000000, -1.000000000000000000 ) ) ;
#573 = PLANE ( 'NONE',  #283 ) ;
#574 = ADVANCED_FACE ( 'NONE', ( #903 ), #1186, .F. ) ;
#575 = PERSON_AND_ORGANIZATION ( #1194, #28 ) ;
#576 = ORIENTED_EDGE ( 'NONE', *, *, #456, .F. ) ;
#577 = DIRECTION ( 'NONE',  ( 0.000000000000000000, 0.000000000000000000, 1.000000000000000000 ) ) ;
#578 = CARTESIAN_POINT ( 'NONE',  ( 2.849999999987088195, 28.50000000000838085, 3.000000000000000000 ) ) ;
#579 = APPROVAL_PERSON_ORGANIZATION ( #96, #193, #774 ) ;
#580 = CIRCLE ( 'NONE', #663, 32.00000000000000000 ) ;
#581 = DATE_AND_TIME ( #304, #1076 ) ;
#582 = EDGE_CURVE ( 'NONE', #329, #1068, #13, .T. ) ;
#583 = AXIS2_PLACEMENT_3D ( 'NONE', #854, #476, #647 ) ;
#584 = EDGE_LOOP ( 'NONE', ( #779, #591, #214, #946 ) ) ;
#585 = CARTESIAN_POINT ( 'NONE',  ( 0.000000000000000000, 0.000000000000000000, 5.000000000000000000 ) ) ;
#586 = AXIS2_PLACEMENT_3D ( 'NONE', #853, #844, #367 ) ;
#587 = DIRECTION ( 'NONE',  ( -1.000000000000000000, 0.000000000000000000, 0.000000000000000000 ) ) ;
#588 = VERTEX_POINT ( 'NONE', #807 ) ;
#589 = CARTESIAN_POINT ( 'NONE',  ( 24.68172400785650566, -14.24999999999999467, 3.000000000000000000 ) ) ;
#590 = CARTESIAN_POINT ( 'NONE',  ( -24.68172400785649856, -14.25000000000001243, 3.000000000000000000 ) ) ;
#591 = ORIENTED_EDGE ( 'NONE', *, *, #991, .T. ) ;
#592 = APPROVAL_ROLE ( '' ) ;
#593 = VERTEX_POINT ( 'NONE', #1089 ) ;
#594 = PLANE ( 'NONE',  #818 ) ;
#595 = DIRECTION ( 'NONE',  ( -0.000000000000000000, -0.000000000000000000, -1.000000000000000000 ) ) ;
#596 = ADVANCED_FACE ( 'NONE', ( #711 ), #229, .F. ) ;
#597 = ORIENTED_EDGE ( 'NONE', *, *, #785, .T. ) ;
#598 = AXIS2_PLACEMENT_3D ( 'NONE', #585, #111, #88 ) ;
#599 = ORIENTED_EDGE ( 'NONE', *, *, #267, .F. ) ;
#600 = CYLINDRICAL_SURFACE ( 'NONE', #69, 2.849999999994391686 ) ;
#601 = AXIS2_PLACEMENT_3D ( 'NONE', #1131, #285, #960 ) ;
#602 = ORIENTED_EDGE ( 'NONE', *, *, #360, .F. ) ;
#603 = AXIS2_PLACEMENT_3D ( 'NONE', #954, #266, #84 ) ;
#604 = DIRECTION ( 'NONE',  ( 0.000000000000000000, 0.000000000000000000, -1.000000000000000000 ) ) ;
#605 = DIRECTION ( 'NONE',  ( -1.000000000000000000, 0.000000000000000000, 0.000000000000000000 ) ) ;
#606 = EDGE_CURVE ( 'NONE', #798, #637, #664, .T. ) ;
#607 = ORIENTED_EDGE ( 'NONE', *, *, #696, .T. ) ;
#608 = CYLINDRICAL_SURFACE ( 'NONE', #336, 25.00000000000000000 ) ;
#609 = DIRECTION ( 'NONE',  ( 0.000000000000000000, 0.000000000000000000, 1.000000000000000000 ) ) ;
#610 = FACE_BOUND ( 'NONE', #740, .T. ) ;
#611 = EDGE_CURVE ( 'NONE', #102, #544, #911, .T. ) ;
#612 = ORIENTED_EDGE ( 'NONE', *, *, #166, .F. ) ;
#613 = DIRECTION ( 'NONE',  ( 1.000000000000000000, 0.000000000000000000, 0.000000000000000000 ) ) ;
#614 = CARTESIAN_POINT ( 'NONE',  ( 3.469446951953614189E-15, -28.50000000000000000, 0.000000000000000000 ) ) ;
#615 = FACE_OUTER_BOUND ( 'NONE', #167, .T. ) ;
#616 = AXIS2_PLACEMENT_3D ( 'NONE', #215, #312, #118 ) ;
#617 = ORIENTED_EDGE ( 'NONE', *, *, #203, .T. ) ;
#618 = DIRECTION ( 'NONE',  ( 0.000000000000000000, 0.000000000000000000, -1.000000000000000000 ) ) ;
#619 = ADVANCED_FACE ( 'NONE', ( #235 ), #620, .F. ) ;
#620 = CYLINDRICAL_SURFACE ( 'NONE', #869, 1.799999999999999600 ) ;
#621 = VECTOR ( 'NONE', #942, 1000.000000000000000 ) ;
#622 = CARTESIAN_POINT ( 'NONE',  ( -24.68172400785650211, 14.25000000000000533, 5.000000000000000000 ) ) ;
#623 = ORIENTED_EDGE ( 'NONE', *, *, #392, .F. ) ;
#624 = DIRECTION ( 'NONE',  ( 0.000000000000000000, 0.000000000000000000, 1.000000000000000000 ) ) ;
#625 = CARTESIAN_POINT ( 'NONE',  ( 21.83172400785340628, 14.25000000000782840, 0.000000000000000000 ) ) ;
#626 = EDGE_CURVE ( 'NONE', #60, #925, #641, .T. ) ;
#627 = CARTESIAN_POINT ( 'NONE',  ( -22.88172400785650140, 14.25000000000000533, 5.000000000000000000 ) ) ;
#628 = VERTEX_POINT ( 'NONE', #1103 ) ;
#629 = CARTESIAN_POINT ( 'NONE',  ( 26.48172400785650638, -14.24999999999999467, 3.000000000000000000 ) ) ;
#630 = ORIENTED_EDGE ( 'NONE', *, *, #243, .F. ) ;
#631 = CARTESIAN_POINT ( 'NONE',  ( 24.68172400785097764, -14.24999999999877964, 0.000000000000000000 ) ) ;
#632 = CARTESIAN_POINT ( 'NONE',  ( 24.68172400785650211, 14.25000000000000355, 3.000000000000000000 ) ) ;
#633 = EDGE_CURVE ( 'NONE', #109, #651, #747, .T. ) ;
#634 = VECTOR ( 'NONE', #98, 1000.000000000000000 ) ;
#635 = ORIENTED_EDGE ( 'NONE', *, *, #819, .T. ) ;
#636 = DIRECTION ( 'NONE',  ( 1.000000000000000000, 0.000000000000000000, 0.000000000000000000 ) ) ;
#637 = VERTEX_POINT ( 'NONE', #75 ) ;
#638 = LINE ( 'NONE', #271, #486 ) ;
#639 = AXIS2_PLACEMENT_3D ( 'NONE', #1000, #726, #126 ) ;
#640 = FACE_OUTER_BOUND ( 'NONE', #21, .T. ) ;
#641 = CIRCLE ( 'NONE', #116, 1.799999999999999600 ) ;
#642 = ADVANCED_FACE ( 'NONE', ( #153 ), #350, .F. ) ;
#643 = ORIENTED_EDGE ( 'NONE', *, *, #1007, .F. ) ;
#644 = DIRECTION ( 'NONE',  ( -1.000000000000000000, 0.000000000000000000, 0.000000000000000000 ) ) ;
#645 = EDGE_LOOP ( 'NONE', ( #1224, #1056, #833, #536 ) ) ;
#646 = CARTESIAN_POINT ( 'NONE',  ( -1.799999999999996270, -28.50000000000000000, 0.000000000000000000 ) ) ;
#647 = DIRECTION ( 'NONE',  ( -1.000000000000000000, 0.000000000000000000, 0.000000000000000000 ) ) ;
#648 = ORIENTED_EDGE ( 'NONE', *, *, #917, .F. ) ;
#649 = DIRECTION ( 'NONE',  ( -0.000000000000000000, -0.000000000000000000, 1.000000000000000000 ) ) ;
#650 = EDGE_CURVE ( 'NONE', #160, #311, #1125, .T. ) ;
#651 = VERTEX_POINT ( 'NONE', #540 ) ;
#652 = CARTESIAN_POINT ( 'NONE',  ( -9.654613238654835866E-12, -28.50000000000484945, 3.000000000000000000 ) ) ;
#653 = PRODUCT_DEFINITION_SHAPE ( 'NONE', 'NONE',  #701 ) ;
#654 = CARTESIAN_POINT ( 'NONE',  ( -24.68172400787348053, -14.25000000000428635, 0.000000000000000000 ) ) ;
#655 = APPLICATION_CONTEXT ( 'configuration controlled 3d designs of mechanical parts and assemblies' ) ;
#656 = ORIENTED_EDGE ( 'NONE', *, *, #753, .T. ) ;
#657 = DIRECTION ( 'NONE',  ( -1.000000000000000000, 0.000000000000000000, 0.000000000000000000 ) ) ;
#658 = ORIENTED_EDGE ( 'NONE', *, *, #226, .T. ) ;
#659 = CIRCLE ( 'NONE', #440, 32.00000000000000000 ) ;
#660 = FACE_BOUND ( 'NONE', #71, .T. ) ;
#661 = ADVANCED_FACE ( 'NONE', ( #455 ), #1143, .F. ) ;
#662 = DIRECTION ( 'NONE',  ( -0.000000000000000000, -0.000000000000000000, 1.000000000000000000 ) ) ;
#663 = AXIS2_PLACEMENT_3D ( 'NONE', #1018, #832, #752 ) ;
#664 = CIRCLE ( 'NONE', #340, 2.850000000003107825 ) ;
#665 = DIRECTION ( 'NONE',  ( -1.000000000000000000, 0.000000000000000000, 0.000000000000000000 ) ) ;
#666 = DATE_AND_TIME ( #1067, #1118 ) ;
#667 = ORIENTED_EDGE ( 'NONE', *, *, #837, .T. ) ;
#668 = CARTESIAN_POINT ( 'NONE',  ( -1.799999999999999600, 28.50000000000000000, 3.000000000000000000 ) ) ;
#669 = LINE ( 'NONE', #548, #444 ) ;
#670 = EDGE_CURVE ( 'NONE', #544, #119, #34, .T. ) ;
#671 = DIRECTION ( 'NONE',  ( 1.000000000000000000, 0.000000000000000000, 0.000000000000000000 ) ) ;
#672 = VERTEX_POINT ( 'NONE', #947 ) ;
#673 = CARTESIAN_POINT ( 'NONE',  ( -27.53172400788227492, 14.25000000000231815, 0.000000000000000000 ) ) ;
#674 = LINE ( 'NONE', #578, #1124 ) ;
#675 = ADVANCED_FACE ( 'NONE', ( #1225, #83, #255, #757, #1233, #660, #1217, #1238 ), #357, .F. ) ;
#676 = COORDINATED_UNIVERSAL_TIME_OFFSET ( 8, 0, .AHEAD. ) ;
#677 = ORIENTED_EDGE ( 'NONE', *, *, #731, .T. ) ;
#678 = CARTESIAN_POINT ( 'NONE',  ( -24.68172400787665666, 14.25000000000231815, 0.000000000000000000 ) ) ;
#679 = AXIS2_PLACEMENT_3D ( 'NONE', #678, #1064, #893 ) ;
#680 = CARTESIAN_POINT ( 'NONE',  ( -1.799999999999999600, 28.50000000000000000, 0.000000000000000000 ) ) ;
#681 = AXIS2_PLACEMENT_3D ( 'NONE', #759, #505, #407 ) ;
#682 = PERSON_AND_ORGANIZATION ( #1194, #28 ) ;
#683 = VECTOR ( 'NONE', #1168, 1000.000000000000000 ) ;
#684 = ORIENTED_EDGE ( 'NONE', *, *, #131, .F. ) ;
#685 = LINE ( 'NONE', #1154, #1038 ) ;
#686 = DIRECTION ( 'NONE',  ( -0.000000000000000000, -0.000000000000000000, -1.000000000000000000 ) ) ;
#687 = CYLINDRICAL_SURFACE ( 'NONE', #218, 2.850000000005618706 ) ;
#688 = APPROVAL_STATUS ( 'not_yet_approved' ) ;
#689 = ORIENTED_EDGE ( 'NONE', *, *, #14, .F. ) ;
#690 = LINE ( 'NONE', #10, #1219 ) ;
#691 = ADVANCED_FACE ( 'NONE', ( #1123, #469 ), #462, .T. ) ;
#692 = DIRECTION ( 'NONE',  ( -0.000000000000000000, -0.000000000000000000, 1.000000000000000000 ) ) ;
#693 = CARTESIAN_POINT ( 'NONE',  ( -9.654613238654835866E-12, -28.50000000000484945, 3.000000000000000000 ) ) ;
#694 = ORIENTED_EDGE ( 'NONE', *, *, #961, .F. ) ;
#695 = FACE_OUTER_BOUND ( 'NONE', #24, .T. ) ;
#696 = EDGE_CURVE ( 'NONE', #727, #789, #263, .T. ) ;
#697 = CARTESIAN_POINT ( 'NONE',  ( 27.53172400784536222, -14.24999999999877964, 3.000000000000000000 ) ) ;
#698 = VECTOR ( 'NONE', #884, 1000.000000000000000 ) ;
#699 = EDGE_LOOP ( 'NONE', ( #643, #648 ) ) ;
#700 = AXIS2_PLACEMENT_3D ( 'NONE', #834, #52, #269 ) ;
#701 = PRODUCT_DEFINITION ( 'æœ', '', #923, #1253 ) ;
#702 = CIRCLE ( 'NONE', #968, 1.799999999999999600 ) ;
#703 = ORIENTED_EDGE ( 'NONE', *, *, #392, .T. ) ;
#704 = FACE_OUTER_BOUND ( 'NONE', #584, .T. ) ;
#705 = VECTOR ( 'NONE', #1095, 1000.000000000000000 ) ;
#706 = CARTESIAN_POINT ( 'NONE',  ( -21.83172400787103840, 14.25000000000231815, 0.000000000000000000 ) ) ;
#707 = DIRECTION ( 'NONE',  ( -1.000000000000000000, 0.000000000000000000, -0.000000000000000000 ) ) ;
#708 = EDGE_CURVE ( 'NONE', #452, #1184, #168, .T. ) ;
#709 = ORIENTED_EDGE ( 'NONE', *, *, #1134, .F. ) ;
#710 = FACE_OUTER_BOUND ( 'NONE', #472, .T. ) ;
#711 = FACE_OUTER_BOUND ( 'NONE', #952, .T. ) ;
#712 = CARTESIAN_POINT ( 'NONE',  ( 3.469446951953614189E-15, -28.50000000000000000, 3.000000000000000000 ) ) ;
#713 = EDGE_CURVE ( 'NONE', #239, #927, #1227, .T. ) ;
#714 = ORIENTED_EDGE ( 'NONE', *, *, #351, .F. ) ;
#715 = CARTESIAN_POINT ( 'NONE',  ( -24.68172400785650211, 14.25000000000000533, 5.000000000000000000 ) ) ;
#716 = CARTESIAN_POINT ( 'NONE',  ( -27.53172400787599727, -14.25000000000428635, 0.000000000000000000 ) ) ;
#717 = CARTESIAN_POINT ( 'NONE',  ( 26.48172400785639269, -14.25000000000017408, 5.000000000000000000 ) ) ;
#718 = CIRCLE ( 'NONE', #679, 2.850000000005618706 ) ;
#719 = LOCAL_TIME ( 11, 17, 11.00000000000000000, #494 ) ;
#720 = ORIENTED_EDGE ( 'NONE', *, *, #582, .F. ) ;
#721 = CARTESIAN_POINT ( 'NONE',  ( 23.99999999999999645, 2.939152317953647500E-15, 2.000000000000000000 ) ) ;
#722 = EDGE_LOOP ( 'NONE', ( #518, #1122, #556, #802 ) ) ;
#723 = DIRECTION ( 'NONE',  ( 1.000000000000000000, 0.000000000000000000, 0.000000000000000000 ) ) ;
#724 = AXIS2_PLACEMENT_3D ( 'NONE', #106, #498, #605 ) ;
#725 = CIRCLE ( 'NONE', #848, 1.799999999999999600 ) ;
#726 = DIRECTION ( 'NONE',  ( 0.000000000000000000, 0.000000000000000000, 1.000000000000000000 ) ) ;
#727 = VERTEX_POINT ( 'NONE', #372 ) ;
#728 = CARTESIAN_POINT ( 'NONE',  ( -24.68172400787348053, -14.25000000000428635, 3.000000000000000000 ) ) ;
#729 = VERTEX_POINT ( 'NONE', #1031 ) ;
#730 = DIRECTION ( 'NONE',  ( 1.000000000000000000, 0.000000000000000000, 0.000000000000000000 ) ) ;
#731 = EDGE_CURVE ( 'NONE', #549, #754, #1025, .T. ) ;
#732 = FACE_BOUND ( 'NONE', #1046, .T. ) ;
#733 = ORIENTED_EDGE ( 'NONE', *, *, #801, .F. ) ;
#734 = CARTESIAN_POINT ( 'NONE',  ( -1.601988228706893096E-11, 28.50000000000838085, 3.000000000000000000 ) ) ;
#735 = VERTEX_POINT ( 'NONE', #1130 ) ;
#736 = CARTESIAN_POINT ( 'NONE',  ( -1.601988228706893096E-11, 28.50000000000838085, 3.000000000000000000 ) ) ;
#737 = EDGE_CURVE ( 'NONE', #729, #593, #638, .T. ) ;
#738 = DIRECTION ( 'NONE',  ( -0.000000000000000000, -0.000000000000000000, 1.000000000000000000 ) ) ;
#739 = CIRCLE ( 'NONE', #1158, 2.850000000005618706 ) ;
#740 = EDGE_LOOP ( 'NONE', ( #840, #858 ) ) ;
#741 = DIRECTION ( 'NONE',  ( -0.000000000000000000, -0.000000000000000000, -1.000000000000000000 ) ) ;
#742 = ORIENTED_EDGE ( 'NONE', *, *, #408, .F. ) ;
#743 = DIRECTION ( 'NONE',  ( -1.000000000000000000, 0.000000000000000000, 0.000000000000000000 ) ) ;
#744 = AXIS2_PLACEMENT_3D ( 'NONE', #339, #142, #707 ) ;
#745 = DIRECTION ( 'NONE',  ( -0.000000000000000000, -0.000000000000000000, -1.000000000000000000 ) ) ;
#746 = VECTOR ( 'NONE', #248, 1000.000000000000000 ) ;
#747 = CIRCLE ( 'NONE', #200, 23.99999999999999645 ) ;
#748 = ORIENTED_EDGE ( 'NONE', *, *, #491, .F. ) ;
#749 = CARTESIAN_POINT ( 'NONE',  ( -9.654613238654835866E-12, -28.50000000000484945, 0.000000000000000000 ) ) ;
#750 = ORIENTED_EDGE ( 'NONE', *, *, #696, .F. ) ;
#751 = DIRECTION ( 'NONE',  ( 0.000000000000000000, 0.000000000000000000, 1.000000000000000000 ) ) ;
#752 = DIRECTION ( 'NONE',  ( 1.000000000000000000, 0.000000000000000000, 0.000000000000000000 ) ) ;
#753 = EDGE_CURVE ( 'NONE', #35, #82, #1183, .T. ) ;
#754 = VERTEX_POINT ( 'NONE', #558 ) ;
#755 = CARTESIAN_POINT ( 'NONE',  ( -24.68172400787348053, -14.25000000000428635, 3.000000000000000000 ) ) ;
#756 = VERTEX_POINT ( 'NONE', #1137 ) ;
#757 = FACE_BOUND ( 'NONE', #1119, .T. ) ;
#758 = CARTESIAN_POINT ( 'NONE',  ( 24.68172400785097764, -14.24999999999877964, 3.000000000000000000 ) ) ;
#759 = CARTESIAN_POINT ( 'NONE',  ( 24.68172400784779796, 14.25000000000782840, 3.000000000000000000 ) ) ;
#760 = CIRCLE ( 'NONE', #943, 2.849999999994391686 ) ;
#761 = VERTEX_POINT ( 'NONE', #1024 ) ;
#762 = SECURITY_CLASSIFICATION ( '', '', #1152 ) ;
#763 = DIRECTION ( 'NONE',  ( 0.000000000000000000, 0.000000000000000000, -1.000000000000000000 ) ) ;
#764 = ADVANCED_FACE ( 'NONE', ( #276 ), #566, .F. ) ;
#765 = LOCAL_TIME ( 11, 17, 11.00000000000000000, #1242 ) ;
#766 = LINE ( 'NONE', #846, #824 ) ;
#767 = AXIS2_PLACEMENT_3D ( 'NONE', #1174, #1079, #219 ) ;
#768 = CIRCLE ( 'NONE', #1226, 1.799999999999999600 ) ;
#769 = PERSON_AND_ORGANIZATION_ROLE ( 'design_supplier' ) ;
#770 = EDGE_LOOP ( 'NONE', ( #97, #261, #264, #992 ) ) ;
#771 = DIRECTION ( 'NONE',  ( -0.000000000000000000, -0.000000000000000000, 1.000000000000000000 ) ) ;
#772 = EDGE_CURVE ( 'NONE', #729, #1214, #95, .T. ) ;
#773 = LINE ( 'NONE', #1150, #483 ) ;
#774 = APPROVAL_ROLE ( '' ) ;
#775 = VERTEX_POINT ( 'NONE', #780 ) ;
#776 = DIRECTION ( 'NONE',  ( 0.000000000000000000, 0.000000000000000000, -1.000000000000000000 ) ) ;
#777 = CYLINDRICAL_SURFACE ( 'NONE', #891, 32.00000000000000000 ) ;
#778 =( NAMED_UNIT ( * ) SI_UNIT ( $, .STERADIAN. ) SOLID_ANGLE_UNIT ( ) );
#779 = ORIENTED_EDGE ( 'NONE', *, *, #650, .T. ) ;
#780 = CARTESIAN_POINT ( 'NONE',  ( -22.88172400785650140, 14.25000000000000533, 3.000000000000000000 ) ) ;
#781 = AXIS2_PLACEMENT_3D ( 'NONE', #531, #1083, #519 ) ;
#782 = DIRECTION ( 'NONE',  ( -0.000000000000000000, -0.000000000000000000, 1.000000000000000000 ) ) ;
#783 = CIRCLE ( 'NONE', #700, 2.850000000005618706 ) ;
#784 = VERTEX_POINT ( 'NONE', #404 ) ;
#785 = EDGE_CURVE ( 'NONE', #1072, #628, #516, .T. ) ;
#786 = AXIS2_PLACEMENT_3D ( 'NONE', #693, #895, #121 ) ;
#787 = PERSON_AND_ORGANIZATION ( #1194, #28 ) ;
#788 = VECTOR ( 'NONE', #37, 1000.000000000000000 ) ;
#789 = VERTEX_POINT ( 'NONE', #668 ) ;
#790 = DIRECTION ( 'NONE',  ( 1.000000000000000000, 0.000000000000000000, 0.000000000000000000 ) ) ;
#791 = LINE ( 'NONE', #697, #683 ) ;
#792 = DIRECTION ( 'NONE',  ( 1.000000000000000000, 0.000000000000000000, 0.000000000000000000 ) ) ;
#793 = EDGE_CURVE ( 'NONE', #87, #1184, #535, .T. ) ;
#794 = VERTEX_POINT ( 'NONE', #490 ) ;
#795 = CARTESIAN_POINT ( 'NONE',  ( 21.83172400785659306, -14.24999999999877964, 0.000000000000000000 ) ) ;
#796 = DIRECTION ( 'NONE',  ( -0.000000000000000000, -0.000000000000000000, -1.000000000000000000 ) ) ;
#797 = CARTESIAN_POINT ( 'NONE',  ( -26.48172400785668046, -14.25000000000001243, 5.000000000000000000 ) ) ;
#798 = VERTEX_POINT ( 'NONE', #1149 ) ;
#799 = DIRECTION ( 'NONE',  ( 1.000000000000000000, 0.000000000000000000, 0.000000000000000000 ) ) ;
#800 = CARTESIAN_POINT ( 'NONE',  ( -21.83172400787096379, -14.25000000000428635, 3.000000000000000000 ) ) ;
#801 = EDGE_CURVE ( 'NONE', #74, #60, #188, .T. ) ;
#802 = ORIENTED_EDGE ( 'NONE', *, *, #416, .F. ) ;
#803 = AXIS2_PLACEMENT_3D ( 'NONE', #303, #563, #792 ) ;
#804 = EDGE_LOOP ( 'NONE', ( #341, #883, #315, #318 ) ) ;
#805 = DIRECTION ( 'NONE',  ( 0.000000000000000000, 0.000000000000000000, 1.000000000000000000 ) ) ;
#806 = VECTOR ( 'NONE', #692, 1000.000000000000000 ) ;
#807 = CARTESIAN_POINT ( 'NONE',  ( 1.800000000000003153, -28.50000000000000000, 3.000000000000000000 ) ) ;
#808 = EDGE_CURVE ( 'NONE', #637, #798, #1139, .T. ) ;
#809 = DIRECTION ( 'NONE',  ( -1.000000000000000000, 0.000000000000000000, 0.000000000000000000 ) ) ;
#810 = EDGE_LOOP ( 'NONE', ( #720, #1023 ) ) ;
#811 = DIRECTION ( 'NONE',  ( -1.000000000000000000, 0.000000000000000000, 0.000000000000000000 ) ) ;
#812 = CARTESIAN_POINT ( 'NONE',  ( 21.83172400785340628, 14.25000000000782840, 3.000000000000000000 ) ) ;
#813 = DIRECTION ( 'NONE',  ( -0.000000000000000000, -0.000000000000000000, 1.000000000000000000 ) ) ;
#814 = ORIENTED_EDGE ( 'NONE', *, *, #432, .F. ) ;
#815 = FACE_OUTER_BOUND ( 'NONE', #1249, .T. ) ;
#816 = CARTESIAN_POINT ( 'NONE',  ( -24.68172400785667975, -14.24999999999970512, 5.000000000000000000 ) ) ;
#817 = FACE_BOUND ( 'NONE', #810, .T. ) ;
#818 = AXIS2_PLACEMENT_3D ( 'NONE', #1161, #965, #1250 ) ;
#819 = EDGE_CURVE ( 'NONE', #1107, #1087, #152, .T. ) ;
#820 = ORIENTED_EDGE ( 'NONE', *, *, #1027, .F. ) ;
#821 = CARTESIAN_POINT ( 'NONE',  ( 2.849999999987088195, 28.50000000000838085, 3.000000000000000000 ) ) ;
#822 = EDGE_LOOP ( 'NONE', ( #1105, #530 ) ) ;
#823 = CARTESIAN_POINT ( 'NONE',  ( 6.938893903907228378E-14, 28.50000000000000711, 5.000000000000000000 ) ) ;
#824 = VECTOR ( 'NONE', #272, 1000.000000000000000 ) ;
#825 = AXIS2_PLACEMENT_3D ( 'NONE', #373, #169, #860 ) ;
#826 = FACE_BOUND ( 'NONE', #474, .T. ) ;
#827 = EDGE_LOOP ( 'NONE', ( #1028, #1135, #1047, #617 ) ) ;
#828 = FACE_OUTER_BOUND ( 'NONE', #887, .T. ) ;
#829 = EDGE_CURVE ( 'NONE', #756, #925, #307, .T. ) ;
#830 = ORIENTED_EDGE ( 'NONE', *, *, #737, .F. ) ;
#831 = DIRECTION ( 'NONE',  ( 1.000000000000000000, 0.000000000000000000, 0.000000000000000000 ) ) ;
#832 = DIRECTION ( 'NONE',  ( 0.000000000000000000, 0.000000000000000000, 1.000000000000000000 ) ) ;
#833 = ORIENTED_EDGE ( 'NONE', *, *, #528, .T. ) ;
#834 = CARTESIAN_POINT ( 'NONE',  ( -24.68172400787665666, 14.25000000000231815, 3.000000000000000000 ) ) ;
#835 = ORIENTED_EDGE ( 'NONE', *, *, #991, .F. ) ;
#836 = DIRECTION ( 'NONE',  ( 0.000000000000000000, 0.000000000000000000, 1.000000000000000000 ) ) ;
#837 = EDGE_CURVE ( 'NONE', #1214, #191, #959, .T. ) ;
#838 = CARTESIAN_POINT ( 'NONE',  ( -27.53172400787599727, -14.25000000000428635, 3.000000000000000000 ) ) ;
#839 = VECTOR ( 'NONE', #429, 1000.000000000000000 ) ;
#840 = ORIENTED_EDGE ( 'NONE', *, *, #115, .F. ) ;
#841 = LINE ( 'NONE', #951, #70 ) ;
#842 = AXIS2_PLACEMENT_3D ( 'NONE', #938, #64, #636 ) ;
#843 = ORIENTED_EDGE ( 'NONE', *, *, #829, .F. ) ;
#844 = DIRECTION ( 'NONE',  ( 0.000000000000000000, 0.000000000000000000, -1.000000000000000000 ) ) ;
#845 = AXIS2_PLACEMENT_3D ( 'NONE', #1032, #561, #1044 ) ;
#846 = CARTESIAN_POINT ( 'NONE',  ( 21.83172400785659306, -14.24999999999877964, 3.000000000000000000 ) ) ;
#847 = EDGE_CURVE ( 'NONE', #270, #422, #480, .T. ) ;
#848 = AXIS2_PLACEMENT_3D ( 'NONE', #89, #662, #368 ) ;
#849 = AXIS2_PLACEMENT_3D ( 'NONE', #940, #928, #282 ) ;
#850 = EDGE_LOOP ( 'NONE', ( #418, #1159, #980, #441 ) ) ;
#851 = FACE_OUTER_BOUND ( 'NONE', #770, .T. ) ;
#852 = VERTEX_POINT ( 'NONE', #673 ) ;
#853 = CARTESIAN_POINT ( 'NONE',  ( 24.68172400785097764, -14.24999999999877964, 0.000000000000000000 ) ) ;
#854 = CARTESIAN_POINT ( 'NONE',  ( -24.68172400785650211, 14.25000000000000533, 3.000000000000000000 ) ) ;
#855 = ORIENTED_EDGE ( 'NONE', *, *, #611, .F. ) ;
#856 = EDGE_CURVE ( 'NONE', #102, #794, #760, .T. ) ;
#857 = DIRECTION ( 'NONE',  ( -0.000000000000000000, -0.000000000000000000, 1.000000000000000000 ) ) ;
#858 = ORIENTED_EDGE ( 'NONE', *, *, #1071, .F. ) ;
#859 = CARTESIAN_POINT ( 'NONE',  ( -24.68172400787665666, 14.25000000000231815, 3.000000000000000000 ) ) ;
#860 = DIRECTION ( 'NONE',  ( -1.000000000000000000, 0.000000000000000000, 0.000000000000000000 ) ) ;
#861 = DATE_TIME_ROLE ( 'classification_date' ) ;
#862 = AXIS2_PLACEMENT_3D ( 'NONE', #715, #1074, #799 ) ;
#863 = EDGE_CURVE ( 'NONE', #270, #549, #690, .T. ) ;
#864 = ORIENTED_EDGE ( 'NONE', *, *, #20, .T. ) ;
#865 = DIRECTION ( 'NONE',  ( -1.000000000000000000, 0.000000000000000000, 0.000000000000000000 ) ) ;
#866 = DIRECTION ( 'NONE',  ( -0.000000000000000000, -0.000000000000000000, -1.000000000000000000 ) ) ;
#867 = CIRCLE ( 'NONE', #136, 1.799999999999999600 ) ;
#868 = AXIS2_PLACEMENT_3D ( 'NONE', #509, #42, #1011 ) ;
#869 = AXIS2_PLACEMENT_3D ( 'NONE', #915, #435, #146 ) ;
#870 = PERSON_AND_ORGANIZATION_ROLE ( 'creator' ) ;
#871 = APPLICATION_CONTEXT ( 'configuration controlled 3d designs of mechanical parts and assemblies' ) ;
#872 = ORIENTED_EDGE ( 'NONE', *, *, #1156, .T. ) ;
#873 = CARTESIAN_POINT ( 'NONE',  ( -22.88172400785649785, -14.25000000000001243, 0.000000000000000000 ) ) ;
#874 = EDGE_CURVE ( 'NONE', #925, #60, #1055, .T. ) ;
#875 = LINE ( 'NONE', #217, #53 ) ;
#876 = PERSON_AND_ORGANIZATION ( #1194, #28 ) ;
#877 = ORIENTED_EDGE ( 'NONE', *, *, #670, .T. ) ;
#878 = DIRECTION ( 'NONE',  ( -1.000000000000000000, 0.000000000000000000, 0.000000000000000000 ) ) ;
#879 = CARTESIAN_POINT ( 'NONE',  ( -25.00000000000000000, 0.000000000000000000, 6.000000000000000000 ) ) ;
#880 = ADVANCED_FACE ( 'NONE', ( #192, #1069 ), #594, .T. ) ;
#881 = ORIENTED_EDGE ( 'NONE', *, *, #1078, .T. ) ;
#882 = DATE_AND_TIME ( #1248, #719 ) ;
#883 = ORIENTED_EDGE ( 'NONE', *, *, #79, .F. ) ;
#884 = DIRECTION ( 'NONE',  ( -0.000000000000000000, -0.000000000000000000, 1.000000000000000000 ) ) ;
#885 = CIRCLE ( 'NONE', #356, 25.00000000000000000 ) ;
#886 = DIRECTION ( 'NONE',  ( -1.000000000000000000, 0.000000000000000000, 0.000000000000000000 ) ) ;
#887 = EDGE_LOOP ( 'NONE', ( #576, #484, #334, #635 ) ) ;
#888 = EDGE_CURVE ( 'NONE', #347, #468, #420, .T. ) ;
#889 = AXIS2_PLACEMENT_3D ( 'NONE', #230, #905, #244 ) ;
#890 = APPROVAL_DATE_TIME ( #127, #405 ) ;
#891 = AXIS2_PLACEMENT_3D ( 'NONE', #1058, #866, #587 ) ;
#892 = ORIENTED_EDGE ( 'NONE', *, *, #1204, .T. ) ;
#893 = DIRECTION ( 'NONE',  ( -1.000000000000000000, 0.000000000000000000, 0.000000000000000000 ) ) ;
#894 = DIRECTION ( 'NONE',  ( -0.000000000000000000, -0.000000000000000000, 1.000000000000000000 ) ) ;
#895 = DIRECTION ( 'NONE',  ( 0.000000000000000000, 0.000000000000000000, -1.000000000000000000 ) ) ;
#896 = ORIENTED_EDGE ( 'NONE', *, *, #511, .F. ) ;
#897 = DIRECTION ( 'NONE',  ( -1.000000000000000000, 0.000000000000000000, 0.000000000000000000 ) ) ;
#898 = DIRECTION ( 'NONE',  ( -0.000000000000000000, -0.000000000000000000, -1.000000000000000000 ) ) ;
#899 = ORIENTED_EDGE ( 'NONE', *, *, #650, .F. ) ;
#900 = EDGE_LOOP ( 'NONE', ( #460, #201, #677, #139 ) ) ;
#901 = CARTESIAN_POINT ( 'NONE',  ( 2.849999999987266275, -28.50000000000484945, 0.000000000000000000 ) ) ;
#902 = EDGE_CURVE ( 'NONE', #57, #571, #685, .T. ) ;
#903 = FACE_OUTER_BOUND ( 'NONE', #349, .T. ) ;
#904 = AXIS2_PLACEMENT_3D ( 'NONE', #1185, #45, #1190 ) ;
#905 = DIRECTION ( 'NONE',  ( -0.000000000000000000, -0.000000000000000000, -1.000000000000000000 ) ) ;
#906 = CC_DESIGN_APPROVAL ( #193, ( #923 ) ) ;
#907 = ORIENTED_EDGE ( 'NONE', *, *, #375, .F. ) ;
#908 = DIRECTION ( 'NONE',  ( -1.000000000000000000, 0.000000000000000000, 0.000000000000000000 ) ) ;
#909 = VECTOR ( 'NONE', #47, 1000.000000000000000 ) ;
#910 = AXIS2_PLACEMENT_3D ( 'NONE', #736, #66, #162 ) ;
#911 = LINE ( 'NONE', #812, #705 ) ;
#912 = DIRECTION ( 'NONE',  ( 0.000000000000000000, 0.000000000000000000, 1.000000000000000000 ) ) ;
#913 = ORIENTED_EDGE ( 'NONE', *, *, #471, .T. ) ;
#914 = CARTESIAN_POINT ( 'NONE',  ( 0.000000000000000000, 0.000000000000000000, 5.000000000000000000 ) ) ;
#915 = CARTESIAN_POINT ( 'NONE',  ( 24.68172400785650211, 14.25000000000000355, 0.000000000000000000 ) ) ;
#916 = CARTESIAN_POINT ( 'NONE',  ( -23.99999999999999645, 0.000000000000000000, 2.000000000000000000 ) ) ;
#917 = EDGE_CURVE ( 'NONE', #510, #852, #718, .T. ) ;
#918 = ORIENTED_EDGE ( 'NONE', *, *, #753, .F. ) ;
#919 = LINE ( 'NONE', #26, #316 ) ;
#920 = DIRECTION ( 'NONE',  ( 0.000000000000000000, 0.000000000000000000, -1.000000000000000000 ) ) ;
#921 = CYLINDRICAL_SURFACE ( 'NONE', #986, 25.00000000000000000 ) ;
#922 = AXIS2_PLACEMENT_3D ( 'NONE', #728, #741, #1015 ) ;
#923 = PRODUCT_DEFINITION_FORMATION_WITH_SPECIFIED_SOURCE ( 'ä»', '', #413, .NOT_KNOWN. ) ;
#924 = EDGE_CURVE ( 'NONE', #1005, #934, #499, .T. ) ;
#925 = VERTEX_POINT ( 'NONE', #410 ) ;
#926 = DIRECTION ( 'NONE',  ( -0.000000000000000000, -0.000000000000000000, -1.000000000000000000 ) ) ;
#927 = VERTEX_POINT ( 'NONE', #795 ) ;
#928 = DIRECTION ( 'NONE',  ( 0.000000000000000000, 0.000000000000000000, 1.000000000000000000 ) ) ;
#929 = AXIS2_PLACEMENT_3D ( 'NONE', #995, #426, #250 ) ;
#930 = AXIS2_PLACEMENT_3D ( 'NONE', #396, #604, #989 ) ;
#931 = CARTESIAN_POINT ( 'NONE',  ( 24.68172400785650566, -14.24999999999999467, 3.000000000000000000 ) ) ;
#932 = ORIENTED_EDGE ( 'NONE', *, *, #941, .F. ) ;
#933 = CARTESIAN_POINT ( 'NONE',  ( -2.706168622523819067E-13, -28.50000000000001066, 5.000000000000000000 ) ) ;
#934 = VERTEX_POINT ( 'NONE', #240 ) ;
#935 = DIRECTION ( 'NONE',  ( -1.000000000000000000, 0.000000000000000000, 0.000000000000000000 ) ) ;
#936 = CARTESIAN_POINT ( 'NONE',  ( -21.83172400787103840, 14.25000000000231815, 3.000000000000000000 ) ) ;
#937 = ORIENTED_EDGE ( 'NONE', *, *, #343, .F. ) ;
#938 = CARTESIAN_POINT ( 'NONE',  ( 0.000000000000000000, 0.000000000000000000, 2.000000000000000000 ) ) ;
#939 = ORIENTED_EDGE ( 'NONE', *, *, #59, .T. ) ;
#940 = CARTESIAN_POINT ( 'NONE',  ( 0.000000000000000000, 0.000000000000000000, 0.000000000000000000 ) ) ;
#941 = EDGE_CURVE ( 'NONE', #761, #117, #176, .T. ) ;
#942 = DIRECTION ( 'NONE',  ( -0.000000000000000000, -0.000000000000000000, -1.000000000000000000 ) ) ;
#943 = AXIS2_PLACEMENT_3D ( 'NONE', #395, #208, #1171 ) ;
#944 = ORIENTED_EDGE ( 'NONE', *, *, #902, .T. ) ;
#945 = DIRECTION ( 'NONE',  ( -1.000000000000000000, 0.000000000000000000, 0.000000000000000000 ) ) ;
#946 = ORIENTED_EDGE ( 'NONE', *, *, #85, .F. ) ;
#947 = CARTESIAN_POINT ( 'NONE',  ( 25.00000000000000000, 3.061616997868383043E-15, 5.000000000000000000 ) ) ;
#948 = FACE_OUTER_BOUND ( 'NONE', #827, .T. ) ;
#949 = AXIS2_PLACEMENT_3D ( 'NONE', #823, #424, #120 ) ;
#950 = VERTEX_POINT ( 'NONE', #228 ) ;
#951 = CARTESIAN_POINT ( 'NONE',  ( -32.00000000000000000, 0.000000000000000000, 2.000000000000000000 ) ) ;
#952 = EDGE_LOOP ( 'NONE', ( #684, #231, #207, #181 ) ) ;
#953 = CARTESIAN_POINT ( 'NONE',  ( 0.000000000000000000, 28.50000000000000000, 0.000000000000000000 ) ) ;
#954 = CARTESIAN_POINT ( 'NONE',  ( 0.000000000000000000, 0.000000000000000000, 2.000000000000000000 ) ) ;
#955 = ADVANCED_FACE ( 'NONE', ( #695 ), #997, .F. ) ;
#956 = CARTESIAN_POINT ( 'NONE',  ( 2.849999999987266275, -28.50000000000484945, 3.000000000000000000 ) ) ;
#957 = PERSON_AND_ORGANIZATION ( #1194, #28 ) ;
#958 = ORIENTED_EDGE ( 'NONE', *, *, #166, .T. ) ;
#959 = LINE ( 'NONE', #93, #634 ) ;
#960 = DIRECTION ( 'NONE',  ( -1.000000000000000000, 0.000000000000000000, 0.000000000000000000 ) ) ;
#961 = EDGE_CURVE ( 'NONE', #306, #950, #461, .T. ) ;
#962 = APPROVAL_ROLE ( '' ) ;
#963 = AXIS2_PLACEMENT_3D ( 'NONE', #953, #977, #384 ) ;
#964 = ORIENTED_EDGE ( 'NONE', *, *, #801, .T. ) ;
#965 = DIRECTION ( 'NONE',  ( 0.000000000000000000, 0.000000000000000000, -1.000000000000000000 ) ) ;
#966 = PRODUCT_RELATED_PRODUCT_CATEGORY ( 'detail', '', ( #413 ) ) ;
#967 = FACE_OUTER_BOUND ( 'NONE', #1210, .T. ) ;
#968 = AXIS2_PLACEMENT_3D ( 'NONE', #622, #912, #31 ) ;
#969 = AXIS2_PLACEMENT_3D ( 'NONE', #654, #553, #463 ) ;
#970 = AXIS2_PLACEMENT_3D ( 'NONE', #859, #1114, #935 ) ;
#971 = ORIENTED_EDGE ( 'NONE', *, *, #1156, .F. ) ;
#972 = DIRECTION ( 'NONE',  ( -0.000000000000000000, -0.000000000000000000, -1.000000000000000000 ) ) ;
#973 = EDGE_CURVE ( 'NONE', #325, #493, #919, .T. ) ;
#974 = FACE_OUTER_BOUND ( 'NONE', #1153, .T. ) ;
#975 = APPLICATION_PROTOCOL_DEFINITION ( 'international standard', 'config_control_design', 1994, #655 ) ;
#976 = ORIENTED_EDGE ( 'NONE', *, *, #1151, .T. ) ;
#977 = DIRECTION ( 'NONE',  ( -0.000000000000000000, -0.000000000000000000, 1.000000000000000000 ) ) ;
#978 = ADVANCED_FACE ( 'NONE', ( #704 ), #1003, .F. ) ;
#979 = DIRECTION ( 'NONE',  ( -0.000000000000000000, -0.000000000000000000, 1.000000000000000000 ) ) ;
#980 = ORIENTED_EDGE ( 'NONE', *, *, #408, .T. ) ;
#981 = ORIENTED_EDGE ( 'NONE', *, *, #837, .F. ) ;
#982 = DIRECTION ( 'NONE',  ( -1.000000000000000000, 0.000000000000000000, 0.000000000000000000 ) ) ;
#983 = AXIS2_PLACEMENT_3D ( 'NONE', #423, #805, #326 ) ;
#984 = FACE_OUTER_BOUND ( 'NONE', #900, .T. ) ;
#985 = LINE ( 'NONE', #310, #425 ) ;
#986 = AXIS2_PLACEMENT_3D ( 'NONE', #49, #1008, #431 ) ;
#987 = ORIENTED_EDGE ( 'NONE', *, *, #131, .T. ) ;
#988 = CARTESIAN_POINT ( 'NONE',  ( 26.48172400785650282, 14.25000000000000355, 0.000000000000000000 ) ) ;
#989 = DIRECTION ( 'NONE',  ( -1.000000000000000000, 0.000000000000000000, 0.000000000000000000 ) ) ;
#990 = CARTESIAN_POINT ( 'NONE',  ( -24.68172400787665666, 14.25000000000231815, 3.000000000000000000 ) ) ;
#991 = EDGE_CURVE ( 'NONE', #311, #109, #526, .T. ) ;
#992 = ORIENTED_EDGE ( 'NONE', *, *, #105, .T. ) ;
#993 = CARTESIAN_POINT ( 'NONE',  ( 0.000000000000000000, 0.000000000000000000, 6.000000000000000000 ) ) ;
#994 = LINE ( 'NONE', #800, #788 ) ;
#995 = CARTESIAN_POINT ( 'NONE',  ( 0.000000000000000000, 0.000000000000000000, 5.000000000000000000 ) ) ;
#996 = EDGE_LOOP ( 'NONE', ( #551, #151 ) ) ;
#997 = CYLINDRICAL_SURFACE ( 'NONE', #904, 1.799999999999999600 ) ;
#998 = CARTESIAN_POINT ( 'NONE',  ( 27.53172400784218965, 14.25000000000782840, 3.000000000000000000 ) ) ;
#999 = AXIS2_PLACEMENT_3D ( 'NONE', #1052, #197, #982 ) ;
#1000 = CARTESIAN_POINT ( 'NONE',  ( 24.68172400785639553, -14.25000000000017408, 5.000000000000000000 ) ) ;
#1001 = AXIS2_PLACEMENT_3D ( 'NONE', #467, #649, #644 ) ;
#1002 = ORIENTED_EDGE ( 'NONE', *, *, #375, .T. ) ;
#1003 = CYLINDRICAL_SURFACE ( 'NONE', #616, 23.99999999999999645 ) ;
#1004 = AXIS2_PLACEMENT_3D ( 'NONE', #481, #894, #104 ) ;
#1005 = VERTEX_POINT ( 'NONE', #140 ) ;
#1006 = FACE_OUTER_BOUND ( 'NONE', #65, .T. ) ;
#1007 = EDGE_CURVE ( 'NONE', #852, #510, #739, .T. ) ;
#1008 = DIRECTION ( 'NONE',  ( -0.000000000000000000, -0.000000000000000000, -1.000000000000000000 ) ) ;
#1009 = ORIENTED_EDGE ( 'NONE', *, *, #1020, .F. ) ;
#1010 = DIRECTION ( 'NONE',  ( 1.000000000000000000, 0.000000000000000000, 0.000000000000000000 ) ) ;
#1011 = DIRECTION ( 'NONE',  ( -1.000000000000000000, 0.000000000000000000, 0.000000000000000000 ) ) ;
#1012 = EDGE_CURVE ( 'NONE', #628, #798, #1093, .T. ) ;
#1013 = CARTESIAN_POINT ( 'NONE',  ( -23.99999999999999645, 0.000000000000000000, 2.000000000000000000 ) ) ;
#1014 = ORIENTED_EDGE ( 'NONE', *, *, #1027, .T. ) ;
#1015 = DIRECTION ( 'NONE',  ( -1.000000000000000000, 0.000000000000000000, 0.000000000000000000 ) ) ;
#1016 = EDGE_LOOP ( 'NONE', ( #1201, #1191 ) ) ;
#1017 = CARTESIAN_POINT ( 'NONE',  ( 0.000000000000000000, 0.000000000000000000, 2.000000000000000000 ) ) ;
#1018 = CARTESIAN_POINT ( 'NONE',  ( 0.000000000000000000, 0.000000000000000000, 0.000000000000000000 ) ) ;
#1019 = AXIS2_PLACEMENT_3D ( 'NONE', #933, #473, #459 ) ;
#1020 = EDGE_CURVE ( 'NONE', #92, #672, #885, .T. ) ;
#1021 = ORIENTED_EDGE ( 'NONE', *, *, #793, .F. ) ;
#1022 = FACE_OUTER_BOUND ( 'NONE', #645, .T. ) ;
#1023 = ORIENTED_EDGE ( 'NONE', *, *, #30, .F. ) ;
#1024 = CARTESIAN_POINT ( 'NONE',  ( -26.48172400785650282, 14.25000000000000533, 5.000000000000000000 ) ) ;
#1025 = CIRCLE ( 'NONE', #1061, 32.00000000000000000 ) ;
#1026 = CYLINDRICAL_SURFACE ( 'NONE', #33, 1.799999999999999600 ) ;
#1027 = EDGE_CURVE ( 'NONE', #735, #374, #124, .T. ) ;
#1028 = ORIENTED_EDGE ( 'NONE', *, *, #863, .F. ) ;
#1029 = DIRECTION ( 'NONE',  ( -0.000000000000000000, -0.000000000000000000, -1.000000000000000000 ) ) ;
#1030 = ORIENTED_EDGE ( 'NONE', *, *, #1012, .F. ) ;
#1031 = CARTESIAN_POINT ( 'NONE',  ( 22.88172400785650495, -14.24999999999999467, 3.000000000000000000 ) ) ;
#1032 = CARTESIAN_POINT ( 'NONE',  ( -9.654613238654835866E-12, -28.50000000000484945, 3.000000000000000000 ) ) ;
#1033 = ORIENTED_EDGE ( 'NONE', *, *, #941, .T. ) ;
#1034 = FACE_OUTER_BOUND ( 'NONE', #40, .T. ) ;
#1035 = ORIENTED_EDGE ( 'NONE', *, *, #856, .F. ) ;
#1036 = CARTESIAN_POINT ( 'NONE',  ( 24.68172400784779796, 14.25000000000782840, 0.000000000000000000 ) ) ;
#1037 = FACE_OUTER_BOUND ( 'NONE', #227, .T. ) ;
#1038 = VECTOR ( 'NONE', #292, 1000.000000000000000 ) ;
#1039 = ORIENTED_EDGE ( 'NONE', *, *, #243, .T. ) ;
#1040 = FACE_OUTER_BOUND ( 'NONE', #369, .T. ) ;
#1041 = ORIENTED_EDGE ( 'NONE', *, *, #731, .F. ) ;
#1042 = CARTESIAN_POINT ( 'NONE',  ( 0.000000000000000000, 0.000000000000000000, 0.000000000000000000 ) ) ;
#1043 = AXIS2_PLACEMENT_3D ( 'NONE', #39, #147, #1096 ) ;
#1044 = DIRECTION ( 'NONE',  ( -1.000000000000000000, 0.000000000000000000, -0.000000000000000000 ) ) ;
#1045 = AXIS2_PLACEMENT_3D ( 'NONE', #614, #442, #345 ) ;
#1046 = EDGE_LOOP ( 'NONE', ( #376, #932 ) ) ;
#1047 = ORIENTED_EDGE ( 'NONE', *, *, #1144, .T. ) ;
#1048 = DIRECTION ( 'NONE',  ( -1.000000000000000000, 0.000000000000000000, 0.000000000000000000 ) ) ;
#1049 = DIRECTION ( 'NONE',  ( 0.000000000000000000, 0.000000000000000000, -1.000000000000000000 ) ) ;
#1050 = ADVANCED_FACE ( 'NONE', ( #815 ), #600, .F. ) ;
#1051 = ORIENTED_EDGE ( 'NONE', *, *, #534, .T. ) ;
#1052 = CARTESIAN_POINT ( 'NONE',  ( -1.601988228706893096E-11, 28.50000000000838085, 3.000000000000000000 ) ) ;
#1053 = CARTESIAN_POINT ( 'NONE',  ( 26.48172400785658098, 14.24999999999988454, 5.000000000000000000 ) ) ;
#1054 = COORDINATED_UNIVERSAL_TIME_OFFSET ( 8, 0, .AHEAD. ) ;
#1055 = CIRCLE ( 'NONE', #108, 1.799999999999999600 ) ;
#1056 = ORIENTED_EDGE ( 'NONE', *, *, #50, .F. ) ;
#1057 = DIRECTION ( 'NONE',  ( 0.000000000000000000, 0.000000000000000000, 1.000000000000000000 ) ) ;
#1058 = CARTESIAN_POINT ( 'NONE',  ( 0.000000000000000000, 0.000000000000000000, 2.000000000000000000 ) ) ;
#1059 = VECTOR ( 'NONE', #155, 1000.000000000000000 ) ;
#1060 = AXIS2_PLACEMENT_3D ( 'NONE', #391, #1065, #4 ) ;
#1061 = AXIS2_PLACEMENT_3D ( 'NONE', #1042, #751, #831 ) ;
#1062 = EDGE_CURVE ( 'NONE', #672, #92, #48, .T. ) ;
#1063 = ORIENTED_EDGE ( 'NONE', *, *, #343, .T. ) ;
#1064 = DIRECTION ( 'NONE',  ( 0.000000000000000000, 0.000000000000000000, -1.000000000000000000 ) ) ;
#1065 = DIRECTION ( 'NONE',  ( 0.000000000000000000, 0.000000000000000000, -1.000000000000000000 ) ) ;
#1066 = DIRECTION ( 'NONE',  ( -0.000000000000000000, -0.000000000000000000, -1.000000000000000000 ) ) ;
#1067 = CALENDAR_DATE ( 2026, 28, 8 ) ;
#1068 = VERTEX_POINT ( 'NONE', #415 ) ;
#1069 = FACE_BOUND ( 'NONE', #1216, .T. ) ;
#1070 = DIRECTION ( 'NONE',  ( -0.000000000000000000, -0.000000000000000000, 1.000000000000000000 ) ) ;
#1071 = EDGE_CURVE ( 'NONE', #593, #191, #27, .T. ) ;
#1072 = VERTEX_POINT ( 'NONE', #821 ) ;
#1073 = ORIENTED_EDGE ( 'NONE', *, *, #1071, .T. ) ;
#1074 = DIRECTION ( 'NONE',  ( 0.000000000000000000, 0.000000000000000000, 1.000000000000000000 ) ) ;
#1075 = AXIS2_PLACEMENT_3D ( 'NONE', #734, #555, #657 ) ;
#1076 = LOCAL_TIME ( 11, 17, 11.00000000000000000, #676 ) ;
#1077 = DIRECTION ( 'NONE',  ( -0.000000000000000000, -0.000000000000000000, 1.000000000000000000 ) ) ;
#1078 = EDGE_CURVE ( 'NONE', #651, #109, #1177, .T. ) ;
#1079 = DIRECTION ( 'NONE',  ( 0.000000000000000000, 0.000000000000000000, -1.000000000000000000 ) ) ;
#1080 = CIRCLE ( 'NONE', #1223, 2.850000000002517186 ) ;
#1081 = CIRCLE ( 'NONE', #198, 1.799999999999999600 ) ;
#1082 = ORIENTED_EDGE ( 'NONE', *, *, #1020, .T. ) ;
#1083 = DIRECTION ( 'NONE',  ( 0.000000000000000000, 0.000000000000000000, 1.000000000000000000 ) ) ;
#1084 = DIRECTION ( 'NONE',  ( 0.000000000000000000, 0.000000000000000000, -1.000000000000000000 ) ) ;
#1085 = CARTESIAN_POINT ( 'NONE',  ( 21.83172400785340628, 14.25000000000782840, 3.000000000000000000 ) ) ;
#1086 = ADVANCED_FACE ( 'NONE', ( #144 ), #608, .F. ) ;
#1087 = VERTEX_POINT ( 'NONE', #901 ) ;
#1088 = CYLINDRICAL_SURFACE ( 'NONE', #922, 2.850000000002517186 ) ;
#1089 = CARTESIAN_POINT ( 'NONE',  ( 22.88172400785639482, -14.24999999999999467, 5.000000000000000000 ) ) ;
#1090 = CARTESIAN_POINT ( 'NONE',  ( -25.00000000000000000, 0.000000000000000000, 5.000000000000000000 ) ) ;
#1091 = EDGE_CURVE ( 'NONE', #934, #1005, #557, .T. ) ;
#1092 = EDGE_LOOP ( 'NONE', ( #1039, #597 ) ) ;
#1093 = LINE ( 'NONE', #22, #839 ) ;
#1094 = ORIENTED_EDGE ( 'NONE', *, *, #1109, .T. ) ;
#1095 = DIRECTION ( 'NONE',  ( -0.000000000000000000, -0.000000000000000000, -1.000000000000000000 ) ) ;
#1096 = DIRECTION ( 'NONE',  ( 1.000000000000000000, 0.000000000000000000, 0.000000000000000000 ) ) ;
#1097 = AXIS2_PLACEMENT_3D ( 'NONE', #1231, #1209, #246 ) ;
#1098 = AXIS2_PLACEMENT_3D ( 'NONE', #185, #211, #100 ) ;
#1099 = EDGE_LOOP ( 'NONE', ( #1129, #1063 ) ) ;
#1100 = CARTESIAN_POINT ( 'NONE',  ( 0.000000000000000000, 0.000000000000000000, 0.000000000000000000 ) ) ;
#1101 = ADVANCED_FACE ( 'NONE', ( #710 ), #1088, .F. ) ;
#1102 = ORIENTED_EDGE ( 'NONE', *, *, #20, .F. ) ;
#1103 = CARTESIAN_POINT ( 'NONE',  ( -2.850000000019127455, 28.50000000000838085, 3.000000000000000000 ) ) ;
#1104 = CYLINDRICAL_SURFACE ( 'NONE', #889, 2.849999999996920774 ) ;
#1105 = ORIENTED_EDGE ( 'NONE', *, *, #79, .T. ) ;
#1106 = DIRECTION ( 'NONE',  ( -0.000000000000000000, -0.000000000000000000, -1.000000000000000000 ) ) ;
#1107 = VERTEX_POINT ( 'NONE', #252 ) ;
#1108 = DIRECTION ( 'NONE',  ( -0.000000000000000000, -0.000000000000000000, 1.000000000000000000 ) ) ;
#1109 = EDGE_CURVE ( 'NONE', #422, #270, #659, .T. ) ;
#1110 = FACE_OUTER_BOUND ( 'NONE', #196, .T. ) ;
#1111 = EDGE_LOOP ( 'NONE', ( #1142, #446, #1014, #864 ) ) ;
#1112 = CYLINDRICAL_SURFACE ( 'NONE', #132, 1.799999999999999600 ) ;
#1113 = EDGE_LOOP ( 'NONE', ( #1102, #569 ) ) ;
#1114 = DIRECTION ( 'NONE',  ( -0.000000000000000000, -0.000000000000000000, -1.000000000000000000 ) ) ;
#1115 = FACE_OUTER_BOUND ( 'NONE', #222, .T. ) ;
#1116 = VECTOR ( 'NONE', #434, 1000.000000000000000 ) ;
#1117 = ADVANCED_FACE ( 'NONE', ( #1040 ), #364, .F. ) ;
#1118 = LOCAL_TIME ( 11, 17, 11.00000000000000000, #1054 ) ;
#1119 = EDGE_LOOP ( 'NONE', ( #253, #383 ) ) ;
#1120 = CARTESIAN_POINT ( 'NONE',  ( -24.68172400785650211, 14.25000000000000533, 0.000000000000000000 ) ) ;
#1121 = AXIS2_PLACEMENT_3D ( 'NONE', #632, #813, #1193 ) ;
#1122 = ORIENTED_EDGE ( 'NONE', *, *, #267, .T. ) ;
#1123 = FACE_OUTER_BOUND ( 'NONE', #268, .T. ) ;
#1124 = VECTOR ( 'NONE', #686, 1000.000000000000000 ) ;
#1125 = CIRCLE ( 'NONE', #427, 23.99999999999999645 ) ;
#1126 = FACE_OUTER_BOUND ( 'NONE', #123, .T. ) ;
#1127 = ORIENTED_EDGE ( 'NONE', *, *, #50, .T. ) ;
#1128 = DIRECTION ( 'NONE',  ( 1.000000000000000000, 0.000000000000000000, 0.000000000000000000 ) ) ;
#1129 = ORIENTED_EDGE ( 'NONE', *, *, #295, .T. ) ;
#1130 = CARTESIAN_POINT ( 'NONE',  ( 26.48172400785650282, 14.25000000000000355, 3.000000000000000000 ) ) ;
#1131 = CARTESIAN_POINT ( 'NONE',  ( -1.601988228706893096E-11, 28.50000000000838085, 3.000000000000000000 ) ) ;
#1132 = ORIENTED_EDGE ( 'NONE', *, *, #30, .T. ) ;
#1133 = CYLINDRICAL_SURFACE ( 'NONE', #500, 2.849999999996920774 ) ;
#1134 = EDGE_CURVE ( 'NONE', #1184, #87, #378, .T. ) ;
#1135 = ORIENTED_EDGE ( 'NONE', *, *, #1109, .F. ) ;
#1136 = ADVANCED_BREP_SHAPE_REPRESENTATION ( '\X2\987676d6\X0\', ( #78, #317 ), #380 ) ;
#1137 = CARTESIAN_POINT ( 'NONE',  ( -22.88172400785649785, -14.25000000000001243, 3.000000000000000000 ) ) ;
#1138 = LINE ( 'NONE', #936, #621 ) ;
#1139 = CIRCLE ( 'NONE', #1240, 2.850000000003107825 ) ;
#1140 = CARTESIAN_POINT ( 'NONE',  ( -2.850000000006575718, -28.50000000000484945, 3.000000000000000000 ) ) ;
#1141 = CC_DESIGN_APPROVAL ( #177, ( #701 ) ) ;
#1142 = ORIENTED_EDGE ( 'NONE', *, *, #902, .F. ) ;
#1143 = CYLINDRICAL_SURFACE ( 'NONE', #910, 2.850000000003107825 ) ;
#1144 = EDGE_CURVE ( 'NONE', #422, #754, #841, .T. ) ;
#1145 = FACE_BOUND ( 'NONE', #2, .T. ) ;
#1146 = AXIS2_PLACEMENT_3D ( 'NONE', #308, #595, #492 ) ;
#1147 =( NAMED_UNIT ( * ) PLANE_ANGLE_UNIT ( ) SI_UNIT ( $, .RADIAN. ) );
#1148 = ORIENTED_EDGE ( 'NONE', *, *, #1178, .T. ) ;
#1149 = CARTESIAN_POINT ( 'NONE',  ( -2.850000000019127455, 28.50000000000838085, 0.000000000000000000 ) ) ;
#1150 = CARTESIAN_POINT ( 'NONE',  ( 2.849999999987266275, -28.50000000000484945, 3.000000000000000000 ) ) ;
#1151 = EDGE_CURVE ( 'NONE', #1087, #1107, #421, .T. ) ;
#1152 = SECURITY_CLASSIFICATION_LEVEL ( 'unclassified' ) ;
#1153 = EDGE_LOOP ( 'NONE', ( #835, #241, #438, #1237 ) ) ;
#1154 = CARTESIAN_POINT ( 'NONE',  ( 22.88172400785650140, 14.25000000000000355, 0.000000000000000000 ) ) ;
#1155 = FACE_OUTER_BOUND ( 'NONE', #353, .T. ) ;
#1156 = EDGE_CURVE ( 'NONE', #468, #347, #783, .T. ) ;
#1157 = APPROVAL_DATE_TIME ( #666, #177 ) ;
#1158 = AXIS2_PLACEMENT_3D ( 'NONE', #439, #330, #908 ) ;
#1159 = ORIENTED_EDGE ( 'NONE', *, *, #1062, .T. ) ;
#1160 = CC_DESIGN_APPROVAL ( #405, ( #762 ) ) ;
#1161 = CARTESIAN_POINT ( 'NONE',  ( -24.68172400787348053, -14.25000000000428635, 3.000000000000000000 ) ) ;
#1162 = DIRECTION ( 'NONE',  ( -0.000000000000000000, -0.000000000000000000, -1.000000000000000000 ) ) ;
#1163 = ORIENTED_EDGE ( 'NONE', *, *, #471, .F. ) ;
#1164 = AXIS2_PLACEMENT_3D ( 'NONE', #590, #979, #886 ) ;
#1165 = PERSON_AND_ORGANIZATION_ROLE ( 'classification_officer' ) ;
#1166 = ORIENTED_EDGE ( 'NONE', *, *, #874, .F. ) ;
#1167 = CARTESIAN_POINT ( 'NONE',  ( -26.48172400785649927, -14.25000000000001243, 0.000000000000000000 ) ) ;
#1168 = DIRECTION ( 'NONE',  ( -0.000000000000000000, -0.000000000000000000, -1.000000000000000000 ) ) ;
#1169 = ORIENTED_EDGE ( 'NONE', *, *, #713, .T. ) ;
#1170 = ORIENTED_EDGE ( 'NONE', *, *, #961, .T. ) ;
#1171 = DIRECTION ( 'NONE',  ( -1.000000000000000000, 0.000000000000000000, 0.000000000000000000 ) ) ;
#1172 = ADVANCED_FACE ( 'NONE', ( #447, #72 ), #537, .T. ) ;
#1173 = CYLINDRICAL_SURFACE ( 'NONE', #1004, 1.799999999999999600 ) ;
#1174 = CARTESIAN_POINT ( 'NONE',  ( -24.68172400787348053, -14.25000000000428635, 3.000000000000000000 ) ) ;
#1175 = ORIENTED_EDGE ( 'NONE', *, *, #115, .T. ) ;
#1176 = CARTESIAN_POINT ( 'NONE',  ( 24.68172400785097764, -14.24999999999877964, 3.000000000000000000 ) ) ;
#1177 = CIRCLE ( 'NONE', #399, 23.99999999999999645 ) ;
#1178 = EDGE_CURVE ( 'NONE', #74, #756, #154, .T. ) ;
#1179 = DIRECTION ( 'NONE',  ( 1.000000000000000000, 0.000000000000000000, 0.000000000000000000 ) ) ;
#1180 = CARTESIAN_POINT ( 'NONE',  ( -24.68172400787348053, -14.25000000000428635, 0.000000000000000000 ) ) ;
#1181 = CC_DESIGN_PERSON_AND_ORGANIZATION_ASSIGNMENT ( #876, #90, ( #413 ) ) ;
#1182 = AXIS2_PLACEMENT_3D ( 'NONE', #631, #920, #417 ) ;
#1183 = CIRCLE ( 'NONE', #524, 2.849999999996920774 ) ;
#1184 = VERTEX_POINT ( 'NONE', #171 ) ;
#1185 = CARTESIAN_POINT ( 'NONE',  ( -24.68172400785650211, 14.25000000000000533, 0.000000000000000000 ) ) ;
#1186 = CYLINDRICAL_SURFACE ( 'NONE', #562, 2.849999999994384581 ) ;
#1187 = CARTESIAN_POINT ( 'NONE',  ( 1.799999999999729816, -28.50000000000001066, 5.000000000000000000 ) ) ;
#1188 = ADVANCED_FACE ( 'NONE', ( #1034 ), #1112, .F. ) ;
#1189 = EDGE_LOOP ( 'NONE', ( #247, #1041 ) ) ;
#1190 = DIRECTION ( 'NONE',  ( 1.000000000000000000, 0.000000000000000000, 0.000000000000000000 ) ) ;
#1191 = ORIENTED_EDGE ( 'NONE', *, *, #284, .F. ) ;
#1192 = CARTESIAN_POINT ( 'NONE',  ( 32.00000000000000000, 3.918869757271530263E-15, 0.000000000000000000 ) ) ;
#1193 = DIRECTION ( 'NONE',  ( -1.000000000000000000, 0.000000000000000000, 0.000000000000000000 ) ) ;
#1194 = PERSON ( 'æœª', 'æœª', 'æœª', ('æœª'), ('æœª'), ('æœª') ) ;
#1195 = ADVANCED_FACE ( 'NONE', ( #851 ), #1215, .F. ) ;
#1196 = ORIENTED_EDGE ( 'NONE', *, *, #432, .T. ) ;
#1197 = CARTESIAN_POINT ( 'NONE',  ( 24.68172400784779796, 14.25000000000782840, 3.000000000000000000 ) ) ;
#1198 = DIRECTION ( 'NONE',  ( 0.000000000000000000, 0.000000000000000000, 1.000000000000000000 ) ) ;
#1199 = AXIS2_PLACEMENT_3D ( 'NONE', #496, #572, #1048 ) ;
#1200 = DIRECTION ( 'NONE',  ( -0.000000000000000000, -0.000000000000000000, 1.000000000000000000 ) ) ;
#1201 = ORIENTED_EDGE ( 'NONE', *, *, #670, .F. ) ;
#1202 = DIRECTION ( 'NONE',  ( 1.000000000000000000, 0.000000000000000000, 0.000000000000000000 ) ) ;
#1203 = CIRCLE ( 'NONE', #220, 2.850000000002517186 ) ;
#1204 = EDGE_CURVE ( 'NONE', #789, #727, #110, .T. ) ;
#1205 = ORIENTED_EDGE ( 'NONE', *, *, #1012, .T. ) ;
#1206 = DIRECTION ( 'NONE',  ( 0.000000000000000000, 0.000000000000000000, 1.000000000000000000 ) ) ;
#1207 = CARTESIAN_POINT ( 'NONE',  ( 23.99999999999999645, 2.939152317953647500E-15, 0.000000000000000000 ) ) ;
#1208 = ORIENTED_EDGE ( 'NONE', *, *, #543, .F. ) ;
#1209 = DIRECTION ( 'NONE',  ( -0.000000000000000000, -0.000000000000000000, 1.000000000000000000 ) ) ;
#1210 = EDGE_LOOP ( 'NONE', ( #54, #939 ) ) ;
#1211 = DIRECTION ( 'NONE',  ( -1.000000000000000000, 0.000000000000000000, 0.000000000000000000 ) ) ;
#1212 = ADVANCED_FACE ( 'NONE', ( #370 ), #81, .F. ) ;
#1213 = CARTESIAN_POINT ( 'NONE',  ( 27.53172400784536222, -14.24999999999877964, 0.000000000000000000 ) ) ;
#1214 = VERTEX_POINT ( 'NONE', #629 ) ;
#1215 = CYLINDRICAL_SURFACE ( 'NONE', #1241, 1.799999999999999600 ) ;
#1216 = EDGE_LOOP ( 'NONE', ( #15, #1148 ) ) ;
#1217 = FACE_OUTER_BOUND ( 'NONE', #1189, .T. ) ;
#1218 = CARTESIAN_POINT ( 'NONE',  ( 1.800000000000070433, 28.50000000000000711, 5.000000000000000000 ) ) ;
#1219 = VECTOR ( 'NONE', #972, 1000.000000000000000 ) ;
#1220 = AXIS2_PLACEMENT_3D ( 'NONE', #755, #1029, #550 ) ;
#1221 = ORIENTED_EDGE ( 'NONE', *, *, #190, .F. ) ;
#1222 = DIRECTION ( 'NONE',  ( -0.000000000000000000, -0.000000000000000000, 1.000000000000000000 ) ) ;
#1223 = AXIS2_PLACEMENT_3D ( 'NONE', #1180, #236, #225 ) ;
#1224 = ORIENTED_EDGE ( 'NONE', *, *, #708, .F. ) ;
#1225 = FACE_BOUND ( 'NONE', #539, .T. ) ;
#1226 = AXIS2_PLACEMENT_3D ( 'NONE', #406, #313, #386 ) ;
#1227 = CIRCLE ( 'NONE', #586, 2.849999999994384581 ) ;
#1228 = DIRECTION ( 'NONE',  ( 0.000000000000000000, 0.000000000000000000, -1.000000000000000000 ) ) ;
#1229 = ADVANCED_FACE ( 'NONE', ( #828 ), #1133, .F. ) ;
#1230 = ORIENTED_EDGE ( 'NONE', *, *, #221, .F. ) ;
#1231 = CARTESIAN_POINT ( 'NONE',  ( 0.000000000000000000, 28.50000000000000000, 3.000000000000000000 ) ) ;
#1232 = ORIENTED_EDGE ( 'NONE', *, *, #506, .T. ) ;
#1233 = FACE_BOUND ( 'NONE', #1016, .T. ) ;
#1234 = CYLINDRICAL_SURFACE ( 'NONE', #522, 1.799999999999999600 ) ;
#1235 = EDGE_CURVE ( 'NONE', #311, #160, #559, .T. ) ;
#1236 = CARTESIAN_POINT ( 'NONE',  ( 22.88172400785650140, 14.25000000000000355, 3.000000000000000000 ) ) ;
#1237 = ORIENTED_EDGE ( 'NONE', *, *, #633, .F. ) ;
#1238 = FACE_BOUND ( 'NONE', #507, .T. ) ;
#1239 = FACE_OUTER_BOUND ( 'NONE', #25, .T. ) ;
#1240 = AXIS2_PLACEMENT_3D ( 'NONE', #485, #202, #865 ) ;
#1241 = AXIS2_PLACEMENT_3D ( 'NONE', #1120, #564, #1202 ) ;
#1242 = COORDINATED_UNIVERSAL_TIME_OFFSET ( 8, 0, .AHEAD. ) ;
#1243 = ORIENTED_EDGE ( 'NONE', *, *, #416, .T. ) ;
#1244 = CARTESIAN_POINT ( 'NONE',  ( -24.68172400785667975, -14.24999999999970512, 5.000000000000000000 ) ) ;
#1245 = CLOSED_SHELL ( 'NONE', ( #249, #521, #91, #1101, #642, #1117, #978, #1086, #385, #1188, #955, #305, #596, #321, #437, #619, #122, #1251, #487, #1195, #764, #314, #148, #1172, #675, #400, #156, #661, #691, #38, #880, #1212, #209, #1229, #290, #574, #477, #1050, #174 ) ) ;
#1246 = FACE_OUTER_BOUND ( 'NONE', #172, .T. ) ;
#1247 = VECTOR ( 'NONE', #1070, 1000.000000000000000 ) ;
#1248 = CALENDAR_DATE ( 2026, 28, 8 ) ;
#1249 = EDGE_LOOP ( 'NONE', ( #279, #1035, #44, #877 ) ) ;
#1250 = DIRECTION ( 'NONE',  ( -1.000000000000000000, 0.000000000000000000, -0.000000000000000000 ) ) ;
#1251 = ADVANCED_FACE ( 'NONE', ( #1022 ), #58, .F. ) ;
#1252 = FACE_BOUND ( 'NONE', #251, .T. ) ;
#1253 = DESIGN_CONTEXT ( 'detailed design', #655, 'design' ) ;
ENDSEC;
END-ISO-10303-21;
